# This file uses meters as units for non-parametric coordinates.

mtllib uv_Bacia.mtl
g default
v 37.137070 -0.786581 273.563141
v 36.015495 -0.786581 271.361938
v 34.268600 -0.786581 269.615021
v 32.067383 -0.786581 268.493439
v 29.627314 -0.786581 268.106964
v 27.187248 -0.786581 268.493439
v 24.986031 -0.786581 269.615021
v 23.239134 -0.786581 271.361938
v 22.117565 -0.786581 273.563141
v 21.731091 -0.786581 276.003204
v 22.117565 -0.786581 278.443268
v 23.239134 -0.786581 280.644501
v 24.986031 -0.786581 282.391388
v 27.187250 -0.786581 283.512970
v 29.627314 -0.786581 283.899445
v 32.067383 -0.786581 283.512970
v 34.268600 -0.786581 282.391388
v 36.015495 -0.786581 280.644501
v 37.137070 -0.786581 278.443268
v 37.523537 -0.786581 276.003204
v 40.088940 4.699088 272.604034
v 38.526505 4.699088 269.537567
v 36.092957 4.699088 267.104034
v 33.026512 4.699088 265.541565
v 29.627314 4.699088 265.003204
v 26.228128 4.699088 265.541565
v 23.161678 4.699088 267.104034
v 20.728130 4.699088 269.537567
v 19.165693 4.699088 272.604034
v 18.627323 4.699088 276.003204
v 19.165693 4.699088 279.402405
v 20.728130 4.699088 282.468842
v 23.161682 4.699088 284.902405
v 26.228130 4.699088 286.464844
v 29.627314 4.699088 287.003204
v 33.026512 4.699088 286.464844
v 36.092957 4.699088 284.902405
v 38.526505 4.699088 282.468842
v 40.088936 4.699088 279.402405
v 40.627327 4.699088 276.003204
v 37.137070 -1.655176 273.563141
v 36.015495 -1.655176 271.361938
v 29.627314 -1.655176 276.003204
v 34.268600 -1.655176 269.615021
v 32.067383 -1.655176 268.493439
v 29.627314 -1.655176 268.106964
v 27.187248 -1.655176 268.493439
v 24.986031 -1.655176 269.615021
v 23.239134 -1.655176 271.361938
v 22.117565 -1.655176 273.563141
v 21.731091 -1.655176 276.003204
v 22.117565 -1.655176 278.443268
v 23.239134 -1.655176 280.644501
v 24.986031 -1.655176 282.391388
v 27.187250 -1.655176 283.512970
v 29.627314 -1.655176 283.899445
v 32.067383 -1.655176 283.512970
v 34.268600 -1.655176 282.391388
v 36.015495 -1.655176 280.644501
v 37.137070 -1.655176 278.443268
v 37.523537 -1.655176 276.003204
v 39.926079 4.699088 272.656921
v 38.387966 4.699088 269.638214
v 35.992302 4.699088 267.242554
v 32.973587 4.699088 265.704437
v 29.627317 4.699088 265.174438
v 26.281044 4.699088 265.704437
v 23.262335 4.699088 267.242554
v 20.866667 4.699088 269.638214
v 19.328552 4.699088 272.656921
v 18.798561 4.699088 276.003204
v 19.328552 4.699088 279.349487
v 20.866667 4.699088 282.368195
v 23.262337 4.699088 284.763855
v 26.281046 4.699088 286.301971
v 29.627317 4.699088 286.831970
v 32.973587 4.699088 286.301971
v 35.992302 4.699088 284.763855
v 38.387962 4.699088 282.368195
v 39.926071 4.699088 279.349487
v 40.456074 4.699088 276.003204
v 37.014927 -0.712929 273.602844
v 35.911594 -0.712929 271.437439
v 29.627319 -0.712929 276.003204
v 34.193111 -0.712929 269.718933
v 32.027699 -0.712929 268.615601
v 29.627319 -0.712929 268.235413
v 27.226934 -0.712929 268.615601
v 25.061527 -0.712929 269.718933
v 23.343042 -0.712929 271.437439
v 22.239710 -0.712929 273.602844
v 21.859529 -0.712929 276.003204
v 22.239710 -0.712929 278.403595
v 23.343042 -0.712929 280.569000
v 25.061527 -0.712929 282.287476
v 27.226936 -0.712929 283.390808
v 29.627319 -0.712929 283.771027
v 32.027699 -0.712929 283.390808
v 34.193108 -0.712929 282.287476
v 35.911587 -0.712929 280.569000
v 37.014919 -0.712929 278.403595
v 37.395111 -0.712929 276.003204
v 41.390556 5.304804 272.181122
v 39.633728 5.304804 268.733124
v 39.477951 5.304804 268.846283
v 41.207436 5.304804 272.240601
v 36.897400 5.304804 265.996796
v 36.784225 5.304804 266.152557
v 33.449432 5.304804 264.239960
v 33.389927 5.304804 264.423065
v 29.627312 5.304804 263.634613
v 29.627316 5.304804 263.827148
v 25.805206 5.304804 264.239960
v 25.864704 5.304804 264.423065
v 22.357233 5.304804 265.996796
v 22.470413 5.304804 266.152557
v 19.620907 5.304804 268.733124
v 19.776680 5.304804 268.846283
v 17.864075 5.304804 272.181122
v 18.047197 5.304804 272.240601
v 17.258720 5.304804 276.003204
v 17.451265 5.304804 276.003204
v 17.864075 5.304804 279.825317
v 18.047197 5.304804 279.765808
v 19.620907 5.304804 283.273285
v 19.776680 5.304804 283.160126
v 22.357239 5.304804 286.009644
v 22.470415 5.304804 285.853851
v 25.805208 5.304804 287.766449
v 25.864706 5.304804 287.583344
v 29.627312 5.304804 288.371796
v 29.627316 5.304804 288.179260
v 33.449432 5.304804 287.766449
v 33.389927 5.304804 287.583344
v 36.897400 5.304804 286.009644
v 36.784222 5.304804 285.853851
v 39.633724 5.304804 283.273285
v 39.477947 5.304804 283.160126
v 41.390549 5.304804 279.825317
v 41.207428 5.304804 279.765808
v 41.995926 5.304804 276.003204
v 41.803371 5.304804 276.003204
vt 0.900694 0.309853
vt 0.900694 0.270804
vt 0.998008 0.238441
vt 0.998008 0.292838
vt 0.885285 0.309853
vt 0.885285 0.270804
vt 0.900694 0.239815
vt 0.998008 0.195270
vt 0.900694 0.353138
vt 0.998008 0.353138
vt 0.885285 0.353138
vt 0.885285 0.239815
vt 0.900694 0.396424
vt 0.998008 0.413439
vt 0.885285 0.396424
vt 0.900694 0.435473
vt 0.998008 0.467836
vt 0.885285 0.435473
vt 0.900694 0.466462
vt 0.998008 0.511007
vt 0.885285 0.466462
vt 0.380878 0.587254
vt 0.380878 0.548206
vt 0.478191 0.565220
vt 0.478191 0.619617
vt 0.365469 0.587254
vt 0.365469 0.548206
vt 0.380878 0.504920
vt 0.478191 0.504920
vt 0.380878 0.618243
vt 0.478191 0.662788
vt 0.365469 0.618243
vt 0.365469 0.504920
vt 0.380878 0.461634
vt 0.478191 0.444619
vt 0.365469 0.461634
vt 0.380878 0.422585
vt 0.478191 0.390222
vt 0.365469 0.422585
vt 0.380878 0.391596
vt 0.478191 0.347052
vt 0.365469 0.391596
vt 0.879674 0.581345
vt 0.879674 0.634896
vt 0.783667 0.602978
vt 0.783667 0.564565
vt 0.879674 0.677394
vt 0.783667 0.633464
vt 0.879674 0.521983
vt 0.783667 0.521983
vt 0.879674 0.462622
vt 0.783667 0.479401
vt 0.879674 0.409071
vt 0.783667 0.440988
vt 0.879674 0.366573
vt 0.783667 0.410503
vt 0.359859 0.448154
vt 0.359859 0.501705
vt 0.263852 0.518485
vt 0.263852 0.480072
vt 0.359859 0.561066
vt 0.263852 0.561066
vt 0.359859 0.405656
vt 0.263852 0.449586
vt 0.359859 0.620428
vt 0.263852 0.603649
vt 0.359859 0.673979
vt 0.263852 0.642062
vt 0.359859 0.716477
vt 0.263852 0.672547
vt 0.738073 0.498573
vt 0.757970 0.537622
vt 0.624749 0.580907
vt 0.764825 0.580907
vt 0.707084 0.467584
vt 0.757970 0.624193
vt 0.668036 0.447687
vt 0.738073 0.663242
vt 0.624749 0.440832
vt 0.707084 0.694231
vt 0.581464 0.447687
vt 0.668036 0.714128
vt 0.542415 0.467584
vt 0.624749 0.720984
vt 0.511426 0.498573
vt 0.581464 0.714128
vt 0.491529 0.537622
vt 0.542415 0.694231
vt 0.484674 0.580907
vt 0.511426 0.663242
vt 0.491529 0.624193
vt 0.270843 0.787316
vt 0.251270 0.825729
vt 0.139790 0.744735
vt 0.220785 0.856215
vt 0.277587 0.744735
vt 0.182371 0.875788
vt 0.270843 0.702152
vt 0.139790 0.882532
vt 0.251270 0.663739
vt 0.097208 0.875788
vt 0.220785 0.633254
vt 0.058794 0.856215
vt 0.182371 0.613681
vt 0.028309 0.825729
vt 0.139790 0.606937
vt 0.008736 0.787316
vt 0.097208 0.613681
vt 0.001992 0.744735
vt 0.058794 0.633254
vt 0.008736 0.702152
vt 0.028309 0.663739
vt 0.289208 0.012546
vt 0.350374 0.043712
vt 0.348367 0.046475
vt 0.288153 0.015795
vt 0.398916 0.092253
vt 0.396153 0.094260
vt 0.334318 0.065811
vt 0.280768 0.038525
vt 0.221406 0.001807
vt 0.221406 0.005223
vt 0.430082 0.153418
vt 0.426833 0.154474
vt 0.376816 0.108309
vt 0.221406 0.029123
vt 0.153603 0.012546
vt 0.154659 0.015795
vt 0.440820 0.221221
vt 0.437404 0.221221
vt 0.404102 0.161860
vt 0.162044 0.038525
vt 0.092438 0.043712
vt 0.094445 0.046475
vt 0.430082 0.289024
vt 0.426833 0.287968
vt 0.413504 0.221221
vt 0.108494 0.065811
vt 0.043896 0.092253
vt 0.046660 0.094260
vt 0.398916 0.350190
vt 0.396153 0.348182
vt 0.404102 0.280583
vt 0.065996 0.108309
vt 0.012731 0.153418
vt 0.015979 0.154474
vt 0.350374 0.398731
vt 0.348367 0.395968
vt 0.376816 0.334134
vt 0.038710 0.161860
vt 0.001992 0.221221
vt 0.005408 0.221221
vt 0.289208 0.429897
vt 0.288153 0.426648
vt 0.334318 0.376632
vt 0.029308 0.221221
vt 0.012731 0.289024
vt 0.015979 0.287968
vt 0.221406 0.440636
vt 0.221406 0.437220
vt 0.280768 0.403917
vt 0.038710 0.280583
vt 0.043896 0.350190
vt 0.046660 0.348182
vt 0.153603 0.429897
vt 0.154659 0.426648
vt 0.221406 0.413319
vt 0.065996 0.334133
vt 0.092438 0.398731
vt 0.094445 0.395968
vt 0.162044 0.403917
vt 0.108494 0.376632
vt 0.606658 0.035636
vt 0.552260 0.063353
vt 0.537990 0.043712
vt 0.599156 0.012546
vt 0.509090 0.106524
vt 0.489448 0.092253
vt 0.666958 0.026086
vt 0.666958 0.001807
vt 0.481373 0.160921
vt 0.458283 0.153419
vt 0.727259 0.035636
vt 0.734761 0.012546
vt 0.471822 0.221222
vt 0.447544 0.221222
vt 0.781656 0.063353
vt 0.795926 0.043712
vt 0.481373 0.281522
vt 0.458283 0.289024
vt 0.824826 0.106524
vt 0.844469 0.092253
vt 0.509090 0.335919
vt 0.489448 0.350190
vt 0.852543 0.160921
vt 0.875633 0.153419
vt 0.552260 0.379090
vt 0.537990 0.398731
vt 0.862094 0.221222
vt 0.886372 0.221222
vt 0.606658 0.406807
vt 0.599156 0.429897
vt 0.852543 0.281522
vt 0.875633 0.289024
vt 0.666958 0.416357
vt 0.666958 0.440636
vt 0.824826 0.335919
vt 0.844469 0.350190
vt 0.727259 0.406807
vt 0.734761 0.429897
vt 0.781656 0.379090
vt 0.795926 0.398731
vt 0.982599 0.516187
vt 0.982599 0.555235
vt 0.885285 0.538221
vt 0.885285 0.483823
vt 0.998008 0.516187
vt 0.998008 0.555235
vt 0.982599 0.598521
vt 0.885285 0.598521
vt 0.998008 0.598521
vt 0.982599 0.641807
vt 0.885285 0.658821
vt 0.998008 0.641807
vt 0.982599 0.680856
vt 0.885285 0.713219
vt 0.998008 0.680856
vt 0.728724 0.855731
vt 0.728724 0.816682
vt 0.826037 0.833696
vt 0.826037 0.888094
vt 0.713315 0.855731
vt 0.713315 0.816682
vt 0.728724 0.773396
vt 0.826037 0.773396
vt 0.713315 0.773396
vt 0.728724 0.730110
vt 0.826037 0.713096
vt 0.713315 0.730110
vt 0.728724 0.691061
vt 0.826037 0.658698
vt 0.713315 0.691061
vt 0.461476 0.661907
vt 0.461476 0.715457
vt 0.365469 0.732237
vt 0.365469 0.693824
vt 0.461476 0.774819
vt 0.365469 0.774819
vt 0.461476 0.834181
vt 0.365469 0.817401
vt 0.461476 0.887731
vt 0.365469 0.855814
vt 0.467086 0.905318
vt 0.467086 0.851767
vt 0.563093 0.834987
vt 0.563093 0.873401
vt 0.467086 0.792406
vt 0.563093 0.792406
vt 0.467086 0.733044
vt 0.563093 0.749824
vt 0.467086 0.679493
vt 0.563093 0.711410
vn 0.849825 -0.448945 -0.276126
vn 0.722905 -0.448945 -0.525221
vn 0.633192 -0.622438 -0.460042
vn 0.744363 -0.622437 -0.241859
vn 0.525223 -0.448944 -0.722904
vn 0.460043 -0.622436 -0.633193
vn 0.276127 -0.448944 -0.849825
vn 0.241859 -0.622437 -0.744363
vn -0.000000 -0.448944 -0.893560
vn 0.000000 -0.622434 -0.782672
vn -0.276127 -0.448944 -0.849826
vn -0.241860 -0.622436 -0.744363
vn -0.525223 -0.448944 -0.722904
vn -0.460043 -0.622436 -0.633193
vn -0.722905 -0.448945 -0.525221
vn -0.633193 -0.622438 -0.460042
vn -0.849826 -0.448945 -0.276126
vn -0.744363 -0.622437 -0.241858
vn -0.893561 -0.448943 -0.000000
vn -0.782672 -0.622434 0.000000
vn -0.849826 -0.448944 0.276124
vn -0.744364 -0.622437 0.241858
vn -0.722904 -0.448945 0.525222
vn -0.633193 -0.622437 0.460042
vn -0.525220 -0.448945 0.722905
vn -0.460041 -0.622438 0.633193
vn -0.276124 -0.448945 0.849826
vn -0.241857 -0.622436 0.744364
vn 0.000000 -0.448944 0.893560
vn 0.000000 -0.622434 0.782672
vn 0.276124 -0.448945 0.849826
vn 0.241857 -0.622437 0.744364
vn 0.525220 -0.448945 0.722905
vn 0.460041 -0.622438 0.633193
vn 0.722904 -0.448945 0.525222
vn 0.633193 -0.622437 0.460042
vn 0.849826 -0.448945 0.276125
vn 0.744364 -0.622436 0.241859
vn 0.893560 -0.448943 0.000000
vn 0.782671 -0.622435 0.000000
vn 0.192106 -0.971398 -0.139573
vn 0.225834 -0.971398 -0.073378
vn 0.000000 -1.000000 -0.000000
vn 0.139574 -0.971398 -0.192105
vn 0.073378 -0.971398 -0.225833
vn -0.000000 -0.971398 -0.237456
vn -0.073378 -0.971398 -0.225834
vn -0.139574 -0.971398 -0.192105
vn -0.192106 -0.971398 -0.139573
vn -0.225834 -0.971398 -0.073378
vn -0.237456 -0.971398 0.000000
vn -0.225833 -0.971399 0.073377
vn -0.192106 -0.971398 0.139573
vn -0.139573 -0.971398 0.192106
vn -0.073378 -0.971398 0.225834
vn 0.000000 -0.971398 0.237456
vn 0.073378 -0.971398 0.225833
vn 0.139573 -0.971398 0.192105
vn 0.192105 -0.971398 0.139573
vn 0.225833 -0.971399 0.073377
vn 0.237456 -0.971398 -0.000000
vn -0.646182 0.733735 0.209958
vn -0.549676 0.733735 0.399362
vn 0.000000 1.000000 0.000000
vn -0.399364 0.733733 0.549676
vn -0.209960 0.733734 0.646182
vn -0.000000 0.733734 0.679437
vn 0.209960 0.733734 0.646182
vn 0.399364 0.733734 0.549675
vn 0.549676 0.733735 0.399362
vn 0.646182 0.733735 0.209958
vn 0.679435 0.733735 0.000000
vn 0.646183 0.733734 -0.209957
vn 0.549677 0.733732 -0.399364
vn 0.399362 0.733734 -0.549676
vn 0.209962 0.733734 -0.646181
vn -0.000000 0.733732 -0.679439
vn -0.209962 0.733734 -0.646181
vn -0.399363 0.733734 -0.549676
vn -0.549678 0.733733 -0.399363
vn -0.646182 0.733734 -0.209958
vn -0.679436 0.733735 -0.000001
vn 0.437754 -0.887773 -0.142235
vn 0.372373 -0.887775 -0.270544
vn -0.287070 0.934927 0.208570
vn -0.337472 0.934927 0.109651
vn 0.270544 -0.887776 -0.372371
vn -0.208570 0.934927 0.287071
vn 0.142233 -0.887775 -0.437750
vn -0.109653 0.934927 0.337473
vn -0.000000 -0.887774 -0.460280
vn 0.000000 0.934926 0.354842
vn -0.142234 -0.887775 -0.437750
vn 0.109653 0.934927 0.337473
vn -0.270544 -0.887776 -0.372371
vn 0.208570 0.934927 0.287071
vn -0.372373 -0.887775 -0.270544
vn 0.287070 0.934927 0.208570
vn -0.437752 -0.887774 -0.142234
vn 0.337473 0.934927 0.109651
vn -0.460280 -0.887774 0.000000
vn 0.354840 0.934927 0.000000
vn -0.437753 -0.887773 0.142234
vn 0.337472 0.934928 -0.109651
vn -0.372375 -0.887774 0.270546
vn 0.287069 0.934928 -0.208569
vn -0.270546 -0.887774 0.372374
vn 0.208569 0.934928 -0.287069
vn -0.142233 -0.887774 0.437753
vn 0.109652 0.934928 -0.337471
vn -0.000000 -0.887774 0.460280
vn 0.000000 0.934926 -0.354842
vn 0.142233 -0.887774 0.437753
vn -0.109652 0.934928 -0.337471
vn 0.270547 -0.887773 0.372374
vn -0.208568 0.934928 -0.287068
vn 0.372376 -0.887773 0.270546
vn -0.287069 0.934928 -0.208568
vn 0.437755 -0.887772 0.142235
vn -0.337471 0.934928 -0.109651
vn 0.460282 -0.887773 0.000000
vn -0.354838 0.934928 -0.000000
vn -0.745194 0.621336 0.242130
vn -0.633901 0.621335 0.460556
vn -0.460557 0.621336 0.633900
vn -0.242131 0.621335 0.745195
vn 0.000000 0.621335 0.783545
vn 0.242131 0.621336 0.745194
vn 0.460557 0.621336 0.633900
vn 0.633901 0.621336 0.460556
vn 0.745194 0.621336 0.242129
vn 0.783545 0.621336 -0.000000
vn 0.745196 0.621335 -0.242129
vn 0.633902 0.621334 -0.460557
vn 0.460556 0.621335 -0.633901
vn 0.242134 0.621334 -0.745194
vn 0.000000 0.621334 -0.783546
vn -0.242134 0.621334 -0.745195
vn -0.460556 0.621336 -0.633901
vn -0.633902 0.621334 -0.460556
vn -0.745195 0.621335 -0.242130
vn -0.783544 0.621336 -0.000001
s 1
g pCylinder33
usemtl initialShadingGroup
f 1/1/1 2/2/2 22/3/3 21/4/4
f 2/2/2 3/7/5 23/8/6 22/3/3
f 3/213/5 4/214/7 24/215/8 23/216/6
f 4/214/7 5/219/9 25/220/10 24/215/8
f 5/219/9 6/222/11 26/223/12 25/220/10
f 6/222/11 7/225/13 27/226/14 26/223/12
f 7/30/13 8/22/15 28/25/16 27/31/14
f 8/22/15 9/23/17 29/24/18 28/25/16
f 9/23/17 10/28/19 30/29/20 29/24/18
f 10/28/19 11/34/21 31/35/22 30/29/20
f 11/34/21 12/37/23 32/38/24 31/35/22
f 12/37/23 13/40/25 33/41/26 32/38/24
f 13/228/25 14/229/27 34/230/28 33/231/26
f 14/229/27 15/234/29 35/235/30 34/230/28
f 15/234/29 16/237/31 36/238/32 35/235/30
f 16/237/31 17/240/33 37/241/34 36/238/32
f 17/19/33 18/16/35 38/17/36 37/20/34
f 18/16/35 19/13/37 39/14/38 38/17/36
f 19/13/37 20/9/39 40/10/40 39/14/38
f 20/9/39 1/1/1 21/4/4 40/10/40
f 42/71/41 41/72/42 43/73/43
f 44/75/44 42/71/41 43/73/43
f 45/77/45 44/75/44 43/73/43
f 46/79/46 45/77/45 43/73/43
f 47/81/47 46/79/46 43/73/43
f 48/83/48 47/81/47 43/73/43
f 49/85/49 48/83/48 43/73/43
f 50/87/50 49/85/49 43/73/43
f 51/89/51 50/87/50 43/73/43
f 52/91/52 51/89/51 43/73/43
f 53/90/53 52/91/52 43/73/43
f 54/88/54 53/90/53 43/73/43
f 55/86/55 54/88/54 43/73/43
f 56/84/56 55/86/55 43/73/43
f 57/82/57 56/84/56 43/73/43
f 58/80/58 57/82/57 43/73/43
f 59/78/59 58/80/58 43/73/43
f 60/76/60 59/78/59 43/73/43
f 61/74/61 60/76/60 43/73/43
f 41/72/42 61/74/61 43/73/43
f 82/92/62 83/93/63 84/94/64
f 83/93/63 85/95/65 84/94/64
f 85/95/65 86/97/66 84/94/64
f 86/97/66 87/99/67 84/94/64
f 87/99/67 88/101/68 84/94/64
f 88/101/68 89/103/69 84/94/64
f 89/103/69 90/105/70 84/94/64
f 90/105/70 91/107/71 84/94/64
f 91/107/71 92/109/72 84/94/64
f 92/109/72 93/111/73 84/94/64
f 93/111/73 94/112/74 84/94/64
f 94/112/74 95/110/75 84/94/64
f 95/110/75 96/108/76 84/94/64
f 96/108/76 97/106/77 84/94/64
f 97/106/77 98/104/78 84/94/64
f 98/104/78 99/102/79 84/94/64
f 99/102/79 100/100/80 84/94/64
f 100/100/80 101/98/81 84/94/64
f 101/98/81 102/96/82 84/94/64
f 102/96/82 82/92/62 84/94/64
f 2/2/2 1/1/1 41/5/42 42/6/41
f 3/7/5 2/2/2 42/6/41 44/12/44
f 4/214/7 3/213/5 44/217/44 45/218/45
f 5/219/9 4/214/7 45/218/45 46/221/46
f 6/222/11 5/219/9 46/221/46 47/224/47
f 7/225/13 6/222/11 47/224/47 48/227/48
f 8/22/15 7/30/13 48/32/48 49/26/49
f 9/23/17 8/22/15 49/26/49 50/27/50
f 10/28/19 9/23/17 50/27/50 51/33/51
f 11/34/21 10/28/19 51/33/51 52/36/52
f 12/37/23 11/34/21 52/36/52 53/39/53
f 13/40/25 12/37/23 53/39/53 54/42/54
f 14/229/27 13/228/25 54/232/54 55/233/55
f 15/234/29 14/229/27 55/233/55 56/236/56
f 16/237/31 15/234/29 56/236/56 57/239/57
f 17/240/33 16/237/31 57/239/57 58/242/58
f 18/16/35 17/19/33 58/21/58 59/18/59
f 19/13/37 18/16/35 59/18/59 60/15/60
f 20/9/39 19/13/37 60/15/60 61/11/61
f 1/1/1 20/9/39 61/11/61 41/5/42
f 103/113/83 104/114/84 105/115/85 106/116/86
f 104/114/84 107/117/87 108/118/88 105/115/85
f 107/117/87 109/123/89 110/124/90 108/118/88
f 109/123/89 111/129/91 112/130/92 110/124/90
f 111/129/91 113/135/93 114/136/94 112/130/92
f 113/135/93 115/141/95 116/142/96 114/136/94
f 115/141/95 117/147/97 118/148/98 116/142/96
f 117/147/97 119/153/99 120/154/100 118/148/98
f 119/153/99 121/159/101 122/160/102 120/154/100
f 121/159/101 123/165/103 124/166/104 122/160/102
f 123/165/103 125/169/105 126/170/106 124/166/104
f 125/169/105 127/163/107 128/164/108 126/170/106
f 127/163/107 129/157/109 130/158/110 128/164/108
f 129/157/109 131/151/111 132/152/112 130/158/110
f 131/151/111 133/145/113 134/146/114 132/152/112
f 133/145/113 135/139/115 136/140/116 134/146/114
f 135/139/115 137/133/117 138/134/118 136/140/116
f 137/133/117 139/127/119 140/128/120 138/134/118
f 139/127/119 141/121/121 142/122/122 140/128/120
f 141/121/121 103/113/83 106/116/86 142/122/122
f 62/43/123 63/44/124 83/45/63 82/46/62
f 63/44/124 64/47/125 85/48/65 83/45/63
f 64/243/125 65/244/126 86/245/66 85/246/65
f 65/244/126 66/247/127 87/248/67 86/245/66
f 66/247/127 67/249/128 88/250/68 87/248/67
f 67/249/128 68/251/129 89/252/69 88/250/68
f 68/63/129 69/57/130 90/60/70 89/64/69
f 69/57/130 70/58/131 91/59/71 90/60/70
f 70/58/131 71/61/132 92/62/72 91/59/71
f 71/61/132 72/65/133 93/66/73 92/62/72
f 72/65/133 73/67/134 94/68/74 93/66/73
f 73/67/134 74/69/135 95/70/75 94/68/74
f 74/253/135 75/254/136 96/255/76 95/256/75
f 75/254/136 76/257/137 97/258/77 96/255/76
f 76/257/137 77/259/138 98/260/78 97/258/77
f 77/259/138 78/261/139 99/262/79 98/260/78
f 78/55/139 79/53/140 100/54/80 99/56/79
f 79/53/140 80/51/141 101/52/81 100/54/80
f 80/51/141 81/49/142 102/50/82 101/52/81
f 81/49/142 62/43/123 82/46/62 102/50/82
f 21/173/4 22/174/3 104/175/84 103/176/83
f 63/119/124 62/120/123 106/116/86 105/115/85
f 22/174/3 23/177/6 107/178/87 104/175/84
f 64/125/125 63/119/124 105/115/85 108/118/88
f 23/177/6 24/181/8 109/182/89 107/178/87
f 65/131/126 64/125/125 108/118/88 110/124/90
f 24/181/8 25/185/10 111/186/91 109/182/89
f 66/137/127 65/131/126 110/124/90 112/130/92
f 25/185/10 26/189/12 113/190/93 111/186/91
f 67/143/128 66/137/127 112/130/92 114/136/94
f 26/189/12 27/193/14 115/194/95 113/190/93
f 68/149/129 67/143/128 114/136/94 116/142/96
f 27/193/14 28/197/16 117/198/97 115/194/95
f 69/155/130 68/149/129 116/142/96 118/148/98
f 28/197/16 29/201/18 119/202/99 117/198/97
f 70/161/131 69/155/130 118/148/98 120/154/100
f 29/201/18 30/205/20 121/206/101 119/202/99
f 71/167/132 70/161/131 120/154/100 122/160/102
f 30/205/20 31/209/22 123/210/103 121/206/101
f 72/171/133 71/167/132 122/160/102 124/166/104
f 31/209/22 32/211/24 125/212/105 123/210/103
f 73/172/134 72/171/133 124/166/104 126/170/106
f 32/211/24 33/207/26 127/208/107 125/212/105
f 74/168/135 73/172/134 126/170/106 128/164/108
f 33/207/26 34/203/28 129/204/109 127/208/107
f 75/162/136 74/168/135 128/164/108 130/158/110
f 34/203/28 35/199/30 131/200/111 129/204/109
f 76/156/137 75/162/136 130/158/110 132/152/112
f 35/199/30 36/195/32 133/196/113 131/200/111
f 77/150/138 76/156/137 132/152/112 134/146/114
f 36/195/32 37/191/34 135/192/115 133/196/113
f 78/144/139 77/150/138 134/146/114 136/140/116
f 37/191/34 38/187/36 137/188/117 135/192/115
f 79/138/140 78/144/139 136/140/116 138/134/118
f 38/187/36 39/183/38 139/184/119 137/188/117
f 80/132/141 79/138/140 138/134/118 140/128/120
f 39/183/38 40/179/40 141/180/121 139/184/119
f 81/126/142 80/132/141 140/128/120 142/122/122
f 40/179/40 21/173/4 103/176/83 141/180/121
f 62/120/123 81/126/142 142/122/122 106/116/86
