# This file uses meters as units for non-parametric coordinates.

mtllib uv_Espelho_3.mtl
g default
v 77.997963 4.012345 -130.860565
v 80.958130 4.012365 -130.860596
v 77.997963 114.477226 -130.860565
v 80.958130 114.477226 -130.860596
v 77.997963 114.477226 -169.914429
v 80.958130 114.477226 -169.914429
v 77.997963 4.012345 -169.914429
v 80.958130 4.012365 -169.914429
v 77.997963 7.583881 -168.312836
v 77.997963 7.583881 -132.462189
v 77.997963 111.016609 -132.462189
v 77.997963 111.016609 -168.312836
v 78.828003 7.583881 -168.312836
v 78.828003 7.583881 -132.462189
v 78.828003 111.016609 -132.462189
v 78.828003 111.016609 -168.312836
vt 0.306125 0.019531
vt 0.570796 0.019531
vt 0.570796 0.768161
vt 0.306125 0.768161
vt 0.592719 0.019531
vt 0.835681 0.019531
vt 0.835681 0.720503
vt 0.592719 0.720503
vt 0.019531 0.019531
vt 0.284202 0.019531
vt 0.273348 0.043736
vt 0.030385 0.043736
vt 0.284202 0.768161
vt 0.273348 0.744708
vt 0.019531 0.768161
vt 0.030385 0.744708
vt 0.054270 0.065447
vt 0.074331 0.065448
vt 0.074331 0.330119
vt 0.054270 0.330119
vt 0.097693 0.065447
vt 0.117754 0.065447
vt 0.117754 0.330119
vt 0.097693 0.330119
vt 0.171513 0.308410
vt 0.171513 0.065447
vt 0.177138 0.065447
vt 0.177138 0.308410
vt 0.141116 0.308411
vt 0.141116 0.065447
vt 0.146742 0.065447
vt 0.146742 0.308411
vt 0.901024 0.019531
vt 0.921085 0.019531
vt 0.921085 0.768161
vt 0.901024 0.768161
vt 0.857601 0.019531
vt 0.877662 0.019531
vt 0.877662 0.768161
vt 0.857601 0.768161
vt 0.944447 0.720503
vt 0.944447 0.019531
vt 0.950072 0.019531
vt 0.950072 0.720503
vt 0.974844 0.720503
vt 0.974844 0.019531
vt 0.980469 0.019531
vt 0.980469 0.720503
vn 0.000009 0.000000 1.000000
vn 0.000009 0.000000 1.000000
vn 0.000009 0.000000 1.000000
vn 0.000009 0.000000 1.000000
vn 0.000000 1.000000 0.000000
vn 0.000000 1.000000 0.000000
vn 0.000000 1.000000 0.000000
vn 0.000000 1.000000 0.000000
vn 0.000000 0.000000 -1.000000
vn 0.000000 0.000000 -1.000000
vn 0.000000 0.000000 -1.000000
vn 0.000000 0.000000 -1.000000
vn 0.000007 -1.000000 0.000000
vn 0.000007 -1.000000 0.000000
vn 0.000007 -1.000000 0.000000
vn 0.000007 -1.000000 0.000000
vn 1.000000 0.000000 0.000000
vn 1.000000 0.000000 0.000000
vn 1.000000 0.000000 0.000000
vn 1.000000 0.000000 0.000000
vn -1.000000 0.000000 0.000000
vn -1.000000 0.000000 0.000000
vn -1.000000 0.000000 0.000000
vn -1.000000 0.000000 0.000000
vn -1.000000 -0.000001 0.000000
vn -1.000000 -0.000001 0.000000
vn -1.000000 -0.000001 0.000000
vn -1.000000 -0.000001 0.000000
vn -1.000000 0.000000 0.000000
vn -1.000000 0.000000 0.000000
vn -1.000000 0.000000 0.000000
vn -1.000000 0.000000 0.000000
vn -1.000000 0.000002 0.000000
vn -1.000000 0.000002 0.000000
vn -1.000000 0.000002 0.000000
vn -1.000000 0.000002 0.000000
vn -1.000000 0.000000 0.000000
vn -1.000000 0.000000 0.000000
vn -1.000000 0.000000 0.000000
vn -1.000000 0.000000 0.000000
vn 0.000000 1.000000 0.000000
vn 0.000000 1.000000 0.000000
vn 0.000000 1.000000 0.000000
vn 0.000000 1.000000 0.000000
vn 0.000000 0.000000 -1.000000
vn 0.000000 0.000000 -1.000000
vn 0.000000 0.000000 -1.000000
vn 0.000000 0.000000 -1.000000
vn 0.000000 -1.000000 0.000000
vn 0.000000 -1.000000 0.000000
vn 0.000000 -1.000000 0.000000
vn 0.000000 -1.000000 0.000000
vn 0.000000 0.000000 1.000000
vn 0.000000 0.000000 1.000000
vn 0.000000 0.000000 1.000000
vn 0.000000 0.000000 1.000000
s off
g pCube116
usemtl initialShadingGroup
f 1/33/1 2/34/2 4/35/3 3/36/4
f 3/17/5 4/18/6 6/19/7 5/20/8
f 5/37/9 6/38/10 8/39/11 7/40/12
f 7/21/13 8/22/14 2/23/15 1/24/16
f 2/1/17 8/2/18 6/3/19 4/4/20
f 13/5/21 14/6/22 15/7/23 16/8/24
f 7/9/25 1/10/26 10/11/27 9/12/28
f 1/10/29 3/13/30 11/14/31 10/11/32
f 3/13/33 5/15/34 12/16/35 11/14/36
f 5/15/37 7/9/38 9/12/39 12/16/40
f 9/25/41 10/26/42 14/27/43 13/28/44
f 10/41/45 11/42/46 15/43/47 14/44/48
f 11/29/49 12/30/50 16/31/51 15/32/52
f 12/45/53 9/46/54 13/47/55 16/48/56
