# This file uses meters as units for non-parametric coordinates.

mtllib Obj_Modular_Floor_1x1_2m.mtl
g default
v -799.817143 0.643626 599.723816
v -599.817143 0.643626 599.723816
v -799.817143 17.723240 599.723816
v -599.817143 17.723244 599.723816
v -799.817143 17.723240 399.723816
v -599.817143 17.723244 399.723816
v -799.817143 0.643626 399.723816
v -599.817143 0.643626 399.723816
v -699.817143 17.723243 399.723816
v -699.817143 0.643626 399.723816
v -699.817143 0.643626 599.723816
v -699.817143 17.723243 599.723816
v -599.817143 17.723244 499.723816
v -699.817143 17.723243 499.723816
v -799.817143 17.723240 499.723816
v -799.817143 0.643626 499.723816
v -699.817143 0.643626 499.723816
v -599.817143 0.643626 499.723816
v -799.617131 17.943622 599.523804
v -799.617131 17.943622 499.923828
v -700.017155 17.943624 599.523804
v -700.017155 17.943624 499.923828
v -699.617131 17.943624 599.523804
v -699.617131 17.943624 499.923828
v -600.017155 17.943626 599.523804
v -600.017155 17.943626 499.923828
v -699.617131 17.943624 499.523804
v -699.617131 17.943624 399.923828
v -600.017155 17.943626 499.523804
v -600.017155 17.943626 399.923828
v -799.617131 17.943622 499.523804
v -799.617131 17.943622 399.923828
v -700.017155 17.943624 499.523804
v -700.017155 17.943624 399.923828
vt 0.375000 0.000000
vt 0.625000 0.000000
vt 0.375000 0.250000
vt 0.625000 0.250000
vt 0.750000 0.375000
vt 0.875000 0.000000
vt 0.125000 0.000000
vt 0.125000 0.250000
vt 0.437500 0.312500
vt 0.500000 0.000000
vt 0.500000 0.000000
vt 0.500000 0.250000
vt 0.687500 0.312500
vt 0.468750 0.281250
vt 0.250000 0.250000
vt 0.250000 0.000000
vt 0.500000 0.000000
vt 0.750000 0.000000
vt 0.250000 0.250000
vt 0.375000 0.250000
vt 0.500000 0.250000
vt 0.468750 0.281250
vt 0.468750 0.281250
vt 0.500000 0.250000
vt 0.625000 0.250000
vt 0.687500 0.312500
vt 0.437500 0.312500
vt 0.468750 0.281250
vt 0.687500 0.312500
vt 0.750000 0.375000
vt 0.125000 0.250000
vt 0.250000 0.250000
vt 0.468750 0.281250
vt 0.437500 0.312500
vn 1.000000 0.000000 0.000000
vn 1.000000 0.000000 0.000000
vn 1.000000 0.000000 0.000000
vn 1.000000 0.000000 0.000000
vn -1.000000 0.000000 0.000000
vn -1.000000 0.000000 0.000000
vn -1.000000 0.000000 0.000000
vn -1.000000 0.000000 0.000000
vn -0.000000 1.000000 0.000000
vn -0.000000 1.000000 0.000000
vn -0.000000 1.000000 0.000000
vn -0.000000 1.000000 0.000000
vn 0.000000 -1.000000 0.000000
vn 0.000000 -1.000000 0.000000
vn 0.000000 -1.000000 0.000000
vn 0.000000 -1.000000 0.000000
vn 0.000000 0.000000 -1.000000
vn 0.000000 0.000000 -1.000000
vn 0.000000 0.000000 -1.000000
vn 0.000000 0.000000 -1.000000
vn -0.000001 0.000000 1.000000
vn -0.000001 0.000000 1.000000
vn -0.000000 0.000000 1.000000
vn -0.000000 0.000000 1.000000
vn -0.000000 0.000000 -1.000000
vn -0.000000 0.000000 -1.000000
vn 0.000000 -1.000000 0.000000
vn 0.000000 -1.000000 0.000000
vn 0.000000 0.000000 1.000000
vn 0.000000 0.000000 1.000000
vn -0.000000 1.000000 0.000000
vn -0.000000 1.000000 0.000000
vn -0.000000 1.000000 0.000000
vn -0.000000 1.000000 0.000000
vn -0.000000 1.000000 0.000000
vn -0.000000 1.000000 0.000000
vn -0.000000 1.000000 0.000000
vn -0.000000 1.000000 0.000000
vn -0.000000 1.000000 0.000000
vn -0.000000 1.000000 0.000000
vn -0.000000 1.000000 0.000000
vn -0.000000 1.000000 0.000000
vn -1.000000 0.000000 0.000000
vn -1.000000 0.000000 0.000000
vn 0.000000 -1.000000 0.000000
vn 0.000000 -1.000000 0.000000
vn 0.000000 -1.000000 0.000000
vn 1.000000 0.000000 0.000000
vn 1.000000 0.000000 0.000000
vn -0.740534 0.672019 0.000000
vn -0.740534 0.672019 0.000000
vn -0.740534 0.672019 0.000000
vn -0.740534 0.672019 0.000000
vn 0.000000 0.672055 0.740501
vn 0.000000 0.672055 0.740501
vn 0.000000 0.672055 0.740501
vn 0.000000 0.672055 0.740501
vn 0.740478 0.672081 0.000000
vn 0.740478 0.672081 0.000000
vn 0.740478 0.672081 0.000000
vn 0.740478 0.672081 0.000000
vn 0.000000 0.672055 -0.740501
vn 0.000000 0.672055 -0.740501
vn 0.000000 0.672055 -0.740501
vn 0.000000 0.672055 -0.740501
vn -0.740512 0.672043 0.000000
vn -0.740512 0.672043 0.000000
vn -0.740512 0.672043 0.000000
vn -0.740512 0.672043 0.000000
vn 0.000000 0.672055 0.740501
vn 0.000000 0.672055 0.740501
vn 0.000000 0.672055 0.740501
vn 0.000000 0.672055 0.740501
vn 0.740500 0.672056 0.000000
vn 0.740500 0.672056 0.000000
vn 0.740500 0.672056 0.000000
vn 0.740500 0.672056 0.000000
vn -0.000000 0.672055 -0.740501
vn -0.000000 0.672055 -0.740501
vn -0.000000 0.672055 -0.740501
vn -0.000000 0.672055 -0.740501
vn -0.740512 0.672043 0.000000
vn -0.740512 0.672043 0.000000
vn -0.740512 0.672043 0.000000
vn -0.740512 0.672043 0.000000
vn 0.000000 0.672055 0.740501
vn 0.000000 0.672055 0.740501
vn 0.000000 0.672055 0.740501
vn 0.000000 0.672055 0.740501
vn 0.740500 0.672056 0.000000
vn 0.740500 0.672056 0.000000
vn 0.740500 0.672056 0.000000
vn 0.740500 0.672056 0.000000
vn 0.000000 0.672055 -0.740501
vn 0.000000 0.672055 -0.740501
vn 0.000000 0.672055 -0.740501
vn 0.000000 0.672055 -0.740501
vn -0.740534 0.672019 0.000000
vn -0.740534 0.672019 0.000000
vn -0.740534 0.672019 0.000000
vn -0.740534 0.672019 0.000000
vn 0.000000 0.672055 0.740501
vn 0.000000 0.672055 0.740501
vn 0.000000 0.672055 0.740501
vn 0.000000 0.672055 0.740501
vn 0.740478 0.672081 0.000000
vn 0.740478 0.672081 0.000000
vn 0.740478 0.672081 0.000000
vn 0.740478 0.672081 0.000000
vn 0.000000 0.672055 -0.740501
vn 0.000000 0.672055 -0.740501
vn 0.000000 0.672055 -0.740501
vn 0.000000 0.672055 -0.740501
s 1
g pCube992
usemtl initialShadingGroup
f 2/2/1 18/18/2 13/13/3 4/4/4
s 2
f 16/16/5 1/1/6 3/3/7 15/15/8
s off
f 20/32/9 19/3/10 21/12/11 22/33/12
s 3
f 1/1/13 16/16/14 17/17/15 11/11/16
s 4
f 7/7/17 5/8/18 9/9/19 10/10/20
s 5
f 3/3/21 1/1/22 11/11/23 12/12/24
s 4
f 10/10/20 9/9/19 6/5/25 8/6/26
s 3
f 11/11/16 17/17/15 18/18/27 2/2/28
s 5
f 12/12/24 11/11/23 2/2/29 4/4/30
s off
f 24/33/31 23/12/32 25/4/33 26/13/34
f 28/34/35 27/33/36 29/13/37 30/5/38
f 32/31/39 31/32/40 33/33/41 34/34/42
s 2
f 7/7/43 16/16/5 15/15/8 5/8/44
s 3
f 17/17/15 16/16/14 7/7/45 10/10/46
f 18/18/27 17/17/15 10/10/46 8/6/47
s 1
f 13/13/3 18/18/2 8/6/48 6/5/49
s off
f 15/15/50 3/3/51 19/20/52 20/19/53
f 3/3/54 12/12/55 21/21/56 19/20/57
f 12/12/58 14/14/59 22/22/60 21/21/61
f 14/14/62 15/15/63 20/19/64 22/22/65
f 14/14/66 12/12/67 23/24/68 24/23/69
f 12/12/70 4/4/71 25/25/72 23/24/73
f 4/4/74 13/13/75 26/26/76 25/25/77
f 13/13/78 14/14/79 24/23/80 26/26/81
f 9/9/82 14/14/83 27/28/84 28/27/85
f 14/14/86 13/13/87 29/29/88 27/28/89
f 13/13/90 6/5/91 30/30/92 29/29/93
f 6/5/94 9/9/95 28/27/96 30/30/97
f 5/8/98 15/15/99 31/32/100 32/31/101
f 15/15/102 14/14/103 33/33/104 31/32/105
f 14/14/106 9/9/107 34/34/108 33/33/109
f 9/9/110 5/8/111 32/31/112 34/34/113
