# This file uses meters as units for non-parametric coordinates.

mtllib Obj_Modular_Floor_1x1_1m.mtl
g default
v -798.632507 0.054909 93.625031
v -698.632507 0.054909 93.625031
v -798.632507 17.134524 93.625031
v -698.632507 17.134528 93.625031
v -798.632507 17.134524 -6.374969
v -698.632507 17.134528 -6.374969
v -798.632507 0.054909 -6.374969
v -698.632507 0.054909 -6.374969
v -798.432495 17.354904 93.425018
v -798.432495 17.354904 -6.174973
v -698.832520 17.354909 93.425018
v -698.832520 17.354909 -6.174973
vt 0.375000 0.000000
vt 0.625000 0.000000
vt 0.375000 0.250000
vt 0.625000 0.250000
vt 0.750000 0.375000
vt 0.875000 0.000000
vt 0.125000 0.000000
vt 0.125000 0.250000
vt 0.125000 0.250000
vt 0.375000 0.250000
vt 0.625000 0.250000
vt 0.750000 0.375000
vn 1.000000 0.000000 0.000000
vn 1.000000 0.000000 0.000000
vn 1.000000 0.000000 0.000000
vn 1.000000 0.000000 0.000000
vn -1.000000 0.000000 0.000000
vn -1.000000 0.000000 0.000000
vn -1.000000 0.000000 0.000000
vn -1.000000 0.000000 0.000000
vn -0.000000 1.000000 0.000000
vn -0.000000 1.000000 0.000000
vn -0.000000 1.000000 0.000000
vn -0.000000 1.000000 0.000000
vn 0.000000 -1.000000 0.000000
vn 0.000000 -1.000000 0.000000
vn 0.000000 -1.000000 0.000000
vn 0.000000 -1.000000 0.000000
vn 0.000000 0.000000 -1.000000
vn 0.000000 0.000000 -1.000000
vn 0.000000 0.000000 -1.000000
vn 0.000000 0.000000 -1.000000
vn -0.000000 0.000000 1.000000
vn -0.000000 0.000000 1.000000
vn -0.000000 0.000000 1.000000
vn -0.000000 0.000000 1.000000
vn -0.740475 0.672084 0.000000
vn -0.740475 0.672084 0.000000
vn -0.740475 0.672085 0.000000
vn -0.740474 0.672084 0.000000
vn 0.000000 0.672058 0.740498
vn 0.000000 0.672058 0.740498
vn 0.000000 0.672058 0.740498
vn 0.000000 0.672058 0.740498
vn 0.740463 0.672097 0.000000
vn 0.740463 0.672097 0.000000
vn 0.740463 0.672097 0.000000
vn 0.740463 0.672097 0.000000
vn 0.000000 0.672030 -0.740524
vn 0.000000 0.672030 -0.740524
vn 0.000000 0.672030 -0.740524
vn 0.000000 0.672030 -0.740524
s off
g pCube1119
usemtl initialShadingGroup
f 2/2/1 8/6/2 6/5/3 4/4/4
f 7/7/5 1/1/6 3/3/7 5/8/8
f 10/9/9 9/10/10 11/11/11 12/12/12
f 1/1/13 7/7/14 8/6/15 2/2/16
f 7/7/17 5/8/18 6/5/19 8/6/20
f 3/3/21 1/1/22 2/2/23 4/4/24
f 5/8/25 3/3/26 9/10/27 10/9/28
f 3/3/29 4/4/30 11/11/31 9/10/32
f 4/4/33 6/5/34 12/12/35 11/11/36
f 6/5/37 5/8/38 10/9/39 12/12/40
