# This file uses meters as units for non-parametric coordinates.

mtllib Obj_Modular_Floor_3x3_1m.mtl
g default
v -598.632507 0.054908 93.625031
v -498.632507 0.054908 93.625031
v -598.632507 17.134522 93.625031
v -498.632507 17.134526 93.625031
v -598.632507 17.134522 -6.374969
v -498.632507 17.134526 -6.374969
v -598.632507 0.054908 -6.374969
v -498.632507 0.054908 -6.374969
v -598.632507 17.134522 26.958359
v -598.632507 0.054908 26.958359
v -498.632507 0.054908 26.958359
v -498.632507 17.134526 26.958359
v -598.632507 17.134522 60.291687
v -598.632507 0.054908 60.291687
v -498.632507 0.054908 60.291687
v -498.632507 17.134526 60.291687
v -531.965820 17.134524 93.625031
v -531.965820 17.134524 60.291687
v -531.965820 17.134524 26.958359
v -531.965820 17.134524 -6.374969
v -531.965820 0.054908 -6.374969
v -531.965820 0.054908 26.958359
v -531.965820 0.054908 60.291687
v -531.965820 0.054908 93.625031
v -565.299194 17.134524 93.625031
v -565.299194 17.134524 60.291687
v -565.299194 17.134524 26.958359
v -565.299194 17.134524 -6.374969
v -565.299194 0.054908 -6.374969
v -565.299194 0.054908 26.958359
v -565.299194 0.054908 60.291687
v -565.299194 0.054908 93.625031
v -565.499207 17.354907 60.491669
v -598.432495 17.354903 60.491669
v -598.432495 17.354903 93.425018
v -565.499207 17.354907 93.425018
v -598.432495 17.354903 26.758362
v -598.432495 17.354903 -6.174973
v -565.499207 17.354907 26.758362
v -565.499207 17.354907 -6.174973
v -565.499207 17.354907 27.158356
v -598.432495 17.354903 27.158356
v -598.432495 17.354903 60.091705
v -565.499207 17.354907 60.091705
v -498.832520 17.354908 60.491669
v -531.765808 17.354907 60.491669
v -531.765808 17.354907 93.425018
v -498.832520 17.354908 93.425018
v -498.832520 17.354908 27.158356
v -531.765808 17.354907 27.158356
v -531.765808 17.354907 60.091705
v -498.832520 17.354908 60.091705
v -531.765808 17.354907 26.758362
v -531.765808 17.354907 -6.174973
v -498.832520 17.354908 26.758362
v -498.832520 17.354908 -6.174973
v -532.165833 17.354907 60.491669
v -565.099182 17.354907 60.491669
v -565.099182 17.354907 93.425018
v -532.165833 17.354907 93.425018
v -532.165833 17.354907 27.158356
v -565.099182 17.354907 27.158356
v -565.099182 17.354907 60.091705
v -532.165833 17.354907 60.091705
v -565.099182 17.354907 26.758362
v -565.099182 17.354907 -6.174973
v -532.165833 17.354907 26.758362
v -532.165833 17.354907 -6.174973
vt 0.375000 0.000000
vt 0.625000 0.000000
vt 0.375000 0.250000
vt 0.625000 0.250000
vt 0.750000 0.375000
vt 0.875000 0.000000
vt 0.125000 0.000000
vt 0.125000 0.250000
vt 0.208333 0.250000
vt 0.208333 0.000000
vt 0.791667 0.000000
vt 0.708333 0.333333
vt 0.291667 0.250000
vt 0.291667 0.000000
vt 0.708333 0.000000
vt 0.666667 0.291667
vt 0.541667 0.250000
vt 0.541667 0.277778
vt 0.541667 0.305556
vt 0.541667 0.333333
vt 0.625000 0.000000
vt 0.597222 0.000000
vt 0.569444 0.000000
vt 0.541667 0.000000
vt 0.458333 0.250000
vt 0.416667 0.263889
vt 0.375000 0.277778
vt 0.333333 0.291667
vt 0.375000 0.000000
vt 0.402778 0.000000
vt 0.430556 0.000000
vt 0.458333 0.000000
vt 0.416667 0.263889
vt 0.291667 0.250000
vt 0.375000 0.250000
vt 0.458333 0.250000
vt 0.125000 0.250000
vt 0.208333 0.250000
vt 0.375000 0.277778
vt 0.333333 0.291667
vt 0.375000 0.277778
vt 0.208333 0.250000
vt 0.291667 0.250000
vt 0.416667 0.263889
vt 0.666667 0.291667
vt 0.541667 0.277778
vt 0.541667 0.250000
vt 0.625000 0.250000
vt 0.708333 0.333333
vt 0.541667 0.305556
vt 0.541667 0.277778
vt 0.666667 0.291667
vt 0.541667 0.333333
vt 0.541667 0.305556
vt 0.708333 0.333333
vt 0.750000 0.375000
vt 0.541667 0.277778
vt 0.416667 0.263889
vt 0.458333 0.250000
vt 0.541667 0.250000
vt 0.541667 0.305556
vt 0.375000 0.277778
vt 0.416667 0.263889
vt 0.541667 0.277778
vt 0.333333 0.291667
vt 0.375000 0.277778
vt 0.541667 0.305556
vt 0.541667 0.333333
vn 1.000000 0.000000 0.000000
vn 1.000000 0.000000 0.000000
vn 1.000000 0.000000 0.000000
vn 1.000000 0.000000 0.000000
vn -1.000000 0.000000 0.000000
vn -1.000000 0.000000 0.000000
vn -1.000000 0.000000 0.000000
vn -1.000000 0.000000 0.000000
vn -0.000000 1.000000 0.000000
vn -0.000000 1.000000 0.000000
vn -0.000000 1.000000 0.000000
vn -0.000000 1.000000 0.000000
vn 0.000000 -1.000000 0.000000
vn 0.000000 -1.000000 0.000000
vn 0.000000 -1.000000 0.000000
vn 0.000000 -1.000000 0.000000
vn 0.000000 0.000000 -1.000000
vn 0.000000 0.000000 -1.000000
vn 0.000000 0.000000 -1.000000
vn 0.000000 0.000000 -1.000000
vn 0.000000 0.000000 1.000000
vn 0.000000 0.000000 1.000000
vn 0.000000 0.000000 1.000000
vn 0.000000 0.000000 1.000000
vn -1.000000 0.000000 0.000000
vn -1.000000 0.000000 0.000000
vn -1.000000 0.000000 0.000000
vn -1.000000 0.000000 0.000000
vn 0.000000 -1.000000 0.000000
vn 0.000000 -1.000000 0.000000
vn 0.000000 -1.000000 0.000000
vn 0.000000 -1.000000 0.000000
vn 1.000000 0.000000 0.000000
vn 1.000000 0.000000 0.000000
vn 1.000000 0.000000 0.000000
vn 1.000000 0.000000 0.000000
vn -0.000000 1.000000 0.000000
vn -0.000000 1.000000 0.000000
vn -0.000000 1.000000 0.000000
vn -0.000000 1.000000 0.000000
vn -0.000000 1.000000 0.000000
vn -0.000000 1.000000 0.000000
vn -0.000000 1.000000 0.000000
vn -0.000000 1.000000 0.000000
vn -0.000000 1.000000 0.000000
vn -0.000000 1.000000 0.000000
vn -0.000000 1.000000 0.000000
vn -0.000000 1.000000 0.000000
vn -0.000000 1.000000 0.000000
vn -0.000000 1.000000 0.000000
vn -0.000000 1.000000 0.000000
vn -0.000000 1.000000 0.000000
vn -0.000000 1.000000 0.000000
vn -0.000000 1.000000 0.000000
vn -0.000000 1.000000 0.000000
vn -0.000000 1.000000 0.000000
vn -0.000000 0.000000 -1.000000
vn -0.000000 0.000000 -1.000000
vn -0.000000 0.000000 -1.000000
vn -0.000000 0.000000 -1.000000
vn 0.000000 -1.000000 0.000000
vn 0.000000 -1.000000 0.000000
vn 0.000000 -1.000000 0.000000
vn 0.000000 -1.000000 0.000000
vn 0.000000 -1.000000 0.000000
vn 0.000000 -1.000000 0.000000
vn 0.000000 -1.000000 0.000000
vn 0.000000 -1.000000 0.000000
vn 0.000000 0.000000 1.000000
vn 0.000000 0.000000 1.000000
vn 0.000000 0.000000 1.000000
vn 0.000000 0.000000 1.000000
vn 0.000000 1.000000 0.000000
vn 0.000000 1.000000 0.000000
vn 0.000000 1.000000 0.000000
vn 0.000000 1.000000 0.000000
vn 0.000000 1.000000 0.000000
vn 0.000000 1.000000 0.000000
vn 0.000000 1.000000 0.000000
vn 0.000000 1.000000 0.000000
vn 0.000000 1.000000 0.000000
vn 0.000000 1.000000 0.000000
vn 0.000000 1.000000 0.000000
vn 0.000000 1.000000 0.000000
vn 0.000000 0.672002 -0.740549
vn 0.000000 0.672002 -0.740549
vn 0.000000 0.672002 -0.740549
vn 0.000000 0.672002 -0.740549
vn -0.740482 0.672076 0.000000
vn -0.740482 0.672076 0.000000
vn -0.740482 0.672076 0.000000
vn -0.740482 0.672076 0.000000
vn 0.000000 0.672058 0.740499
vn 0.000000 0.672058 0.740498
vn 0.000000 0.672058 0.740498
vn 0.000000 0.672058 0.740499
vn 0.740600 0.671946 0.000000
vn 0.740600 0.671946 0.000000
vn 0.740600 0.671946 0.000000
vn 0.740600 0.671946 0.000000
vn -0.740451 0.672111 0.000000
vn -0.740451 0.672111 0.000000
vn -0.740451 0.672111 0.000000
vn -0.740451 0.672111 0.000000
vn 0.000000 0.672030 0.740524
vn 0.000000 0.672030 0.740524
vn 0.000000 0.672030 0.740524
vn 0.000000 0.672030 0.740524
vn 0.740444 0.672118 0.000000
vn 0.740444 0.672118 0.000000
vn 0.740444 0.672118 0.000000
vn 0.740444 0.672118 0.000000
vn 0.000000 0.672030 -0.740524
vn 0.000000 0.672030 -0.740524
vn 0.000000 0.672030 -0.740524
vn 0.000000 0.672030 -0.740524
vn 0.000000 0.672030 -0.740524
vn 0.000000 0.672030 -0.740524
vn 0.000000 0.672030 -0.740524
vn 0.000000 0.672030 -0.740524
vn -0.740451 0.672111 0.000000
vn -0.740451 0.672111 0.000000
vn -0.740451 0.672111 0.000000
vn -0.740451 0.672111 0.000000
vn 0.000000 0.672002 0.740549
vn 0.000000 0.672002 0.740549
vn 0.000000 0.672002 0.740549
vn 0.000000 0.672002 0.740549
vn 0.740487 0.672071 0.000000
vn 0.740487 0.672071 0.000000
vn 0.740487 0.672071 0.000000
vn 0.740487 0.672071 0.000000
vn -0.000000 0.671999 -0.740552
vn -0.000000 0.671999 -0.740552
vn -0.000000 0.671999 -0.740552
vn -0.000000 0.671999 -0.740552
vn -0.740480 0.672079 0.000000
vn -0.740480 0.672079 0.000000
vn -0.740480 0.672079 0.000000
vn -0.740480 0.672079 0.000000
vn 0.000000 0.672055 0.740501
vn 0.000000 0.672055 0.740501
vn 0.000000 0.672055 0.740501
vn 0.000000 0.672055 0.740501
vn 0.740508 0.672048 0.000000
vn 0.740508 0.672048 0.000000
vn 0.740508 0.672048 0.000000
vn 0.740508 0.672048 0.000000
vn 0.000000 0.672027 -0.740527
vn 0.000000 0.672027 -0.740527
vn 0.000000 0.672027 -0.740527
vn 0.000000 0.672027 -0.740527
vn -0.740496 0.672061 0.000000
vn -0.740496 0.672061 0.000000
vn -0.740496 0.672061 0.000000
vn -0.740496 0.672061 0.000000
vn 0.000000 0.671999 0.740552
vn 0.000000 0.671999 0.740552
vn 0.000000 0.671999 0.740552
vn 0.000000 0.671999 0.740552
vn 0.740489 0.672068 0.000000
vn 0.740489 0.672068 0.000000
vn 0.740489 0.672068 0.000000
vn 0.740489 0.672069 0.000000
vn -0.740496 0.672061 0.000000
vn -0.740496 0.672061 0.000000
vn -0.740496 0.672061 0.000000
vn -0.740496 0.672061 0.000000
vn -0.000000 0.672027 0.740527
vn -0.000000 0.672027 0.740527
vn -0.000000 0.672027 0.740527
vn -0.000000 0.672027 0.740527
vn 0.740498 0.672058 0.000000
vn 0.740498 0.672058 0.000000
vn 0.740498 0.672058 0.000000
vn 0.740498 0.672058 0.000000
vn 0.000000 0.672027 -0.740527
vn 0.000000 0.672027 -0.740527
vn 0.000000 0.672027 -0.740527
vn 0.000000 0.672027 -0.740527
vn 0.000000 0.672004 -0.740548
vn 0.000000 0.672004 -0.740548
vn 0.000000 0.672004 -0.740548
vn 0.000000 0.672004 -0.740548
vn -0.740482 0.672076 0.000000
vn -0.740482 0.672076 0.000000
vn -0.740482 0.672076 0.000000
vn -0.740482 0.672076 0.000000
vn 0.000000 0.672060 0.740497
vn 0.000000 0.672060 0.740497
vn 0.000000 0.672060 0.740497
vn 0.000000 0.672060 0.740497
vn 0.740555 0.671996 0.000000
vn 0.740555 0.671996 0.000000
vn 0.740555 0.671996 0.000000
vn 0.740555 0.671996 0.000000
vn 0.000000 0.672031 -0.740523
vn 0.000000 0.672031 -0.740523
vn 0.000000 0.672031 -0.740523
vn 0.000000 0.672031 -0.740523
vn -0.740524 0.672030 0.000000
vn -0.740524 0.672030 0.000000
vn -0.740524 0.672030 0.000000
vn -0.740524 0.672030 0.000000
vn 0.000000 0.672004 0.740548
vn 0.000000 0.672004 0.740548
vn 0.000000 0.672004 0.740548
vn 0.000000 0.672004 0.740548
vn 0.740588 0.671960 0.000000
vn 0.740588 0.671960 0.000000
vn 0.740588 0.671960 0.000000
vn 0.740588 0.671960 0.000000
vn -0.740524 0.672030 0.000000
vn -0.740524 0.672030 0.000000
vn -0.740524 0.672030 0.000000
vn -0.740524 0.672030 0.000000
vn 0.000000 0.672031 0.740523
vn 0.000000 0.672031 0.740523
vn 0.000000 0.672031 0.740523
vn 0.000000 0.672031 0.740523
vn 0.740571 0.671978 0.000000
vn 0.740571 0.671978 0.000000
vn 0.740571 0.671978 0.000000
vn 0.740571 0.671978 0.000000
vn 0.000000 0.672031 -0.740523
vn 0.000000 0.672031 -0.740523
vn 0.000000 0.672031 -0.740523
vn 0.000000 0.672031 -0.740523
s 1
g pCube1121
usemtl initialShadingGroup
f 2/2/1 15/15/2 16/16/3 4/4/4
s 2
f 14/14/5 1/1/6 3/3/7 13/13/8
s off
f 33/26/9 34/13/10 35/3/11 36/25/12
s 3
f 1/1/13 14/14/14 31/31/15 32/32/16
s 4
f 7/7/17 5/8/18 28/28/19 29/29/20
s 5
f 3/3/21 1/1/22 32/32/23 25/25/24
s 2
f 7/7/25 10/10/26 9/9/27 5/8/28
s 3
f 30/30/29 10/10/30 7/7/31 29/29/32
s 1
f 12/12/33 11/11/34 8/6/35 6/5/36
s off
f 38/8/37 37/9/38 39/66/39 40/65/40
s 2
f 10/10/26 14/14/5 13/13/8 9/9/27
s 3
f 31/31/15 14/14/14 10/10/30 30/30/29
s 1
f 16/16/3 15/15/2 11/11/34 12/12/33
s off
f 41/66/41 42/9/42 43/13/43 44/26/44
f 45/16/45 46/18/46 47/17/47 48/4/48
f 49/12/49 50/67/50 51/18/51 52/16/52
f 54/68/53 53/67/54 55/12/55 56/5/56
s 4
f 21/21/57 20/20/58 6/5/59 8/6/60
s 3
f 11/11/61 22/22/62 21/21/63 8/6/64
f 15/15/65 23/23/66 22/22/62 11/11/61
f 24/24/67 23/23/66 15/15/65 2/2/68
s 5
f 17/17/69 24/24/70 2/2/71 4/4/72
s off
f 57/18/73 58/26/74 59/25/75 60/17/76
f 61/67/77 62/66/78 63/26/79 64/18/80
f 66/65/81 65/66/82 67/67/83 68/68/84
s 4
f 29/29/20 28/28/19 20/20/58 21/21/57
s 3
f 22/22/62 30/30/29 29/29/32 21/21/63
f 23/23/66 31/31/15 30/30/29 22/22/62
f 32/32/16 31/31/15 23/23/66 24/24/67
s 5
f 25/25/24 32/32/23 24/24/70 17/17/69
s off
f 26/26/85 13/13/86 34/34/87 33/33/88
f 13/13/89 3/3/90 35/35/91 34/34/92
f 3/3/93 25/25/94 36/36/95 35/35/96
f 25/25/97 26/26/98 33/33/99 36/36/100
f 5/8/101 9/9/102 37/38/103 38/37/104
f 9/9/105 27/27/106 39/39/107 37/38/108
f 27/27/109 28/28/110 40/40/111 39/39/112
f 28/28/113 5/8/114 38/37/115 40/40/116
f 27/27/117 9/9/118 42/42/119 41/41/120
f 9/9/121 13/13/122 43/43/123 42/42/124
f 13/13/125 26/26/126 44/44/127 43/43/128
f 26/26/129 27/27/130 41/41/131 44/44/132
f 16/16/133 18/18/134 46/46/135 45/45/136
f 18/18/137 17/17/138 47/47/139 46/46/140
f 17/17/141 4/4/142 48/48/143 47/47/144
f 4/4/145 16/16/146 45/45/147 48/48/148
f 12/12/149 19/19/150 50/50/151 49/49/152
f 19/19/153 18/18/154 51/51/155 50/50/156
f 18/18/157 16/16/158 52/52/159 51/51/160
f 16/16/161 12/12/162 49/49/163 52/52/164
f 20/20/165 19/19/166 53/54/167 54/53/168
f 19/19/169 12/12/170 55/55/171 53/54/172
f 12/12/173 6/5/174 56/56/175 55/55/176
f 6/5/177 20/20/178 54/53/179 56/56/180
f 18/18/181 26/26/182 58/58/183 57/57/184
f 26/26/185 25/25/186 59/59/187 58/58/188
f 25/25/189 17/17/190 60/60/191 59/59/192
f 17/17/193 18/18/194 57/57/195 60/60/196
f 19/19/197 27/27/198 62/62/199 61/61/200
f 27/27/201 26/26/202 63/63/203 62/62/204
f 26/26/205 18/18/206 64/64/207 63/63/208
f 18/18/209 19/19/210 61/61/211 64/64/212
f 28/28/213 27/27/214 65/66/215 66/65/216
f 27/27/217 19/19/218 67/67/219 65/66/220
f 19/19/221 20/20/222 68/68/223 67/67/224
f 20/20/225 28/28/226 66/65/227 68/68/228
