# This file uses meters as units for non-parametric coordinates.

mtllib Obj_Modular_Floor_2x2_1m.mtl
g default
v -698.632507 0.054908 93.625031
v -598.632507 0.054908 93.625031
v -698.632507 17.134522 93.625031
v -598.632507 17.134526 93.625031
v -698.632507 17.134522 -6.374969
v -598.632507 17.134526 -6.374969
v -698.632507 0.054908 -6.374969
v -598.632507 0.054908 -6.374969
v -598.632507 17.134526 43.625031
v -698.632507 17.134522 43.625031
v -698.632507 0.054908 43.625031
v -598.632507 0.054908 43.625031
v -648.632507 17.134523 93.625031
v -648.632507 17.134523 43.625031
v -648.632507 17.134523 -6.374969
v -648.632507 0.054908 -6.374969
v -648.632507 0.054908 43.625031
v -648.632507 0.054908 93.625031
v -698.432495 17.354904 93.425018
v -698.432495 17.354904 43.825027
v -648.832520 17.354906 93.425018
v -648.832520 17.354906 43.825027
v -698.432495 17.354904 43.425018
v -698.432495 17.354904 -6.174973
v -648.832520 17.354906 43.425018
v -648.832520 17.354906 -6.174973
v -648.432495 17.354906 93.425018
v -648.432495 17.354906 43.825027
v -598.832520 17.354908 93.425018
v -598.832520 17.354908 43.825027
v -648.432495 17.354906 43.425018
v -648.432495 17.354906 -6.174973
v -598.832520 17.354908 43.425018
v -598.832520 17.354908 -6.174973
vt 0.375000 0.000000
vt 0.625000 0.000000
vt 0.375000 0.250000
vt 0.625000 0.250000
vt 0.750000 0.375000
vt 0.875000 0.000000
vt 0.125000 0.000000
vt 0.125000 0.250000
vt 0.687500 0.312500
vt 0.250000 0.250000
vt 0.250000 0.000000
vt 0.750000 0.000000
vt 0.500000 0.250000
vt 0.468750 0.281250
vt 0.437500 0.312500
vt 0.500000 0.000000
vt 0.500000 0.000000
vt 0.500000 0.000000
vt 0.250000 0.250000
vt 0.375000 0.250000
vt 0.500000 0.250000
vt 0.468750 0.281250
vt 0.125000 0.250000
vt 0.250000 0.250000
vt 0.468750 0.281250
vt 0.437500 0.312500
vt 0.468750 0.281250
vt 0.500000 0.250000
vt 0.625000 0.250000
vt 0.687500 0.312500
vt 0.437500 0.312500
vt 0.468750 0.281250
vt 0.687500 0.312500
vt 0.750000 0.375000
vn 1.000000 0.000000 0.000000
vn 1.000000 0.000000 0.000000
vn 1.000000 0.000000 0.000000
vn 1.000000 0.000000 0.000000
vn -1.000000 0.000000 0.000000
vn -1.000000 0.000000 0.000000
vn -1.000000 0.000000 0.000000
vn -1.000000 0.000000 0.000000
vn -0.000000 1.000000 0.000000
vn -0.000000 1.000000 0.000000
vn -0.000000 1.000000 0.000000
vn -0.000000 1.000000 0.000000
vn 0.000000 -1.000000 0.000000
vn 0.000000 -1.000000 0.000000
vn 0.000000 -1.000000 0.000000
vn 0.000000 -1.000000 0.000000
vn 0.000000 0.000000 -1.000000
vn 0.000000 0.000000 -1.000000
vn -0.000000 0.000000 -1.000000
vn -0.000000 0.000000 -1.000000
vn -0.000000 0.000000 1.000000
vn -0.000000 0.000000 1.000000
vn 0.000000 0.000000 1.000000
vn 0.000000 0.000000 1.000000
vn -0.000000 1.000000 0.000000
vn -0.000000 1.000000 0.000000
vn -0.000000 1.000000 0.000000
vn -0.000000 1.000000 0.000000
vn -1.000000 0.000000 0.000000
vn -1.000000 0.000000 0.000000
vn 0.000000 -1.000000 0.000000
vn 0.000000 -1.000000 0.000000
vn 1.000000 0.000000 0.000000
vn 1.000000 0.000000 0.000000
vn -0.000000 1.000000 0.000000
vn -0.000000 1.000000 0.000000
vn -0.000000 1.000000 0.000000
vn -0.000000 1.000000 0.000000
vn -0.000000 1.000000 0.000000
vn -0.000000 1.000000 0.000000
vn -0.000000 1.000000 0.000000
vn -0.000000 1.000000 0.000000
vn -0.000000 0.000000 -1.000000
vn -0.000000 0.000000 -1.000000
vn 0.000000 -1.000000 0.000000
vn 0.000000 -1.000000 0.000000
vn 0.000000 -1.000000 0.000000
vn 0.000000 0.000000 1.000000
vn 0.000000 0.000000 1.000000
vn -0.740442 0.672121 0.000000
vn -0.740442 0.672121 0.000000
vn -0.740442 0.672121 0.000000
vn -0.740442 0.672121 0.000000
vn 0.000000 0.672058 0.740498
vn 0.000000 0.672058 0.740498
vn 0.000000 0.672058 0.740498
vn 0.000000 0.672058 0.740498
vn 0.740496 0.672061 0.000000
vn 0.740496 0.672061 0.000000
vn 0.740496 0.672061 0.000000
vn 0.740496 0.672061 0.000000
vn -0.000000 0.672030 -0.740524
vn -0.000000 0.672030 -0.740524
vn -0.000000 0.672030 -0.740524
vn -0.000000 0.672030 -0.740524
vn -0.740442 0.672121 0.000000
vn -0.740442 0.672121 0.000000
vn -0.740442 0.672121 0.000000
vn -0.740442 0.672121 0.000000
vn 0.000000 0.672058 0.740498
vn 0.000000 0.672058 0.740498
vn 0.000000 0.672058 0.740498
vn 0.000000 0.672058 0.740498
vn 0.740496 0.672061 0.000000
vn 0.740496 0.672061 0.000000
vn 0.740496 0.672061 0.000000
vn 0.740496 0.672061 0.000000
vn 0.000000 0.672030 -0.740524
vn 0.000000 0.672030 -0.740524
vn 0.000000 0.672030 -0.740524
vn 0.000000 0.672030 -0.740524
vn -0.740449 0.672113 0.000000
vn -0.740449 0.672113 0.000000
vn -0.740449 0.672113 0.000000
vn -0.740449 0.672113 0.000000
vn 0.000000 0.672054 0.740502
vn 0.000000 0.672054 0.740503
vn 0.000000 0.672054 0.740503
vn 0.000000 0.672054 0.740502
vn 0.740514 0.672041 0.000000
vn 0.740514 0.672041 0.000000
vn 0.740514 0.672041 0.000000
vn 0.740514 0.672041 0.000000
vn 0.000000 0.672025 -0.740528
vn 0.000000 0.672025 -0.740528
vn 0.000000 0.672025 -0.740528
vn 0.000000 0.672025 -0.740528
vn -0.740449 0.672113 0.000000
vn -0.740449 0.672113 0.000000
vn -0.740449 0.672113 0.000000
vn -0.740449 0.672113 0.000000
vn 0.000000 0.672054 0.740502
vn 0.000000 0.672054 0.740503
vn 0.000000 0.672054 0.740503
vn 0.000000 0.672054 0.740502
vn 0.740514 0.672041 0.000000
vn 0.740514 0.672041 0.000000
vn 0.740514 0.672041 0.000000
vn 0.740514 0.672041 0.000000
vn 0.000000 0.672025 -0.740528
vn 0.000000 0.672025 -0.740528
vn 0.000000 0.672025 -0.740528
vn 0.000000 0.672025 -0.740528
s 1
g pCube1120
usemtl initialShadingGroup
f 2/2/1 12/12/2 9/9/3 4/4/4
s 2
f 11/11/5 1/1/6 3/3/7 10/10/8
s off
f 20/10/9 19/3/10 21/13/11 22/32/12
s 3
f 1/1/13 11/11/14 17/17/15 18/18/16
s 4
f 7/7/17 5/8/18 15/15/19 16/16/20
s 5
f 3/3/21 1/1/22 18/18/23 13/13/24
s off
f 24/8/25 23/10/26 25/32/27 26/31/28
s 2
f 7/7/29 11/11/5 10/10/8 5/8/30
s 3
f 17/17/15 11/11/14 7/7/31 16/16/32
s 1
f 9/9/3 12/12/2 8/6/33 6/5/34
s off
f 28/32/35 27/13/36 29/4/37 30/33/38
f 32/31/39 31/32/40 33/33/41 34/34/42
s 4
f 16/16/20 15/15/19 6/5/43 8/6/44
s 3
f 12/12/45 17/17/15 16/16/32 8/6/46
f 18/18/16 17/17/15 12/12/45 2/2/47
s 5
f 13/13/24 18/18/23 2/2/48 4/4/49
s off
f 10/10/50 3/3/51 19/20/52 20/19/53
f 3/3/54 13/13/55 21/21/56 19/20/57
f 13/13/58 14/14/59 22/22/60 21/21/61
f 14/14/62 10/10/63 20/19/64 22/22/65
f 5/8/66 10/10/67 23/24/68 24/23/69
f 10/10/70 14/14/71 25/25/72 23/24/73
f 14/14/74 15/15/75 26/26/76 25/25/77
f 15/15/78 5/8/79 24/23/80 26/26/81
f 14/14/82 13/13/83 27/28/84 28/27/85
f 13/13/86 4/4/87 29/29/88 27/28/89
f 4/4/90 9/9/91 30/30/92 29/29/93
f 9/9/94 14/14/95 28/27/96 30/30/97
f 15/15/98 14/14/99 31/32/100 32/31/101
f 14/14/102 9/9/103 33/33/104 31/32/105
f 9/9/106 6/5/107 34/34/108 33/33/109
f 6/5/110 15/15/111 32/31/112 34/34/113
