# This file uses meters as units for non-parametric coordinates.

mtllib Obj_Modular_Floor_2x2_2m.mtl
g default
v -599.818639 0.056053 599.723816
v -399.818639 0.056053 599.723816
v -599.818639 17.135667 599.723816
v -399.818639 17.135671 599.723816
v -599.818639 17.135667 399.723816
v -399.818639 17.135671 399.723816
v -599.818639 0.056053 399.723816
v -399.818639 0.056053 399.723816
v -449.818639 17.135670 599.723816
v -449.818639 17.135670 399.723816
v -449.818639 0.056053 399.723816
v -449.818639 0.056053 599.723816
v -499.818639 17.135669 599.723816
v -499.818639 17.135669 399.723816
v -499.818639 0.056053 399.723816
v -499.818639 0.056053 599.723816
v -549.818639 17.135668 599.723816
v -549.818639 17.135668 399.723816
v -549.818639 0.056053 399.723816
v -549.818639 0.056053 599.723816
v -399.818639 17.135671 449.723816
v -449.818639 17.135670 449.723816
v -499.818639 17.135669 449.723816
v -549.818639 17.135668 449.723816
v -599.818639 17.135667 449.723816
v -599.818639 0.056053 449.723816
v -549.818639 0.056053 449.723816
v -499.818639 0.056053 449.723816
v -449.818639 0.056053 449.723816
v -399.818639 0.056053 449.723816
v -399.818639 17.135671 499.723816
v -449.818639 17.135671 499.723816
v -499.818639 17.135669 499.723816
v -549.818639 17.135667 499.723816
v -599.818578 17.135667 499.723816
v -599.818578 0.056053 499.723816
v -549.818639 0.056053 499.723816
v -499.818639 0.056053 499.723816
v -449.818639 0.056053 499.723816
v -399.818639 0.056053 499.723816
v -399.818639 17.135671 549.723816
v -449.818639 17.135671 549.723816
v -499.818639 17.135669 549.723816
v -549.818639 17.135667 549.723816
v -599.818578 17.135667 549.723816
v -599.818578 0.056053 549.723816
v -549.818639 0.056053 549.723816
v -499.818639 0.056053 549.723816
v -449.818639 0.056053 549.723816
v -399.818639 0.056053 549.723816
v -599.618626 17.356049 599.523804
v -599.618565 17.356049 549.923828
v -550.018651 17.356050 599.523804
v -550.018651 17.356049 549.923828
v -449.618626 17.356052 599.523804
v -449.618626 17.356053 549.923828
v -400.018651 17.356053 599.523804
v -400.018651 17.356053 549.923828
v -499.618626 17.356051 599.523804
v -499.618626 17.356051 549.923828
v -450.018651 17.356052 599.523804
v -450.018651 17.356053 549.923828
v -549.618626 17.356050 599.523804
v -549.618626 17.356049 549.923828
v -500.018651 17.356051 599.523804
v -500.018651 17.356051 549.923828
v -449.618626 17.356052 449.523804
v -449.618626 17.356052 399.923828
v -400.018651 17.356053 449.523804
v -400.018651 17.356053 399.923828
v -499.618626 17.356051 449.523804
v -499.618626 17.356051 399.923828
v -450.018651 17.356052 449.523804
v -450.018651 17.356052 399.923828
v -549.618626 17.356050 449.523804
v -549.618626 17.356050 399.923828
v -500.018651 17.356051 449.523804
v -500.018651 17.356051 399.923828
v -599.618626 17.356049 449.523804
v -599.618626 17.356049 399.923828
v -550.018651 17.356050 449.523804
v -550.018651 17.356050 399.923828
v -449.618626 17.356053 499.523804
v -449.618626 17.356052 449.923828
v -400.018651 17.356053 499.523804
v -400.018651 17.356053 449.923828
v -499.618626 17.356051 499.523804
v -499.618626 17.356051 449.923828
v -450.018651 17.356053 499.523804
v -450.018651 17.356052 449.923828
v -549.618626 17.356049 499.523804
v -549.618626 17.356050 449.923828
v -500.018651 17.356051 499.523804
v -500.018651 17.356051 449.923828
v -599.618565 17.356049 499.523804
v -599.618626 17.356049 449.923828
v -550.018651 17.356049 499.523804
v -550.018651 17.356050 449.923828
v -449.618626 17.356053 549.523804
v -449.618626 17.356053 499.923828
v -400.018651 17.356053 549.523804
v -400.018651 17.356053 499.923828
v -499.618626 17.356051 549.523804
v -499.618626 17.356051 499.923828
v -450.018651 17.356053 549.523804
v -450.018651 17.356053 499.923828
v -549.618626 17.356049 549.523804
v -549.618626 17.356049 499.923828
v -500.018651 17.356051 549.523804
v -500.018651 17.356051 499.923828
v -599.618565 17.356049 549.523804
v -599.618565 17.356049 499.923828
v -550.018651 17.356049 549.523804
v -550.018651 17.356049 499.923828
vt 0.375000 0.000000
vt 0.625000 0.000000
vt 0.375000 0.250000
vt 0.625000 0.250000
vt 0.750000 0.375000
vt 0.875000 0.000000
vt 0.125000 0.000000
vt 0.125000 0.250000
vt 0.562500 0.250000
vt 0.593750 0.343750
vt 0.687500 0.000000
vt 0.562500 0.000000
vt 0.500000 0.250000
vt 0.437500 0.312500
vt 0.500000 0.000000
vt 0.500000 0.000000
vt 0.437500 0.250000
vt 0.281250 0.281250
vt 0.312500 0.000000
vt 0.437500 0.000000
vt 0.718750 0.343750
vt 0.585938 0.320312
vt 0.453125 0.296875
vt 0.320312 0.273438
vt 0.187500 0.250000
vt 0.187500 0.000000
vt 0.343750 0.000000
vt 0.500000 0.000000
vt 0.656250 0.000000
vt 0.812500 0.000000
vt 0.687500 0.312500
vt 0.578125 0.296875
vt 0.468750 0.281250
vt 0.359375 0.265625
vt 0.250000 0.250000
vt 0.250000 0.000000
vt 0.375000 0.000000
vt 0.500000 0.000000
vt 0.625000 0.000000
vt 0.750000 0.000000
vt 0.656250 0.281250
vt 0.570312 0.273438
vt 0.484375 0.265625
vt 0.398438 0.257812
vt 0.312500 0.250000
vt 0.312500 0.000000
vt 0.406250 0.000000
vt 0.500000 0.000000
vt 0.593750 0.000000
vt 0.687500 0.000000
vt 0.312500 0.250000
vt 0.375000 0.250000
vt 0.437500 0.250000
vt 0.398438 0.257812
vt 0.570312 0.273438
vt 0.562500 0.250000
vt 0.625000 0.250000
vt 0.656250 0.281250
vt 0.484375 0.265625
vt 0.500000 0.250000
vt 0.562500 0.250000
vt 0.570312 0.273438
vt 0.398438 0.257812
vt 0.437500 0.250000
vt 0.500000 0.250000
vt 0.484375 0.265625
vt 0.593750 0.343750
vt 0.585938 0.320312
vt 0.718750 0.343750
vt 0.750000 0.375000
vt 0.437500 0.312500
vt 0.453125 0.296875
vt 0.585938 0.320312
vt 0.593750 0.343750
vt 0.281250 0.281250
vt 0.320312 0.273438
vt 0.453125 0.296875
vt 0.437500 0.312500
vt 0.125000 0.250000
vt 0.187500 0.250000
vt 0.320312 0.273438
vt 0.281250 0.281250
vt 0.585938 0.320312
vt 0.578125 0.296875
vt 0.687500 0.312500
vt 0.718750 0.343750
vt 0.453125 0.296875
vt 0.468750 0.281250
vt 0.578125 0.296875
vt 0.585938 0.320312
vt 0.320312 0.273438
vt 0.359375 0.265625
vt 0.468750 0.281250
vt 0.453125 0.296875
vt 0.187500 0.250000
vt 0.250000 0.250000
vt 0.359375 0.265625
vt 0.320312 0.273438
vt 0.578125 0.296875
vt 0.570312 0.273438
vt 0.656250 0.281250
vt 0.687500 0.312500
vt 0.468750 0.281250
vt 0.484375 0.265625
vt 0.570312 0.273438
vt 0.578125 0.296875
vt 0.359375 0.265625
vt 0.398438 0.257812
vt 0.484375 0.265625
vt 0.468750 0.281250
vt 0.250000 0.250000
vt 0.312500 0.250000
vt 0.398438 0.257812
vt 0.359375 0.265625
vn 1.000000 0.000000 0.000000
vn 1.000000 0.000000 0.000000
vn 1.000000 0.000000 0.000000
vn 1.000000 0.000000 0.000000
vn -1.000000 0.000000 -0.000001
vn -1.000000 0.000000 -0.000001
vn -1.000000 0.000000 -0.000001
vn -1.000000 0.000000 -0.000001
vn -0.000000 1.000000 0.000000
vn -0.000000 1.000000 0.000000
vn -0.000000 1.000000 0.000000
vn -0.000000 1.000000 0.000000
vn 0.000000 -1.000000 0.000000
vn 0.000000 -1.000000 0.000000
vn 0.000000 -1.000000 0.000000
vn 0.000000 -1.000000 0.000000
vn 0.000000 0.000000 -1.000000
vn 0.000000 0.000000 -1.000000
vn -0.000000 0.000000 -1.000000
vn -0.000000 0.000000 -1.000000
vn -0.000001 0.000000 1.000000
vn -0.000001 0.000000 1.000000
vn -0.000001 0.000000 1.000000
vn -0.000001 0.000000 1.000000
vn -0.000000 1.000000 0.000000
vn -0.000000 1.000000 0.000000
vn -0.000000 1.000000 0.000000
vn -0.000000 1.000000 0.000000
vn 0.000000 0.000000 -1.000000
vn 0.000000 0.000000 -1.000000
vn 0.000000 0.000000 -1.000000
vn 0.000000 0.000000 -1.000000
vn 0.000000 -1.000000 0.000000
vn 0.000000 -1.000000 0.000000
vn 0.000000 -1.000000 0.000000
vn 0.000000 -1.000000 0.000000
vn 0.000000 0.000000 1.000000
vn 0.000000 0.000000 1.000000
vn -0.000001 0.000000 1.000000
vn -0.000001 0.000000 1.000000
vn -0.000000 1.000000 0.000000
vn -0.000000 1.000000 0.000000
vn -0.000000 1.000000 0.000000
vn -0.000000 1.000000 0.000000
vn -0.000000 0.000000 -1.000000
vn -0.000000 0.000000 -1.000000
vn 0.000000 -1.000000 0.000000
vn 0.000000 -1.000000 0.000000
vn 0.000000 0.000000 1.000000
vn 0.000000 0.000000 1.000000
vn -0.000000 1.000000 0.000000
vn -0.000000 1.000000 0.000000
vn -0.000000 1.000000 0.000000
vn -0.000000 1.000000 0.000000
vn -0.000000 1.000000 0.000000
vn -0.000000 1.000000 0.000000
vn -0.000000 1.000000 0.000000
vn -0.000000 1.000000 0.000000
vn -0.000000 1.000000 0.000000
vn -0.000000 1.000000 0.000000
vn -0.000000 1.000000 0.000000
vn -0.000000 1.000000 0.000000
vn -0.000000 1.000000 0.000000
vn -0.000000 1.000000 0.000000
vn -0.000000 1.000000 0.000000
vn -0.000000 1.000000 0.000000
vn -0.000000 1.000000 0.000000
vn -0.000000 1.000000 0.000000
vn -0.000000 1.000000 0.000000
vn -0.000000 1.000000 0.000000
vn -1.000000 0.000000 0.000000
vn -1.000000 0.000000 0.000001
vn -1.000000 0.000000 0.000001
vn -1.000000 0.000000 0.000000
vn 0.000000 -1.000000 0.000000
vn 0.000000 -1.000000 0.000000
vn 0.000000 -1.000000 0.000000
vn 0.000000 -1.000000 0.000000
vn 0.000000 -1.000000 0.000000
vn 0.000000 -1.000000 0.000000
vn 0.000000 -1.000000 0.000000
vn 0.000000 -1.000000 0.000000
vn 0.000000 -1.000000 0.000000
vn 0.000000 -1.000000 0.000000
vn 1.000000 0.000000 0.000000
vn 1.000000 0.000000 0.000000
vn 1.000000 0.000000 0.000000
vn 1.000000 0.000000 0.000000
vn -0.000000 1.000000 -0.000000
vn -0.000000 1.000000 -0.000000
vn -0.000000 1.000000 -0.000000
vn -0.000000 1.000000 -0.000000
vn -0.000000 1.000000 0.000000
vn -0.000000 1.000000 0.000000
vn -0.000000 1.000000 0.000000
vn -0.000000 1.000000 0.000000
vn -0.000000 1.000000 0.000000
vn -0.000000 1.000000 0.000000
vn -0.000000 1.000000 0.000000
vn -0.000000 1.000000 0.000000
vn -0.000000 1.000000 0.000000
vn -0.000000 1.000000 0.000000
vn -0.000000 1.000000 0.000000
vn -0.000000 1.000000 0.000000
vn -1.000000 0.000000 0.000001
vn -1.000000 0.000000 0.000001
vn 0.000000 -1.000000 0.000000
vn 0.000000 -1.000000 0.000000
vn 0.000000 -1.000000 0.000000
vn 0.000000 -1.000000 0.000000
vn 0.000000 -1.000000 0.000000
vn 1.000000 0.000000 0.000000
vn 1.000000 0.000000 0.000000
vn 0.000000 1.000000 0.000000
vn 0.000000 1.000000 0.000000
vn 0.000000 1.000000 0.000000
vn 0.000000 1.000000 0.000000
vn -0.000000 1.000000 0.000000
vn -0.000000 1.000000 0.000000
vn -0.000000 1.000000 0.000000
vn -0.000000 1.000000 0.000000
vn -0.000000 1.000000 0.000000
vn -0.000000 1.000000 0.000000
vn -0.000000 1.000000 0.000000
vn -0.000000 1.000000 0.000000
vn 0.000000 1.000000 0.000000
vn 0.000000 1.000000 0.000000
vn 0.000000 1.000000 0.000000
vn 0.000000 1.000000 0.000000
vn -0.740488 0.672069 -0.000001
vn -0.740489 0.672069 -0.000001
vn -0.740489 0.672069 -0.000001
vn -0.740489 0.672069 -0.000001
vn 0.000000 0.672055 0.740501
vn 0.000000 0.672055 0.740501
vn 0.000000 0.672055 0.740501
vn 0.000000 0.672055 0.740501
vn 0.740477 0.672081 0.000000
vn 0.740477 0.672081 0.000000
vn 0.740477 0.672081 0.000000
vn 0.740477 0.672081 0.000000
vn 0.000000 0.672055 -0.740501
vn 0.000000 0.672055 -0.740501
vn 0.000000 0.672055 -0.740501
vn 0.000000 0.672055 -0.740501
vn -0.740558 0.671992 0.000000
vn -0.740558 0.671992 0.000000
vn -0.740558 0.671992 0.000000
vn -0.740558 0.671992 0.000000
vn 0.000000 0.672057 0.740499
vn 0.000000 0.672057 0.740499
vn 0.000000 0.672057 0.740499
vn 0.000000 0.672057 0.740499
vn 0.740408 0.672158 0.000000
vn 0.740408 0.672158 0.000000
vn 0.740408 0.672158 0.000000
vn 0.740408 0.672158 0.000000
vn 0.000000 0.672055 -0.740501
vn 0.000000 0.672055 -0.740501
vn 0.000000 0.672055 -0.740501
vn 0.000000 0.672055 -0.740501
vn -0.740579 0.671970 0.000000
vn -0.740579 0.671970 0.000000
vn -0.740579 0.671970 0.000000
vn -0.740579 0.671970 0.000000
vn 0.000000 0.672053 0.740503
vn 0.000000 0.672053 0.740503
vn 0.000000 0.672053 0.740503
vn 0.000000 0.672053 0.740503
vn 0.740387 0.672181 0.000000
vn 0.740387 0.672181 0.000000
vn 0.740387 0.672181 0.000000
vn 0.740387 0.672181 0.000000
vn 0.000000 0.672055 -0.740501
vn 0.000000 0.672055 -0.740501
vn 0.000000 0.672055 -0.740501
vn 0.000000 0.672055 -0.740501
vn -0.740599 0.671947 0.000000
vn -0.740599 0.671947 0.000000
vn -0.740599 0.671947 0.000000
vn -0.740599 0.671947 0.000000
vn 0.000000 0.672057 0.740499
vn 0.000000 0.672057 0.740499
vn 0.000000 0.672057 0.740499
vn 0.000000 0.672057 0.740499
vn 0.740498 0.672059 0.000000
vn 0.740498 0.672059 0.000000
vn 0.740498 0.672059 0.000000
vn 0.740498 0.672059 0.000000
vn 0.000000 0.672057 -0.740499
vn 0.000000 0.672057 -0.740499
vn 0.000000 0.672057 -0.740499
vn 0.000000 0.672057 -0.740499
vn -0.740558 0.671992 0.000000
vn -0.740558 0.671992 0.000000
vn -0.740558 0.671992 0.000000
vn -0.740558 0.671992 0.000000
vn 0.000000 0.672057 0.740499
vn 0.000000 0.672057 0.740499
vn 0.000000 0.672057 0.740499
vn 0.000000 0.672057 0.740499
vn 0.740408 0.672158 0.000000
vn 0.740408 0.672158 0.000000
vn 0.740408 0.672158 0.000000
vn 0.740408 0.672158 0.000000
vn 0.000000 0.672057 -0.740499
vn 0.000000 0.672057 -0.740499
vn 0.000000 0.672057 -0.740499
vn 0.000000 0.672057 -0.740499
vn -0.740579 0.671969 0.000000
vn -0.740579 0.671969 0.000000
vn -0.740579 0.671969 0.000000
vn -0.740579 0.671969 0.000000
vn 0.000000 0.672053 0.740503
vn 0.000000 0.672053 0.740503
vn 0.000000 0.672053 0.740503
vn 0.000000 0.672053 0.740503
vn 0.740387 0.672180 0.000000
vn 0.740387 0.672180 0.000000
vn 0.740387 0.672180 0.000000
vn 0.740387 0.672180 0.000000
vn 0.000000 0.672053 -0.740503
vn 0.000000 0.672053 -0.740503
vn 0.000000 0.672053 -0.740503
vn 0.000000 0.672053 -0.740503
vn -0.740599 0.671947 0.000000
vn -0.740599 0.671947 0.000000
vn -0.740599 0.671947 0.000000
vn -0.740599 0.671947 0.000000
vn 0.000000 0.672057 0.740499
vn 0.000000 0.672057 0.740499
vn 0.000000 0.672057 0.740499
vn 0.000000 0.672057 0.740499
vn 0.740498 0.672059 0.000000
vn 0.740498 0.672059 0.000000
vn 0.740498 0.672059 0.000000
vn 0.740498 0.672059 0.000000
vn 0.000000 0.672057 -0.740499
vn 0.000000 0.672057 -0.740499
vn 0.000000 0.672057 -0.740499
vn 0.000000 0.672057 -0.740499
vn -0.740489 0.672069 0.000000
vn -0.740489 0.672069 0.000000
vn -0.740489 0.672069 0.000000
vn -0.740489 0.672069 0.000000
vn 0.000000 0.672055 0.740501
vn 0.000000 0.672055 0.740501
vn 0.000000 0.672055 0.740501
vn 0.000000 0.672055 0.740501
vn 0.740478 0.672081 0.000000
vn 0.740478 0.672081 0.000000
vn 0.740478 0.672081 0.000000
vn 0.740478 0.672081 0.000000
vn 0.000000 0.672055 -0.740501
vn 0.000000 0.672055 -0.740501
vn 0.000000 0.672055 -0.740501
vn 0.000000 0.672055 -0.740501
vn -0.740559 0.671992 -0.000000
vn -0.740559 0.671992 -0.000000
vn -0.740559 0.671992 -0.000000
vn -0.740559 0.671992 -0.000000
vn 0.000000 0.672055 0.740501
vn 0.000000 0.672055 0.740501
vn 0.000000 0.672055 0.740501
vn 0.000000 0.672055 0.740501
vn 0.740408 0.672158 0.000000
vn 0.740408 0.672158 0.000000
vn 0.740408 0.672158 0.000000
vn 0.740408 0.672158 0.000000
vn 0.000000 0.672057 -0.740499
vn 0.000000 0.672057 -0.740499
vn 0.000000 0.672057 -0.740499
vn 0.000000 0.672057 -0.740499
vn -0.740579 0.671969 0.000000
vn -0.740579 0.671969 0.000000
vn -0.740579 0.671969 0.000000
vn -0.740579 0.671969 0.000000
vn 0.000000 0.672055 0.740501
vn 0.000000 0.672055 0.740501
vn 0.000000 0.672055 0.740501
vn 0.000000 0.672055 0.740501
vn 0.740388 0.672180 -0.000000
vn 0.740388 0.672180 -0.000000
vn 0.740388 0.672180 -0.000000
vn 0.740388 0.672180 -0.000000
vn 0.000000 0.672053 -0.740503
vn 0.000000 0.672053 -0.740503
vn 0.000000 0.672053 -0.740503
vn 0.000000 0.672053 -0.740503
vn -0.740600 0.671946 0.000000
vn -0.740600 0.671946 0.000000
vn -0.740600 0.671946 0.000000
vn -0.740600 0.671946 0.000000
vn 0.000000 0.672057 0.740499
vn 0.000000 0.672057 0.740499
vn 0.000000 0.672057 0.740499
vn 0.000000 0.672057 0.740499
vn 0.740498 0.672058 0.000000
vn 0.740498 0.672058 0.000000
vn 0.740498 0.672058 0.000000
vn 0.740498 0.672058 0.000000
vn 0.000000 0.672057 -0.740499
vn 0.000000 0.672057 -0.740499
vn 0.000000 0.672057 -0.740499
vn 0.000000 0.672057 -0.740499
vn -0.740489 0.672068 0.000001
vn -0.740489 0.672068 0.000001
vn -0.740489 0.672068 0.000001
vn -0.740489 0.672068 0.000001
vn 0.000000 0.672055 0.740501
vn 0.000000 0.672055 0.740501
vn 0.000000 0.672055 0.740501
vn 0.000000 0.672055 0.740501
vn 0.740478 0.672081 0.000000
vn 0.740478 0.672081 0.000000
vn 0.740478 0.672081 0.000000
vn 0.740478 0.672081 0.000000
vn 0.000000 0.672055 -0.740501
vn 0.000000 0.672055 -0.740501
vn 0.000000 0.672055 -0.740501
vn 0.000000 0.672055 -0.740501
vn -0.740558 0.671992 0.000000
vn -0.740558 0.671992 0.000000
vn -0.740558 0.671992 0.000000
vn -0.740558 0.671992 0.000000
vn 0.000000 0.672055 0.740501
vn 0.000000 0.672055 0.740501
vn 0.000000 0.672055 0.740501
vn 0.000000 0.672055 0.740501
vn 0.740408 0.672158 0.000000
vn 0.740408 0.672158 0.000000
vn 0.740408 0.672158 0.000000
vn 0.740408 0.672158 0.000000
vn 0.000000 0.672055 -0.740501
vn 0.000000 0.672055 -0.740501
vn 0.000000 0.672055 -0.740501
vn 0.000000 0.672055 -0.740501
vn -0.740579 0.671969 0.000000
vn -0.740579 0.671969 0.000000
vn -0.740579 0.671969 0.000000
vn -0.740579 0.671969 0.000000
vn 0.000000 0.672055 0.740501
vn 0.000000 0.672055 0.740501
vn 0.000000 0.672055 0.740501
vn 0.000000 0.672055 0.740501
vn 0.740387 0.672180 0.000000
vn 0.740387 0.672180 0.000000
vn 0.740387 0.672180 0.000000
vn 0.740387 0.672180 0.000000
vn 0.000000 0.672055 -0.740501
vn 0.000000 0.672055 -0.740501
vn 0.000000 0.672055 -0.740501
vn 0.000000 0.672055 -0.740501
vn -0.740599 0.671947 0.000000
vn -0.740599 0.671947 0.000000
vn -0.740599 0.671947 0.000000
vn -0.740599 0.671947 0.000000
vn 0.000000 0.672057 0.740499
vn 0.000000 0.672057 0.740499
vn 0.000000 0.672057 0.740499
vn 0.000000 0.672057 0.740499
vn 0.740498 0.672059 0.000000
vn 0.740498 0.672059 0.000000
vn 0.740498 0.672059 0.000000
vn 0.740498 0.672059 0.000000
vn 0.000000 0.672057 -0.740499
vn 0.000000 0.672057 -0.740499
vn 0.000000 0.672057 -0.740499
vn 0.000000 0.672057 -0.740499
vn -0.740489 0.672069 0.000000
vn -0.740489 0.672069 0.000000
vn -0.740489 0.672069 0.000000
vn -0.740489 0.672069 0.000000
vn 0.000000 0.672055 0.740501
vn 0.000000 0.672055 0.740501
vn 0.000000 0.672055 0.740501
vn 0.000000 0.672055 0.740501
vn 0.740478 0.672081 0.000000
vn 0.740478 0.672081 0.000000
vn 0.740478 0.672081 0.000000
vn 0.740478 0.672081 0.000000
vn 0.000000 0.672055 -0.740501
vn 0.000000 0.672055 -0.740501
vn 0.000000 0.672055 -0.740501
vn 0.000000 0.672055 -0.740501
s 1
g pCube991
usemtl initialShadingGroup
f 2/2/1 50/50/2 41/41/3 4/4/4
s 2
f 46/46/5 1/1/6 3/3/7 45/45/8
s off
f 52/112/9 51/3/10 53/17/11 54/113/12
s 3
f 1/1/13 46/46/14 47/47/15 20/20/16
s 4
f 7/7/17 5/8/18 18/18/19 19/19/20
s 5
f 3/3/21 1/1/22 20/20/23 17/17/24
s off
f 56/42/25 55/9/26 57/4/27 58/41/28
s 4
f 11/11/29 10/10/30 6/5/31 8/6/32
s 3
f 12/12/33 49/49/34 50/50/35 2/2/36
s 5
f 9/9/37 12/12/38 2/2/39 4/4/40
s off
f 60/43/41 59/13/42 61/9/43 62/42/44
s 4
f 15/15/45 14/14/46 10/10/30 11/11/29
s 3
f 16/16/47 48/48/48 49/49/34 12/12/33
s 5
f 13/13/49 16/16/50 12/12/38 9/9/37
s off
f 64/113/51 63/17/52 65/13/53 66/43/54
s 4
f 19/19/20 18/18/19 14/14/46 15/15/45
s 3
f 20/20/16 47/47/15 48/48/48 16/16/47
s 5
f 17/17/24 20/20/23 16/16/50 13/13/49
s off
f 68/10/55 67/22/56 69/21/57 70/5/58
f 72/14/59 71/23/60 73/22/61 74/10/62
f 76/18/63 75/24/64 77/23/65 78/14/66
f 80/8/67 79/25/68 81/24/69 82/18/70
s 2
f 7/7/71 26/26/72 25/25/73 5/8/74
s 3
f 27/27/75 26/26/76 7/7/77 19/19/78
f 28/28/79 27/27/75 19/19/78 15/15/80
f 29/29/81 28/28/79 15/15/80 11/11/82
f 30/30/83 29/29/81 11/11/82 8/6/84
s 1
f 21/21/85 30/30/86 8/6/87 6/5/88
s off
f 84/22/89 83/32/90 85/31/91 86/21/92
f 88/23/93 87/33/94 89/32/95 90/22/96
f 92/24/97 91/114/98 93/33/99 94/23/100
f 96/25/101 95/111/102 97/114/103 98/24/104
s 2
f 26/26/72 36/36/105 35/35/106 25/25/73
s 3
f 37/37/107 36/36/108 26/26/76 27/27/75
f 38/38/109 37/37/107 27/27/75 28/28/79
f 39/39/110 38/38/109 28/28/79 29/29/81
f 40/40/111 39/39/110 29/29/81 30/30/83
s 1
f 31/31/112 40/40/113 30/30/86 21/21/85
s off
f 100/32/114 99/42/115 101/41/116 102/31/117
f 104/33/118 103/43/119 105/42/120 106/32/121
f 108/114/122 107/113/123 109/43/124 110/33/125
f 112/111/126 111/112/127 113/113/128 114/114/129
s 2
f 36/36/105 46/46/5 45/45/8 35/35/106
s 3
f 47/47/15 46/46/14 36/36/108 37/37/107
f 48/48/48 47/47/15 37/37/107 38/38/109
f 49/49/34 48/48/48 38/38/109 39/39/110
f 50/50/35 49/49/34 39/39/110 40/40/111
s 1
f 41/41/3 50/50/2 40/40/113 31/31/112
s off
f 45/45/130 3/3/131 51/52/132 52/51/133
f 3/3/134 17/17/135 53/53/136 51/52/137
f 17/17/138 44/44/139 54/54/140 53/53/141
f 44/44/142 45/45/143 52/51/144 54/54/145
f 42/42/146 9/9/147 55/56/148 56/55/149
f 9/9/150 4/4/151 57/57/152 55/56/153
f 4/4/154 41/41/155 58/58/156 57/57/157
f 41/41/158 42/42/159 56/55/160 58/58/161
f 43/43/162 13/13/163 59/60/164 60/59/165
f 13/13/166 9/9/167 61/61/168 59/60/169
f 9/9/170 42/42/171 62/62/172 61/61/173
f 42/42/174 43/43/175 60/59/176 62/62/177
f 44/44/178 17/17/179 63/64/180 64/63/181
f 17/17/182 13/13/183 65/65/184 63/64/185
f 13/13/186 43/43/187 66/66/188 65/65/189
f 43/43/190 44/44/191 64/63/192 66/66/193
f 10/10/194 22/22/195 67/68/196 68/67/197
f 22/22/198 21/21/199 69/69/200 67/68/201
f 21/21/202 6/5/203 70/70/204 69/69/205
f 6/5/206 10/10/207 68/67/208 70/70/209
f 14/14/210 23/23/211 71/72/212 72/71/213
f 23/23/214 22/22/215 73/73/216 71/72/217
f 22/22/218 10/10/219 74/74/220 73/73/221
f 10/10/222 14/14/223 72/71/224 74/74/225
f 18/18/226 24/24/227 75/76/228 76/75/229
f 24/24/230 23/23/231 77/77/232 75/76/233
f 23/23/234 14/14/235 78/78/236 77/77/237
f 14/14/238 18/18/239 76/75/240 78/78/241
f 5/8/242 25/25/243 79/80/244 80/79/245
f 25/25/246 24/24/247 81/81/248 79/80/249
f 24/24/250 18/18/251 82/82/252 81/81/253
f 18/18/254 5/8/255 80/79/256 82/82/257
f 22/22/258 32/32/259 83/84/260 84/83/261
f 32/32/262 31/31/263 85/85/264 83/84/265
f 31/31/266 21/21/267 86/86/268 85/85/269
f 21/21/270 22/22/271 84/83/272 86/86/273
f 23/23/274 33/33/275 87/88/276 88/87/277
f 33/33/278 32/32/279 89/89/280 87/88/281
f 32/32/282 22/22/283 90/90/284 89/89/285
f 22/22/286 23/23/287 88/87/288 90/90/289
f 24/24/290 34/34/291 91/92/292 92/91/293
f 34/34/294 33/33/295 93/93/296 91/92/297
f 33/33/298 23/23/299 94/94/300 93/93/301
f 23/23/302 24/24/303 92/91/304 94/94/305
f 25/25/306 35/35/307 95/96/308 96/95/309
f 35/35/310 34/34/311 97/97/312 95/96/313
f 34/34/314 24/24/315 98/98/316 97/97/317
f 24/24/318 25/25/319 96/95/320 98/98/321
f 32/32/322 42/42/323 99/100/324 100/99/325
f 42/42/326 41/41/327 101/101/328 99/100/329
f 41/41/330 31/31/331 102/102/332 101/101/333
f 31/31/334 32/32/335 100/99/336 102/102/337
f 33/33/338 43/43/339 103/104/340 104/103/341
f 43/43/342 42/42/343 105/105/344 103/104/345
f 42/42/346 32/32/347 106/106/348 105/105/349
f 32/32/350 33/33/351 104/103/352 106/106/353
f 34/34/354 44/44/355 107/108/356 108/107/357
f 44/44/358 43/43/359 109/109/360 107/108/361
f 43/43/362 33/33/363 110/110/364 109/109/365
f 33/33/366 34/34/367 108/107/368 110/110/369
f 35/35/370 45/45/371 111/112/372 112/111/373
f 45/45/374 44/44/375 113/113/376 111/112/377
f 44/44/378 34/34/379 114/114/380 113/113/381
f 34/34/382 35/35/383 112/111/384 114/114/385
