# This file uses centimeters as units for non-parametric coordinates.

mtllib obj_caneca_blocado.mtl
g default
v 3.012534 0.051341 -2.188735
v 1.150683 0.051341 -3.541440
v -1.150687 0.051341 -3.541440
v -3.012536 0.051341 -2.188735
v -3.723697 0.051341 0.000000
v -3.012536 0.051341 2.188735
v -1.150687 0.051341 3.541440
v 1.150685 0.051341 3.541440
v 3.012532 0.051341 2.188735
v 3.723695 0.051341 0.000000
v 3.561078 8.265083 -2.587276
v 1.360209 8.265083 -4.186293
v -1.360211 8.265083 -4.186293
v -3.561078 8.265083 -2.587276
v -4.401733 8.265083 0.000000
v -3.561078 8.265083 2.587276
v -1.360211 8.265083 4.186293
v 1.360209 8.265083 4.186293
v 3.561078 8.265083 2.587276
v 4.401733 8.265083 0.000000
v 0.000000 0.051341 0.000000
v 0.000000 8.265083 0.000000
v -0.729610 1.554191 5.733298
v 0.729609 1.554191 5.733298
v 0.862460 6.762233 6.279810
v -0.862462 6.762233 6.279810
vt 0.626409 0.064409
vt 0.548284 0.007647
vt 0.451716 0.007647
vt 0.373591 0.064409
vt 0.343750 0.156250
vt 0.373591 0.248091
vt 0.451716 0.304853
vt 0.548284 0.304853
vt 0.626409 0.248091
vt 0.656250 0.156250
vt 0.375000 0.312500
vt 0.400000 0.312500
vt 0.425000 0.312500
vt 0.450000 0.312500
vt 0.475000 0.312500
vt 0.500000 0.312500
vt 0.525000 0.312500
vt 0.550000 0.312500
vt 0.575000 0.312500
vt 0.600000 0.312500
vt 0.625000 0.312500
vt 0.375000 0.688440
vt 0.400000 0.688440
vt 0.425000 0.688440
vt 0.450000 0.688440
vt 0.475000 0.688440
vt 0.500000 0.688440
vt 0.525000 0.688440
vt 0.550000 0.688440
vt 0.575000 0.688440
vt 0.600000 0.688440
vt 0.625000 0.688440
vt 0.626409 0.751909
vt 0.548284 0.695147
vt 0.451716 0.695147
vt 0.373591 0.751909
vt 0.343750 0.843750
vt 0.373591 0.935591
vt 0.451716 0.992353
vt 0.548284 0.992353
vt 0.626409 0.935591
vt 0.656250 0.843750
vt 0.500000 0.150000
vt 0.500000 0.837500
vt 0.525000 0.312500
vt 0.550000 0.312500
vt 0.550000 0.688440
vt 0.525000 0.688440
vn 0.585980 -0.078268 -0.806537
vn 0.585980 -0.078268 -0.806537
vn 0.585980 -0.078268 -0.806537
vn 0.585980 -0.078268 -0.806537
vn 0.000000 -0.078268 -0.996932
vn 0.000000 -0.078268 -0.996932
vn 0.000000 -0.078268 -0.996932
vn 0.000000 -0.078268 -0.996932
vn -0.585980 -0.078268 -0.806536
vn -0.585980 -0.078268 -0.806536
vn -0.585980 -0.078268 -0.806536
vn -0.585980 -0.078268 -0.806536
vn -0.948139 -0.078268 -0.308068
vn -0.948139 -0.078268 -0.308068
vn -0.948139 -0.078268 -0.308068
vn -0.948139 -0.078268 -0.308068
vn -0.948139 -0.078268 0.308068
vn -0.948139 -0.078268 0.308068
vn -0.948139 -0.078268 0.308068
vn -0.948139 -0.078268 0.308068
vn -0.585980 -0.078268 0.806536
vn -0.585980 -0.078268 0.806536
vn -0.585980 -0.078268 0.806536
vn -0.585980 -0.078268 0.806536
vn 0.000000 -0.104363 0.994539
vn 0.000000 -0.104363 0.994539
vn 0.000000 -0.104363 0.994539
vn 0.000000 -0.104363 0.994539
vn 0.585980 -0.078268 0.806536
vn 0.585980 -0.078268 0.806536
vn 0.585980 -0.078268 0.806536
vn 0.585980 -0.078268 0.806536
vn 0.948139 -0.078268 0.308069
vn 0.948139 -0.078268 0.308069
vn 0.948139 -0.078268 0.308069
vn 0.948139 -0.078268 0.308069
vn 0.948139 -0.078268 -0.308068
vn 0.948139 -0.078268 -0.308068
vn 0.948139 -0.078268 -0.308068
vn 0.948139 -0.078268 -0.308068
vn 0.000000 -1.000000 -0.000000
vn 0.000000 -1.000000 0.000000
vn 0.000000 -1.000000 0.000000
vn 0.000000 -1.000000 0.000000
vn 0.000000 -1.000000 0.000000
vn 0.000000 -1.000000 0.000000
vn 0.000000 -1.000000 -0.000000
vn 0.000000 -1.000000 -0.000000
vn 0.000000 -1.000000 0.000000
vn 0.000000 -1.000000 0.000000
vn 0.000000 -1.000000 0.000000
vn 0.000000 1.000000 0.000000
vn 0.000000 1.000000 0.000000
vn 0.000000 1.000000 0.000000
vn 0.000000 1.000000 0.000000
vn 0.000000 1.000000 -0.000000
vn 0.000000 1.000000 -0.000000
vn 0.000000 1.000000 -0.000000
vn 0.000000 1.000000 -0.000000
vn 0.000000 1.000000 -0.000000
vn 0.000000 1.000000 0.000000
vn 0.000000 1.000000 0.000000
vn 0.000000 -0.824753 0.565493
vn 0.000000 -0.824753 0.565493
vn 0.000000 -0.824753 0.565493
vn 0.000000 -0.824753 0.565493
vn 0.976852 -0.043510 0.209446
vn 0.976852 -0.043510 0.209446
vn 0.976852 -0.043510 0.209446
vn 0.976852 -0.043510 0.209446
vn 0.000000 0.812358 0.583158
vn 0.000000 0.812358 0.583158
vn 0.000000 0.812358 0.583158
vn 0.000000 0.812358 0.583158
vn -0.976852 -0.043510 0.209447
vn -0.976852 -0.043510 0.209447
vn -0.976852 -0.043510 0.209447
vn -0.976852 -0.043510 0.209447
s off
g pCylinder6
usemtl initialShadingGroup
f 1/11/1 2/12/2 12/23/3 11/22/4
f 2/12/5 3/13/6 13/24/7 12/23/8
f 3/13/9 4/14/10 14/25/11 13/24/12
f 4/14/13 5/15/14 15/26/15 14/25/16
f 5/15/17 6/16/18 16/27/19 15/26/20
f 6/16/21 7/17/22 17/28/23 16/27/24
f 23/45/25 24/46/26 25/47/27 26/48/28
f 8/18/29 9/19/30 19/30/31 18/29/32
f 9/19/33 10/20/34 20/31/35 19/30/36
f 10/20/37 1/21/38 11/32/39 20/31/40
s 1
f 2/2/41 1/1/42 21/43/43
f 3/3/44 2/2/41 21/43/43
f 4/4/45 3/3/44 21/43/43
f 5/5/46 4/4/45 21/43/43
f 6/6/47 5/5/46 21/43/43
f 7/7/48 6/6/47 21/43/43
f 8/8/49 7/7/48 21/43/43
f 9/9/50 8/8/49 21/43/43
f 10/10/51 9/9/50 21/43/43
f 1/1/42 10/10/51 21/43/43
s 2
f 11/41/52 12/40/53 22/44/54
f 12/40/53 13/39/55 22/44/54
f 13/39/55 14/38/56 22/44/54
f 14/38/56 15/37/57 22/44/54
f 15/37/57 16/36/58 22/44/54
f 16/36/58 17/35/59 22/44/54
f 17/35/59 18/34/60 22/44/54
f 18/34/60 19/33/61 22/44/54
f 19/33/61 20/42/62 22/44/54
f 20/42/62 11/41/52 22/44/54
s off
f 7/17/63 8/18/64 24/46/65 23/45/66
f 8/18/67 18/29/68 25/47/69 24/46/70
f 18/29/71 17/28/72 26/48/73 25/47/74
f 17/28/75 7/17/76 23/45/77 26/48/78
