# This file uses centimeters as units for non-parametric coordinates.

mtllib obj_copo.mtl
g default
v 2.724260 -0.132982 -1.979288
v 1.040574 -0.132982 -3.202559
v -1.040576 -0.132982 -3.202559
v -2.724260 -0.132982 -1.979288
v -3.367373 -0.132982 0.000001
v -2.724260 -0.132982 1.979293
v -1.040574 -0.132982 3.202562
v 1.040576 -0.132982 3.202562
v 2.724260 -0.132982 1.979293
v 3.367370 -0.132982 0.000001
v 3.596762 10.990039 -2.613202
v 1.373840 10.990039 -4.228248
v -1.373843 10.990039 -4.228248
v -3.596762 10.990039 -2.613202
v -4.445842 10.990039 0.000001
v -3.596762 10.990039 2.613202
v -1.373840 10.990039 4.228248
v 1.373840 10.990039 4.228248
v 3.596762 10.990039 2.613202
v 4.445842 10.990039 0.000001
v 0.000000 -0.132982 0.000001
v 3.371185 11.531403 -2.449310
v 1.287677 11.531403 -3.963066
v -1.287677 11.531403 -3.963060
v -3.371185 11.531403 -2.449304
v -4.167012 11.531403 0.000001
v -3.371185 11.531403 2.449310
v -1.287677 11.531403 3.963066
v 1.287677 11.531403 3.963066
v 3.371185 11.531403 2.449310
v 4.167012 11.531403 0.000001
v 3.001007 11.115528 -2.180357
v 1.146284 11.115528 -3.527898
v -1.146284 11.115528 -3.527892
v -3.001007 11.115528 -2.180357
v -3.709450 11.115528 0.000001
v -3.001007 11.115528 2.180362
v -1.146284 11.115528 3.527898
v 1.146284 11.115528 3.527898
v 3.001007 11.115528 2.180360
v 3.709450 11.115528 0.000001
v 2.397710 1.660403 -1.742037
v 0.915843 1.660403 -2.818679
v 0.000000 1.660403 0.000001
v -0.915843 1.660403 -2.818673
v -2.397710 1.660403 -1.742037
v -2.963732 1.660403 0.000001
v -2.397710 1.660403 1.742040
v -0.915843 1.660403 2.818679
v 0.915843 1.660403 2.818679
v 2.397710 1.660403 1.742040
v 2.963732 1.660403 0.000001
vt 0.626409 0.064409
vt 0.548284 0.007647
vt 0.451716 0.007647
vt 0.373591 0.064409
vt 0.343750 0.156250
vt 0.373591 0.248091
vt 0.451716 0.304853
vt 0.548284 0.304853
vt 0.626409 0.248091
vt 0.656250 0.156250
vt 0.375000 0.312500
vt 0.400000 0.312500
vt 0.425000 0.312500
vt 0.450000 0.312500
vt 0.475000 0.312500
vt 0.500000 0.312500
vt 0.525000 0.312500
vt 0.550000 0.312500
vt 0.575000 0.312500
vt 0.600000 0.312500
vt 0.625000 0.312500
vt 0.375000 0.688440
vt 0.400000 0.688440
vt 0.425000 0.688440
vt 0.450000 0.688440
vt 0.475000 0.688440
vt 0.500000 0.688440
vt 0.525000 0.688440
vt 0.550000 0.688440
vt 0.575000 0.688440
vt 0.600000 0.688440
vt 0.625000 0.688440
vt 0.626409 0.751909
vt 0.548284 0.695147
vt 0.451716 0.695147
vt 0.373591 0.751909
vt 0.343750 0.843750
vt 0.373591 0.935591
vt 0.451716 0.992353
vt 0.548284 0.992353
vt 0.626409 0.935591
vt 0.656250 0.843750
vt 0.500000 0.150000
vt 0.500000 0.837500
vt 0.626409 0.935591
vt 0.548284 0.992353
vt 0.451716 0.992353
vt 0.373591 0.935591
vt 0.343750 0.843750
vt 0.373591 0.751909
vt 0.451716 0.695147
vt 0.548284 0.695147
vt 0.626409 0.751909
vt 0.656250 0.843750
vt 0.626409 0.935591
vt 0.548284 0.992353
vt 0.451716 0.992353
vt 0.373591 0.935591
vt 0.343750 0.843750
vt 0.373591 0.751909
vt 0.451716 0.695147
vt 0.548284 0.695147
vt 0.626409 0.751909
vt 0.656250 0.843750
vt 0.626409 0.935591
vt 0.548284 0.992353
vt 0.451716 0.992353
vt 0.373591 0.935591
vt 0.343750 0.843750
vt 0.373591 0.751909
vt 0.451716 0.695147
vt 0.548284 0.695147
vt 0.626409 0.751909
vt 0.656250 0.843750
vn 0.793399 -0.195545 -0.576438
vn 0.303051 -0.195545 -0.932696
vn 0.308306 -0.067799 -0.948868
vn 0.807155 -0.067799 -0.586433
vn -0.303051 -0.195545 -0.932696
vn -0.308306 -0.067799 -0.948868
vn -0.793399 -0.195545 -0.576438
vn -0.807155 -0.067799 -0.586433
vn -0.980695 -0.195544 -0.000000
vn -0.997699 -0.067799 -0.000000
vn -0.793398 -0.195545 0.576438
vn -0.807155 -0.067799 0.586433
vn -0.303051 -0.195544 0.932696
vn -0.308305 -0.067799 0.948868
vn 0.303051 -0.195544 0.932696
vn 0.308305 -0.067799 0.948868
vn 0.793399 -0.195545 0.576438
vn 0.807155 -0.067799 0.586433
vn 0.980695 -0.195544 -0.000000
vn 0.997699 -0.067799 0.000000
vn 0.000000 -1.000000 -0.000000
vn -0.795010 0.185278 0.577608
vn -0.303666 0.185278 0.934590
vn 0.000000 1.000000 0.000000
vn 0.303668 0.185278 0.934590
vn 0.795010 0.185278 0.577609
vn 0.982686 0.185278 0.000000
vn 0.795010 0.185278 -0.577608
vn 0.303666 0.185278 -0.934590
vn -0.303666 0.185278 -0.934590
vn -0.795010 0.185278 -0.577608
vn -0.982686 0.185278 -0.000000
vn 0.115301 0.927783 -0.354859
vn 0.301862 0.927782 -0.219315
vn -0.115300 0.927783 -0.354858
vn -0.301862 0.927782 -0.219315
vn -0.373123 0.927782 -0.000000
vn -0.301863 0.927782 0.219317
vn -0.115302 0.927782 0.354860
vn 0.115302 0.927782 0.354859
vn 0.301863 0.927782 0.219316
vn 0.373122 0.927782 0.000000
vn -0.306152 0.135844 0.942240
vn -0.801518 0.135844 0.582336
vn 0.306154 0.135844 0.942240
vn 0.801517 0.135844 0.582337
vn 0.990730 0.135844 0.000000
vn 0.801518 0.135844 -0.582337
vn 0.306152 0.135844 -0.942241
vn -0.306152 0.135844 -0.942241
vn -0.801518 0.135844 -0.582337
vn -0.990730 0.135844 -0.000000
s 1
g pCylinder1
usemtl initialShadingGroup
f 1/11/1 2/12/2 12/23/3 11/22/4
f 2/12/2 3/13/5 13/24/6 12/23/3
f 3/13/5 4/14/7 14/25/8 13/24/6
f 4/14/7 5/15/9 15/26/10 14/25/8
f 5/15/9 6/16/11 16/27/12 15/26/10
f 6/16/11 7/17/13 17/28/14 16/27/12
f 7/17/13 8/18/15 18/29/16 17/28/14
f 8/18/15 9/19/17 19/30/18 18/29/16
f 9/19/17 10/20/19 20/31/20 19/30/18
f 10/20/19 1/21/1 11/32/4 20/31/20
f 2/2/2 1/1/1 21/43/21
f 3/3/5 2/2/2 21/43/21
f 4/4/7 3/3/5 21/43/21
f 5/5/9 4/4/7 21/43/21
f 6/6/11 5/5/9 21/43/21
f 7/7/13 6/6/11 21/43/21
f 8/8/15 7/7/13 21/43/21
f 9/9/17 8/8/15 21/43/21
f 10/10/19 9/9/17 21/43/21
f 1/1/1 10/10/19 21/43/21
f 42/65/22 43/66/23 44/44/24
f 43/66/23 45/67/25 44/44/24
f 45/67/25 46/68/26 44/44/24
f 46/68/26 47/69/27 44/44/24
f 47/69/27 48/70/28 44/44/24
f 48/70/28 49/71/29 44/44/24
f 49/71/29 50/72/30 44/44/24
f 50/72/30 51/73/31 44/44/24
f 51/73/31 52/74/32 44/44/24
f 52/74/32 42/65/22 44/44/24
f 11/41/4 12/40/3 23/46/33 22/45/34
f 12/40/3 13/39/6 24/47/35 23/46/33
f 13/39/6 14/38/8 25/48/36 24/47/35
f 14/38/8 15/37/10 26/49/37 25/48/36
f 15/37/10 16/36/12 27/50/38 26/49/37
f 16/36/12 17/35/14 28/51/39 27/50/38
f 17/35/14 18/34/16 29/52/40 28/51/39
f 18/34/16 19/33/18 30/53/41 29/52/40
f 19/33/18 20/42/20 31/54/42 30/53/41
f 20/42/20 11/41/4 22/45/34 31/54/42
f 22/45/34 23/46/33 33/56/43 32/55/44
f 23/46/33 24/47/35 34/57/45 33/56/43
f 24/47/35 25/48/36 35/58/46 34/57/45
f 25/48/36 26/49/37 36/59/47 35/58/46
f 26/49/37 27/50/38 37/60/48 36/59/47
f 27/50/38 28/51/39 38/61/49 37/60/48
f 28/51/39 29/52/40 39/62/50 38/61/49
f 29/52/40 30/53/41 40/63/51 39/62/50
f 30/53/41 31/54/42 41/64/52 40/63/51
f 31/54/42 22/45/34 32/55/44 41/64/52
f 32/55/44 33/56/43 43/66/23 42/65/22
f 33/56/43 34/57/45 45/67/25 43/66/23
f 34/57/45 35/58/46 46/68/26 45/67/25
f 35/58/46 36/59/47 47/69/27 46/68/26
f 36/59/47 37/60/48 48/70/28 47/69/27
f 37/60/48 38/61/49 49/71/29 48/70/28
f 38/61/49 39/62/50 50/72/30 49/71/29
f 39/62/50 40/63/51 51/73/31 50/72/30
f 40/63/51 41/64/52 52/74/32 51/73/31
f 41/64/52 32/55/44 42/65/22 52/74/32
