# This file uses meters as units for non-parametric coordinates.

mtllib uv_Corner.mtl
g default
v -906.825623 15.335732 -1098.859429
v -906.825623 276.948212 -1098.859429
v -891.839661 276.948212 -1098.859429
v -906.825623 276.948212 -1113.859427
v -891.839661 276.948212 -1113.859427
v -906.825623 15.335732 -1113.859427
v -906.825623 0.275322 -1113.859427
v -906.825623 0.275322 -1098.859429
v -906.825623 14.640240 -1113.859427
v -906.825623 14.640240 -1098.859429
v -906.825623 14.261093 -1113.859427
v -906.825623 14.261093 -1098.859429
v -891.839661 15.335732 -1098.859429
v -891.839661 14.640240 -1098.859429
v -891.839661 14.261093 -1098.859429
v -891.839661 0.275322 -1098.859429
v -891.839661 0.275322 -1113.859425
v -891.839661 15.335732 -1113.859425
v -899.332581 15.335732 -1113.859427
v -899.332581 0.275322 -1113.859427
v -899.332581 0.275322 -1098.859429
v -899.332581 14.261093 -1098.859429
v -899.332581 14.640240 -1098.859429
v -899.332581 15.335732 -1098.859429
v -899.332581 276.948212 -1098.859429
v -899.332581 276.948212 -1113.859427
v -906.825623 294.248230 -1098.859429
v -899.332581 294.248230 -1098.859429
v -899.332581 294.248230 -1113.859427
v -906.825623 294.248230 -1113.859427
v -891.839661 294.248230 -1098.859429
v -891.839661 294.248230 -1113.859427
v -891.832703 15.335732 -1113.859452
v -906.832703 15.335732 -1113.859452
v -906.832703 0.275322 -1113.859452
v -891.832703 0.275322 -1113.859452
v -906.832703 15.086384 -1114.914200
v -891.832703 15.086384 -1114.914200
v -891.832703 0.275322 -1114.914200
v -906.832703 0.275322 -1114.914200
v -906.832703 14.674164 -1115.302872
v -891.832703 14.674164 -1115.302872
v -891.832703 0.275322 -1115.302872
v -906.832703 0.275322 -1115.302872
v -891.832703 13.978672 -1115.573685
v -906.832703 13.978672 -1115.573685
v -906.832703 14.390892 -1114.914200
v -906.832703 14.640240 -1113.859452
v -891.832703 13.599525 -1115.573685
v -906.832703 13.599525 -1115.573685
v -906.832703 14.011745 -1114.914200
v -906.832703 14.261093 -1113.859452
v -891.839783 15.335732 -1098.859421
v -891.839783 15.335732 -1113.859420
v -891.839783 0.275322 -1113.859420
v -891.839783 0.275322 -1098.859421
v -890.785095 15.086384 -1113.859420
v -890.785095 15.086384 -1098.859421
v -890.785095 0.275322 -1098.859421
v -890.785095 0.275322 -1113.859420
v -890.396423 14.674164 -1113.859420
v -890.396423 14.674164 -1098.859421
v -890.396423 0.275322 -1098.859421
v -890.396423 0.275322 -1113.859420
v -890.125671 13.978672 -1098.859421
v -890.125671 13.978672 -1113.859420
v -891.839783 14.640240 -1098.859421
v -890.785095 14.390892 -1098.859421
v -890.125671 13.599525 -1098.859421
v -890.125671 13.599525 -1113.859420
v -891.839783 14.261093 -1098.859421
v -890.785095 14.011745 -1098.859421
vt 0.142257 0.019531
vt 0.191289 0.019531
vt 0.191289 0.874689
vt 0.142257 0.874689
vt 0.191289 0.931239
vt 0.142257 0.931239
vt 0.019531 0.068761
vt 0.068563 0.068761
vt 0.068563 0.923918
vt 0.019531 0.923918
vt 0.019531 0.066487
vt 0.068563 0.066487
vt 0.068563 0.980469
vt 0.019531 0.980469
vt 0.019531 0.065248
vt 0.068563 0.065248
vt 0.019531 0.019531
vt 0.068563 0.019531
vt 0.653493 0.066487
vt 0.653493 0.068761
vt 0.650045 0.067946
vt 0.650045 0.065672
vt 0.648775 0.066598
vt 0.647889 0.064325
vt 0.653493 0.065248
vt 0.650045 0.064433
vt 0.647889 0.063085
vt 0.653493 0.019531
vt 0.650045 0.019531
vt 0.648775 0.019531
vt 0.448270 0.025280
vt 0.448270 0.075584
vt 0.445938 0.075584
vt 0.445938 0.025280
vt 0.449653 0.025280
vt 0.449653 0.075584
vt 0.444667 0.075584
vt 0.444667 0.025280
vt 0.445938 0.019531
vt 0.448270 0.020439
vt 0.449653 0.021743
vt 0.399982 0.075584
vt 0.399982 0.025280
vt 0.444667 0.019531
vt 0.399982 0.020439
vt 0.525163 0.019531
vt 0.549656 0.019531
vt 0.549656 0.068563
vt 0.525163 0.068563
vt 0.574149 0.019531
vt 0.574149 0.068563
vt 0.463800 0.019531
vt 0.488293 0.019531
vt 0.488293 0.068563
vt 0.463800 0.068563
vt 0.512786 0.019531
vt 0.512786 0.068563
vt 0.264984 0.070815
vt 0.316267 0.070815
vt 0.316267 0.074421
vt 0.264984 0.074421
vt 0.316243 0.070814
vt 0.319848 0.070814
vt 0.316267 0.075749
vt 0.264984 0.075749
vt 0.316243 0.019531
vt 0.319848 0.019531
vt 0.382743 0.024250
vt 0.333710 0.024250
vt 0.333710 0.020802
vt 0.382743 0.020802
vt 0.333710 0.019531
vt 0.382743 0.019531
vt 0.386167 0.024250
vt 0.382719 0.024250
vt 0.387437 0.024250
vt 0.382719 0.073282
vt 0.386167 0.073282
vt 0.387437 0.073282
vt 0.080894 0.068761
vt 0.105388 0.068761
vt 0.105388 0.923917
vt 0.080894 0.923917
vt 0.080894 0.066487
vt 0.105388 0.066487
vt 0.129880 0.068761
vt 0.129880 0.923917
vt 0.105388 0.980468
vt 0.080894 0.980468
vt 0.080894 0.065248
vt 0.105388 0.065248
vt 0.129880 0.066487
vt 0.129880 0.980468
vt 0.080894 0.019531
vt 0.105388 0.019531
vt 0.129880 0.065248
vt 0.129880 0.019531
vt 0.203621 0.076081
vt 0.228114 0.076081
vt 0.228114 0.931238
vt 0.203621 0.931238
vt 0.203621 0.019531
vt 0.228114 0.019531
vt 0.252607 0.076081
vt 0.252607 0.931238
vt 0.252607 0.019531
vt 0.586526 0.068654
vt 0.586526 0.019531
vt 0.588804 0.019531
vt 0.588804 0.068654
vt 0.590045 0.019531
vt 0.590045 0.068654
vt 0.633681 0.019531
vt 0.633681 0.068654
vt 0.667526 0.068761
vt 0.667526 0.066488
vt 0.670973 0.065673
vt 0.670973 0.067946
vt 0.667526 0.065249
vt 0.670973 0.064433
vt 0.673129 0.064325
vt 0.672243 0.066599
vt 0.667526 0.019531
vt 0.670973 0.019531
vt 0.673129 0.063086
vt 0.672243 0.019531
vn 0.000000 0.000000 1.000000
vn 0.000000 0.000000 1.000000
vn 0.000000 0.000000 1.000000
vn 0.000000 0.000000 1.000000
vn 0.000000 1.000000 0.000000
vn 0.000000 1.000000 0.000000
vn 0.000000 1.000000 0.000000
vn 0.000000 1.000000 0.000000
vn 0.000000 0.000000 -1.000000
vn 0.000000 -0.000000 -1.000000
vn 0.000000 -0.000000 -1.000000
vn 0.000000 0.000000 -1.000000
vn 0.000000 -1.000000 0.000000
vn 0.000000 -1.000000 0.000000
vn 0.000000 -1.000000 0.000000
vn 0.000000 -1.000000 0.000000
vn 1.000000 0.000000 0.000000
vn 1.000000 0.000000 0.000000
vn 1.000000 0.000000 0.000000
vn 1.000000 0.000000 0.000000
vn -1.000000 0.000000 0.000000
vn -1.000000 0.000000 0.000000
vn -1.000000 0.000000 0.000000
vn -1.000000 0.000000 0.000000
vn 0.000000 0.000000 1.000000
vn 0.000000 0.000000 1.000000
vn 0.000000 0.000000 1.000000
vn 0.000000 0.000000 1.000000
vn -1.000000 0.000000 0.000000
vn -1.000000 0.000000 0.000000
vn -1.000000 0.000000 0.000000
vn -1.000000 0.000000 0.000000
vn -1.000000 0.000000 0.000000
vn -1.000000 0.000000 0.000000
vn 0.000000 0.000000 1.000000
vn 0.000000 0.000000 1.000000
vn -1.000000 0.000000 0.000000
vn -1.000000 0.000000 0.000000
vn 0.000000 0.000000 1.000000
vn 0.000000 0.000000 1.000000
vn 0.000000 -1.000000 0.000000
vn 0.000000 -1.000000 0.000000
vn 0.000000 0.000000 1.000000
vn 0.000000 0.000000 1.000000
vn 0.000000 0.000000 1.000000
vn 0.000000 0.000000 1.000000
vn 0.000000 0.000000 1.000000
vn 0.000000 0.000000 1.000000
vn 0.000000 1.000000 0.000000
vn 0.000000 1.000000 0.000000
vn 0.000000 -0.000000 -1.000000
vn 0.000000 -0.000000 -1.000000
vn 0.000000 0.000000 1.000000
vn 0.000000 0.000000 1.000000
vn 0.000000 0.000000 1.000000
vn 0.000000 0.000000 1.000000
vn 0.000000 0.000000 -1.000000
vn 0.000000 0.000000 -1.000000
vn 0.000000 0.000000 -1.000000
vn 0.000000 0.000000 -1.000000
vn -1.000000 0.000000 0.000000
vn -1.000000 0.000000 0.000000
vn -1.000000 0.000000 0.000000
vn -1.000000 0.000000 0.000000
vn 0.000000 0.000000 1.000000
vn 0.000000 0.000000 1.000000
vn 0.000000 0.000000 1.000000
vn 0.000000 0.000000 1.000000
vn 1.000000 0.000000 0.000000
vn 1.000000 0.000000 0.000000
vn 1.000000 0.000000 0.000000
vn 1.000000 0.000000 0.000000
vn 0.000000 0.000000 -1.000000
vn 0.000000 0.000000 -1.000000
vn 0.000000 0.000000 -1.000000
vn 0.000000 0.000000 -1.000000
vn 0.000000 0.362847 -0.931849
vn 0.000000 0.362847 -0.931849
vn 0.000000 0.244364 -0.969684
vn 0.000000 0.244364 -0.969684
vn 0.000000 0.973176 -0.230063
vn 0.000000 0.973176 -0.230063
vn 0.000000 0.973176 -0.230063
vn 0.000000 0.973176 -0.230063
vn 0.000000 -1.000000 0.000000
vn 0.000000 -1.000000 0.000000
vn 0.000000 -1.000000 0.000000
vn 0.000000 -1.000000 0.000000
vn -1.000000 0.000000 0.000000
vn -1.000000 0.000000 0.000000
vn -1.000000 0.000000 0.000000
vn -1.000000 0.000000 0.000000
vn 0.000000 0.686020 -0.727583
vn 0.000000 0.686020 -0.727583
vn 0.000000 0.686020 -0.727583
vn 0.000000 0.686020 -0.727583
vn 0.000000 -1.000000 0.000000
vn 0.000000 -1.000000 0.000000
vn 0.000000 -1.000000 0.000000
vn 0.000000 -1.000000 0.000000
vn -1.000000 0.000000 0.000000
vn -1.000000 0.000000 0.000000
vn -1.000000 0.000000 0.000000
vn -1.000000 0.000000 0.000000
vn 0.000000 -0.019759 -0.999805
vn 0.000000 -0.019759 -0.999805
vn -1.000000 0.000000 0.000000
vn -1.000000 0.000000 0.000000
vn -1.000000 0.000000 0.000000
vn -1.000000 0.000000 0.000000
vn 0.000000 -0.020321 -0.999794
vn 0.000000 -0.020321 -0.999794
vn -1.000000 0.000000 0.000000
vn -1.000000 0.000000 0.000000
vn -1.000000 0.000000 0.000000
vn -1.000000 0.000000 0.000000
vn 0.931899 0.362719 0.000000
vn 0.931899 0.362719 0.000000
vn 0.969707 0.244271 0.000000
vn 0.969707 0.244271 0.000000
vn 0.230076 0.973173 0.000000
vn 0.230076 0.973173 0.000000
vn 0.230076 0.973173 0.000000
vn 0.230076 0.973173 0.000000
vn 0.000000 0.000000 1.000000
vn 0.000000 0.000000 1.000000
vn 0.000000 0.000000 1.000000
vn 0.000000 0.000000 1.000000
vn 0.000000 -1.000000 0.000000
vn 0.000000 -1.000000 0.000000
vn 0.000000 -1.000000 0.000000
vn 0.000000 -1.000000 0.000000
vn 0.727583 0.686020 0.000000
vn 0.727583 0.686020 0.000000
vn 0.727583 0.686020 0.000000
vn 0.727583 0.686020 0.000000
vn -0.000000 0.000000 1.000000
vn -0.000000 0.000000 1.000000
vn -0.000000 0.000000 1.000000
vn -0.000000 0.000000 1.000000
vn 0.000000 -1.000000 0.000000
vn 0.000000 -1.000000 0.000000
vn 0.000000 -1.000000 0.000000
vn 0.000000 -1.000000 0.000000
vn 0.999805 -0.019751 0.000000
vn 0.999805 -0.019751 0.000000
vn 0.000000 0.000000 1.000000
vn 0.000000 0.000000 1.000000
vn -0.000000 0.000000 1.000000
vn -0.000000 0.000000 1.000000
vn 0.999794 -0.020312 0.000000
vn 0.999794 -0.020312 0.000000
vn 0.000000 0.000000 1.000000
vn 0.000000 0.000000 1.000000
vn -0.000000 0.000000 1.000000
vn -0.000000 0.000000 1.000000
vn 0.225743 0.948394 -0.222686
vn 0.225743 0.948394 -0.222686
vn 0.225743 0.948394 -0.222686
vn 0.225743 0.948394 -0.222686
vn 0.590064 0.554651 -0.586674
vn 0.590064 0.554651 -0.586674
vn 0.590064 0.554651 -0.586674
vn 0.590064 0.554651 -0.586674
vn 0.683290 0.265477 -0.680174
vn 0.683290 0.265477 -0.680174
vn 0.683290 0.265477 -0.680174
vn 0.683290 0.265477 -0.680174
vn 0.708601 0.000000 -0.705610
vn 0.708601 0.000000 -0.705610
vn 0.708601 0.000000 -0.705610
vn 0.708601 0.000000 -0.705610
vn 0.708649 -0.014372 -0.705415
vn 0.708648 -0.014372 -0.705415
vn 0.708649 -0.014372 -0.705415
vn 0.708649 -0.014372 -0.705415
vn 0.000000 -1.000000 0.000000
vn 0.000000 -1.000000 0.000000
vn 0.000000 -1.000000 0.000000
vn 0.000000 -1.000000 0.000000
vn 0.000000 -1.000000 0.000000
vn 0.000000 -1.000000 0.000000
vn 0.000000 -1.000000 0.000000
vn 0.000000 -1.000000 0.000000
s 1
g polySurfaceShape44
usemtl initialShadingGroup
f 1/80/1 24/81/2 25/82/3 2/83/4
s 2
usemtl lambert12SG
f 27/46/5 28/47/6 29/48/7 30/49/8
s 3
usemtl initialShadingGroup
f 4/98/9 26/99/10 19/100/11 6/101/12
s 4
f 7/52/13 20/53/14 21/54/15 8/55/16
s off
f 13/1/17 18/2/18 5/3/19 3/4/20
f 6/7/21 1/8/22 2/9/23 4/10/24
s 5
f 24/81/25 1/80/26 10/84/27 23/85/28
s 6
f 1/8/29 6/7/30 9/11/31 10/12/32
f 10/12/32 9/11/31 11/15/33 12/16/34
s 5
f 23/85/28 10/84/27 12/90/35 22/91/36
s 6
f 12/16/34 11/15/33 7/17/37 8/18/38
s 5
f 22/91/36 12/90/35 8/94/39 21/95/40
s 4
f 21/54/15 20/53/14 17/56/41 16/57/42
s 5
f 15/96/43 22/91/36 21/95/40 16/97/44
f 14/92/45 23/85/28 22/91/36 15/96/43
f 13/86/46 24/81/25 23/85/28 14/92/45
s 1
f 25/82/3 24/81/2 13/86/47 3/87/48
s 2
usemtl lambert12SG
f 29/48/7 28/47/6 31/50/49 32/51/50
s 3
usemtl initialShadingGroup
f 19/100/11 26/99/10 5/104/51 18/105/52
s off
f 2/83/53 25/82/54 28/88/55 27/89/56
usemtl lambert12SG
f 26/99/57 4/98/58 30/102/59 29/103/60
usemtl initialShadingGroup
f 4/10/61 2/9/62 27/13/63 30/14/64
f 25/82/65 3/87/66 31/93/67 28/88/68
usemtl lambert12SG
f 3/4/69 5/3/70 32/5/71 31/6/72
f 5/104/73 26/99/74 29/103/75 32/106/76
s 7
usemtl initialShadingGroup
f 41/107/77 42/108/78 45/109/79 46/110/80
s off
f 34/58/81 33/59/82 38/60/83 37/61/84
f 36/68/85 35/69/86 40/70/87 39/71/88
s 8
f 48/19/89 34/20/90 37/21/91 47/22/92
s off
f 37/61/93 38/60/94 42/64/95 41/65/96
f 39/71/97 40/70/98 44/72/99 43/73/100
s 9
f 47/22/101 37/21/102 41/23/103 46/24/104
s 7
f 46/110/80 45/109/79 49/111/105 50/112/106
s 9
f 51/26/107 47/22/101 46/24/104 50/27/108
s 8
f 52/25/109 48/19/89 47/22/92 51/26/110
s 7
f 50/112/106 49/111/105 43/113/111 44/114/112
s 9
f 40/29/113 51/26/107 50/27/108 44/30/114
s 8
f 35/28/115 52/25/109 51/26/110 40/29/116
s 10
f 61/31/117 62/32/118 65/33/119 66/34/120
s off
f 54/62/121 53/66/122 58/67/123 57/63/124
s 11
f 53/115/125 67/116/126 68/117/127 58/118/128
s off
f 56/77/129 55/75/130 60/74/131 59/78/132
f 57/35/133 58/36/134 62/32/135 61/31/136
s 12
f 58/118/137 68/117/138 65/121/139 62/122/140
s off
f 59/78/141 60/74/142 64/76/143 63/79/144
s 10
f 66/34/120 65/33/119 69/37/145 70/38/146
s 11
f 68/117/127 67/116/126 71/119/147 72/120/148
s 12
f 65/121/139 68/117/138 72/120/149 69/125/150
s 10
f 70/38/146 69/37/145 63/42/151 64/43/152
s 11
f 72/120/148 71/119/147 56/123/153 59/124/154
s 12
f 69/125/150 72/120/149 59/124/155 63/126/156
s off
f 38/60/157 33/59/158 54/62/159 57/63/160
f 42/40/161 38/41/162 57/35/163 61/31/164
f 45/39/165 42/40/166 61/31/167 66/34/168
f 49/44/169 45/39/170 66/34/171 70/38/172
f 43/45/173 49/44/174 70/38/175 64/43/176
f 39/71/177 43/73/178 64/76/179 60/74/180
f 36/68/181 39/71/182 60/74/183 55/75/184
