# This file uses meters as units for non-parametric coordinates.

mtllib uv_Modular_Wall_4m.mtl
g default
v -908.278794 15.335396 1100.920166
v -893.278794 15.335396 1100.920166
v -908.278794 276.942444 1100.920166
v -893.278794 276.942444 1100.920166
v -908.278794 276.942444 700.920166
v -893.278794 276.942444 700.920166
v -908.278794 15.335396 700.920166
v -893.278794 15.335396 700.920166
v -908.278794 0.274986 700.920166
v -893.278794 0.274986 700.920166
v -893.278794 0.274986 1100.920166
v -908.278794 0.274986 1100.920166
v -892.223008 15.086048 700.920166
v -892.223008 15.086048 1100.920166
v -892.223008 0.274986 1100.920166
v -892.223008 0.274986 700.920166
v -891.833970 14.673828 700.920166
v -891.833970 14.673828 1100.920166
v -891.833970 0.274986 1100.920166
v -891.833970 0.274986 700.920166
v -891.562913 13.978336 1100.920166
v -891.562913 13.978336 700.920166
v -892.223008 14.390556 700.920166
v -893.278794 14.639904 700.920166
v -908.278794 14.639904 700.920166
v -908.278794 14.639904 1100.920166
v -893.278794 14.639904 1100.920166
v -892.223008 14.390556 1100.920166
v -891.562913 13.599190 1100.920166
v -891.562913 13.599190 700.920166
v -892.223008 14.011410 700.920166
v -893.278794 14.260757 700.920166
v -908.278794 14.260757 700.920166
v -908.278794 14.260757 1100.920166
v -893.278794 14.260757 1100.920166
v -892.223008 14.011410 1100.920166
v -908.278794 294.248230 1100.920166
v -893.278794 294.248230 1100.920166
v -893.278794 294.248230 700.920166
v -908.278794 294.248230 700.920166
vt 0.058736 0.571811
vt 0.058736 0.001992
vt 0.431407 0.001992
vt 0.431407 0.571811
vt 0.456060 0.001992
vt 0.456060 0.571811
vt 0.484077 0.571811
vt 0.484077 0.001992
vt 0.856749 0.001992
vt 0.856749 0.571811
vt 0.483087 0.571811
vt 0.483087 0.001992
vt 0.881402 0.001992
vt 0.881402 0.571811
vt 0.482546 0.571811
vt 0.482546 0.001992
vt 0.462623 0.571811
vt 0.462623 0.001992
vt 0.907223 0.001992
vt 0.907223 0.571811
vt 0.906232 0.571811
vt 0.906232 0.001992
vt 0.907810 0.001992
vt 0.907810 0.571811
vt 0.905692 0.571811
vt 0.905692 0.001992
vt 0.886711 0.571811
vt 0.886711 0.001992
vt 0.001824 0.001992
vt 0.023192 0.001992
vt 0.023192 0.571811
vt 0.001824 0.571811
vt 0.029362 0.001992
vt 0.050730 0.001992
vt 0.050730 0.571811
vt 0.029362 0.571811
vt 0.052234 0.001992
vt 0.052234 0.571811
vt 0.052788 0.001992
vt 0.052788 0.571811
vt 0.912413 0.571811
vt 0.912413 0.001992
vt 0.913917 0.001992
vt 0.913917 0.571811
vt 0.009168 0.598848
vt 0.030536 0.598848
vt 0.030536 0.971519
vt 0.009168 0.971519
vt 0.009168 0.597857
vt 0.030536 0.597857
vt 0.030536 0.996172
vt 0.009168 0.996172
vt 0.009168 0.597317
vt 0.030536 0.597317
vt 0.032040 0.597502
vt 0.032040 0.598493
vt 0.009168 0.577394
vt 0.030536 0.577394
vt 0.032040 0.596962
vt 0.032980 0.596915
vt 0.032594 0.597906
vt 0.032040 0.577394
vt 0.032980 0.596375
vt 0.032594 0.577394
vt 0.040377 0.603882
vt 0.061745 0.603882
vt 0.061745 0.976554
vt 0.040377 0.976554
vt 0.040377 0.579229
vt 0.061745 0.579229
vt 0.061745 0.977545
vt 0.040377 0.977545
vt 0.063249 0.976909
vt 0.063249 0.977900
vt 0.061745 0.978085
vt 0.040377 0.978085
vt 0.063804 0.977496
vt 0.064190 0.978487
vt 0.063249 0.978440
vt 0.061745 0.998008
vt 0.040377 0.998008
vt 0.064190 0.979027
vt 0.063249 0.998008
vt 0.063804 0.998008
vn 0.000000 0.000000 1.000000
vn 0.000000 0.000000 1.000000
vn 0.000000 0.000000 1.000000
vn 0.000000 0.000000 1.000000
vn 0.000000 1.000000 0.000000
vn 0.000000 1.000000 0.000000
vn 0.000000 1.000000 0.000000
vn 0.000000 1.000000 0.000000
vn 0.000000 0.000000 -1.000000
vn 0.000000 0.000000 -1.000000
vn 0.000000 0.000000 -1.000000
vn 0.000000 0.000000 -1.000000
vn 0.000000 -1.000000 0.000000
vn 0.000000 -1.000000 0.000000
vn 0.000000 -1.000000 0.000000
vn 0.000000 -1.000000 0.000000
vn 1.000000 0.000000 0.000000
vn 1.000000 0.000000 0.000000
vn 1.000000 0.000000 0.000000
vn 1.000000 0.000000 0.000000
vn -1.000000 0.000000 0.000000
vn -1.000000 0.000000 0.000000
vn -1.000000 0.000000 0.000000
vn -1.000000 0.000000 0.000000
vn 0.000000 0.000000 -1.000000
vn 0.000000 0.000000 -1.000000
vn 0.000000 0.000000 -1.000000
vn 0.000000 0.000000 -1.000000
vn 0.931757 0.363082 0.000000
vn 0.931757 0.363082 0.000000
vn 0.969640 0.244536 0.000000
vn 0.969640 0.244536 0.000000
vn 0.000000 0.000000 1.000000
vn 0.000000 0.000000 1.000000
vn 0.000000 0.000000 1.000000
vn 0.000000 0.000000 1.000000
vn -1.000000 0.000000 0.000000
vn -1.000000 0.000000 0.000000
vn -1.000000 0.000000 0.000000
vn -1.000000 0.000000 0.000000
vn 0.229850 0.973226 0.000000
vn 0.229850 0.973226 0.000000
vn 0.229850 0.973226 0.000000
vn 0.229850 0.973226 0.000000
vn 0.000083 0.000000 1.000000
vn 0.000059 0.000000 1.000000
vn 0.000048 0.000000 1.000000
vn 0.000083 0.000000 1.000000
vn 0.000000 -1.000000 0.000000
vn 0.000000 -1.000000 0.000000
vn 0.000000 -1.000000 0.000000
vn 0.000000 -1.000000 0.000000
vn 0.000000 0.000000 -1.000000
vn 0.000000 0.000000 -1.000000
vn 0.000000 0.000000 -1.000000
vn 0.000000 0.000000 -1.000000
vn 0.727239 0.686384 0.000000
vn 0.727239 0.686384 0.000000
vn 0.727239 0.686384 0.000000
vn 0.727239 0.686384 0.000000
vn -0.000099 0.000000 1.000000
vn -0.000071 0.000000 1.000000
vn -0.000027 0.000000 1.000000
vn -0.000099 0.000000 1.000000
vn 0.000000 -1.000000 0.000000
vn 0.000000 -1.000000 0.000000
vn 0.000000 -1.000000 0.000000
vn 0.000000 -1.000000 0.000000
vn 0.000000 0.000000 -1.000000
vn 0.000000 0.000000 -1.000000
vn 0.000000 0.000000 -1.000000
vn 0.000000 0.000000 -1.000000
vn 0.999804 -0.019773 0.000000
vn 0.999804 -0.019773 0.000000
vn 0.000000 0.000000 -1.000000
vn 0.000000 0.000000 -1.000000
vn 0.000000 0.000000 -1.000000
vn 0.000000 0.000000 -1.000000
vn 0.000000 0.000000 -1.000000
vn 0.000000 0.000000 -1.000000
vn -1.000000 0.000000 0.000000
vn -1.000000 0.000000 0.000000
vn 0.000000 0.000000 1.000000
vn 0.000000 0.000000 1.000000
vn 0.000000 0.000000 1.000000
vn 0.000000 0.000000 1.000000
vn 0.000000 0.000000 1.000000
vn 0.000000 0.000000 1.000000
vn 0.999793 -0.020336 0.000000
vn 0.999793 -0.020336 0.000000
vn 0.000000 0.000000 -1.000000
vn 0.000000 0.000000 -1.000000
vn 0.000000 0.000000 -1.000000
vn 0.000000 0.000000 -1.000000
vn 0.000000 0.000000 -1.000000
vn 0.000000 0.000000 -1.000000
vn -1.000000 0.000000 0.000000
vn -1.000000 0.000000 0.000000
vn 0.000000 0.000000 1.000000
vn 0.000000 0.000000 1.000000
vn 0.000000 0.000000 1.000000
vn 0.000000 0.000000 1.000000
vn 0.000000 0.000000 1.000000
vn 0.000000 0.000000 1.000000
vn 0.000000 0.000000 1.000000
vn 0.000000 0.000000 1.000000
vn 0.000000 0.000000 1.000000
vn 0.000000 0.000000 1.000000
vn 1.000000 0.000000 0.000000
vn 1.000000 0.000000 0.000000
vn 1.000000 0.000000 0.000000
vn 1.000000 0.000000 0.000000
vn 0.000000 0.000000 -1.000000
vn 0.000000 0.000000 -1.000000
vn 0.000000 0.000000 -1.000000
vn 0.000000 0.000000 -1.000000
vn -1.000000 0.000000 0.000000
vn -1.000000 0.000000 0.000000
vn -1.000000 0.000000 0.000000
vn -1.000000 0.000000 0.000000
s off
g pCube1100
usemtl initialShadingGroup
f 1/45/1 2/46/2 4/47/3 3/48/4
usemtl lambert18SG
f 37/29/5 38/30/6 39/31/7 40/32/8
usemtl initialShadingGroup
f 5/65/9 6/66/10 8/67/11 7/68/12
f 9/33/13 10/34/14 11/35/15 12/36/16
f 2/1/17 8/2/18 6/3/19 4/4/20
f 7/7/21 1/8/22 3/9/23 5/10/24
s 1
f 7/68/25 8/67/26 24/71/27 25/72/28
s 2
f 17/19/29 18/20/30 21/21/31 22/22/32
s 3
f 2/46/33 1/45/34 26/49/35 27/50/36
s 4
f 1/8/37 7/7/38 25/11/39 26/12/40
s off
f 8/41/41 2/42/42 14/43/43 13/44/44
s 5
f 2/46/45 27/50/46 28/55/47 14/56/48
s off
f 11/35/49 10/34/50 16/37/51 15/38/52
s 6
f 24/71/53 8/67/54 13/73/55 23/74/56
s off
f 13/23/57 14/24/58 18/20/59 17/19/60
s 7
f 14/56/61 28/55/62 21/60/63 18/61/64
s off
f 15/38/65 16/37/66 20/39/67 19/40/68
s 8
f 23/74/69 13/73/70 17/77/71 22/78/72
s 2
f 22/22/32 21/21/31 29/25/73 30/26/74
s 8
f 31/79/75 23/74/69 22/78/72 30/82/76
s 6
f 32/75/77 24/71/53 23/74/56 31/79/78
s 1
f 25/72/28 24/71/27 32/75/79 33/76/80
s 4
f 26/12/40 25/11/39 33/15/81 34/16/82
s 3
f 27/50/36 26/49/35 34/53/83 35/54/84
s 5
f 28/55/47 27/50/46 35/54/85 36/59/86
s 7
f 21/60/63 28/55/62 36/59/87 29/63/88
s 2
f 30/26/74 29/25/73 19/27/89 20/28/90
s 8
f 16/83/91 31/79/75 30/82/76 20/84/92
s 6
f 10/80/93 32/75/77 31/79/78 16/83/94
s 1
f 33/76/80 32/75/79 10/80/95 9/81/96
s 4
f 34/16/82 33/15/81 9/17/97 12/18/98
s 3
f 35/54/84 34/53/83 12/57/99 11/58/100
s 5
f 36/59/86 35/54/85 11/58/101 15/62/102
s 7
f 29/63/88 36/59/87 15/62/103 19/64/104
s off
usemtl lambert18SG
f 3/48/105 4/47/106 38/51/107 37/52/108
f 4/4/109 6/3/110 39/5/111 38/6/112
f 6/66/113 5/65/114 40/69/115 39/70/116
f 5/10/117 3/9/118 37/13/119 40/14/120
