# This file uses meters as units for non-parametric coordinates.

mtllib uv_Modular_Wall_1m.mtl
g default
v -908.278203 15.335732 299.788450
v -893.278203 15.335732 299.788450
v -908.278203 276.942444 299.788450
v -893.278203 276.942444 299.788450
v -908.278203 276.942444 199.788450
v -893.278203 276.942444 199.788450
v -908.278203 15.335732 199.788450
v -893.278203 15.335732 199.788450
v -908.278203 0.275322 199.788450
v -893.278203 0.275322 199.788450
v -893.278203 0.275322 299.788450
v -908.278203 0.275322 299.788450
v -892.222417 15.086384 199.788450
v -892.222417 15.086384 299.788450
v -892.222417 0.275322 299.788450
v -892.222417 0.275322 199.788450
v -891.833379 14.674164 199.788450
v -891.833379 14.674164 299.788450
v -891.833379 0.275322 299.788450
v -891.833379 0.275322 199.788450
v -891.562322 13.978672 299.788450
v -891.562322 13.978672 199.788450
v -892.222417 14.390892 199.788450
v -893.278203 14.640240 199.788450
v -908.278203 14.640240 199.788450
v -908.278203 14.640240 299.788450
v -893.278203 14.640240 299.788450
v -892.222417 14.390892 299.788450
v -891.562322 13.599525 299.788450
v -891.562322 13.599525 199.788450
v -892.222417 14.011745 199.788450
v -893.278203 14.261093 199.788450
v -908.278203 14.261093 199.788450
v -908.278203 14.261093 299.788450
v -893.278203 14.261093 299.788450
v -892.222417 14.011745 299.788450
v -908.278203 294.248230 299.788450
v -893.278203 294.248230 299.788450
v -893.278203 294.248230 199.788450
v -908.278203 294.248230 199.788450
vt 0.502962 0.002839
vt 0.916198 0.002839
vt 0.916198 0.543365
vt 0.502962 0.543365
vt 0.916198 0.579122
vt 0.502962 0.579122
vt 0.083509 0.033956
vt 0.496745 0.033956
vt 0.496745 0.574483
vt 0.083509 0.574483
vt 0.083509 0.032519
vt 0.496745 0.032519
vt 0.496745 0.610240
vt 0.083509 0.610240
vt 0.083509 0.031736
vt 0.496745 0.031736
vt 0.083509 0.002839
vt 0.496745 0.002839
vt 0.610664 0.584772
vt 0.610664 0.998008
vt 0.609227 0.998008
vt 0.609227 0.584772
vt 0.611516 0.584772
vt 0.611516 0.998008
vt 0.608443 0.998008
vt 0.608443 0.584772
vt 0.580913 0.998008
vt 0.580913 0.584772
vt 0.502962 0.584772
vt 0.533955 0.584772
vt 0.533955 0.998008
vt 0.502962 0.998008
vt 0.540082 0.584772
vt 0.571074 0.584772
vt 0.571074 0.998008
vt 0.540082 0.998008
vt 0.573256 0.584772
vt 0.573256 0.998008
vt 0.574059 0.584772
vt 0.574059 0.998008
vt 0.922415 0.415228
vt 0.922415 0.001992
vt 0.924596 0.001992
vt 0.924596 0.415228
vt 0.001846 0.033956
vt 0.032838 0.033956
vt 0.032838 0.574483
vt 0.001846 0.574483
vt 0.001846 0.032519
vt 0.032838 0.032519
vt 0.032838 0.610240
vt 0.001846 0.610240
vt 0.001846 0.031736
vt 0.032838 0.031736
vt 0.035020 0.032004
vt 0.035020 0.033441
vt 0.001846 0.002839
vt 0.032838 0.002839
vt 0.035020 0.031221
vt 0.036383 0.031152
vt 0.035823 0.032589
vt 0.035020 0.002839
vt 0.036383 0.030369
vt 0.035823 0.002839
vt 0.042677 0.038596
vt 0.073670 0.038596
vt 0.073670 0.579122
vt 0.042677 0.579122
vt 0.042677 0.002839
vt 0.073670 0.002839
vt 0.073670 0.580559
vt 0.042677 0.580559
vt 0.075851 0.579638
vt 0.075851 0.581075
vt 0.073670 0.581343
vt 0.042677 0.581343
vt 0.076655 0.580489
vt 0.077215 0.581926
vt 0.075851 0.581858
vt 0.073670 0.610240
vt 0.042677 0.610240
vt 0.077215 0.582710
vt 0.075851 0.610240
vt 0.076655 0.610240
vn 0.000000 0.000000 1.000000
vn 0.000000 0.000000 1.000000
vn 0.000000 0.000000 1.000000
vn 0.000000 0.000000 1.000000
vn 0.000000 1.000000 0.000000
vn 0.000000 1.000000 0.000000
vn 0.000000 1.000000 0.000000
vn 0.000000 1.000000 0.000000
vn 0.000000 0.000000 -1.000000
vn 0.000000 0.000000 -1.000000
vn 0.000000 0.000000 -1.000000
vn 0.000000 0.000000 -1.000000
vn 0.000000 -1.000000 0.000000
vn 0.000000 -1.000000 0.000000
vn 0.000000 -1.000000 0.000000
vn 0.000000 -1.000000 0.000000
vn 1.000000 0.000000 0.000000
vn 1.000000 0.000000 0.000000
vn 1.000000 0.000000 0.000000
vn 1.000000 0.000000 0.000000
vn -1.000000 0.000000 0.000000
vn -1.000000 0.000000 0.000000
vn -1.000000 0.000000 0.000000
vn -1.000000 0.000000 0.000000
vn 0.000000 0.000000 -1.000000
vn 0.000000 0.000000 -1.000000
vn 0.000000 0.000000 -1.000000
vn 0.000000 0.000000 -1.000000
vn 0.931722 0.363173 0.000000
vn 0.931722 0.363173 0.000000
vn 0.969624 0.244602 0.000000
vn 0.969624 0.244602 0.000000
vn 0.000000 0.000000 1.000000
vn 0.000000 0.000000 1.000000
vn 0.000000 0.000000 1.000000
vn 0.000000 0.000000 1.000000
vn -1.000000 0.000000 0.000000
vn -1.000000 0.000000 0.000000
vn -1.000000 0.000000 0.000000
vn -1.000000 0.000000 0.000000
vn 0.229834 0.973230 0.000000
vn 0.229834 0.973230 0.000000
vn 0.229834 0.973230 0.000000
vn 0.229834 0.973230 0.000000
vn 0.000010 0.000000 1.000000
vn 0.000007 0.000000 1.000000
vn 0.000006 0.000000 1.000000
vn 0.000010 0.000000 1.000000
vn 0.000000 -1.000000 0.000000
vn 0.000000 -1.000000 0.000000
vn 0.000000 -1.000000 0.000000
vn 0.000000 -1.000000 0.000000
vn 0.000000 0.000000 -1.000000
vn 0.000000 0.000000 -1.000000
vn 0.000000 0.000000 -1.000000
vn 0.000000 0.000000 -1.000000
vn 0.727308 0.686312 0.000000
vn 0.727308 0.686312 0.000000
vn 0.727308 0.686312 0.000000
vn 0.727308 0.686312 0.000000
vn 0.000025 0.000000 1.000000
vn 0.000018 0.000000 1.000000
vn 0.000007 0.000000 1.000000
vn 0.000025 0.000000 1.000000
vn 0.000000 -1.000000 0.000000
vn 0.000000 -1.000000 0.000000
vn 0.000000 -1.000000 0.000000
vn 0.000000 -1.000000 0.000000
vn 0.000000 0.000000 -1.000000
vn 0.000000 0.000000 -1.000000
vn 0.000000 0.000000 -1.000000
vn 0.000000 0.000000 -1.000000
vn 0.999804 -0.019779 0.000000
vn 0.999804 -0.019779 0.000000
vn 0.000000 0.000000 -1.000000
vn 0.000000 0.000000 -1.000000
vn 0.000000 0.000000 -1.000000
vn 0.000000 0.000000 -1.000000
vn 0.000000 0.000000 -1.000000
vn 0.000000 0.000000 -1.000000
vn -1.000000 0.000000 0.000000
vn -1.000000 0.000000 0.000000
vn 0.000000 0.000000 1.000000
vn 0.000000 0.000000 1.000000
vn -0.000032 0.000000 1.000000
vn -0.000033 0.000000 1.000000
vn 0.000000 0.000000 1.000000
vn 0.000000 0.000000 1.000000
vn 0.999793 -0.020342 0.000000
vn 0.999793 -0.020342 0.000000
vn 0.000000 0.000000 -1.000000
vn 0.000000 0.000000 -1.000000
vn 0.000000 0.000000 -1.000000
vn 0.000000 0.000000 -1.000000
vn 0.000000 0.000000 -1.000000
vn 0.000000 0.000000 -1.000000
vn -1.000000 0.000000 0.000000
vn -1.000000 0.000000 0.000000
vn 0.000000 0.000000 1.000000
vn 0.000000 0.000000 1.000000
vn -0.000033 0.000000 1.000000
vn -0.000033 0.000000 1.000000
vn 0.000000 0.000000 1.000000
vn 0.000000 0.000000 1.000000
vn 0.000000 0.000000 1.000000
vn 0.000000 0.000000 1.000000
vn 0.000000 0.000000 1.000000
vn 0.000000 0.000000 1.000000
vn 1.000000 0.000000 0.000000
vn 1.000000 0.000000 0.000000
vn 1.000000 0.000000 0.000000
vn 1.000000 0.000000 0.000000
vn 0.000000 0.000000 -1.000000
vn 0.000000 0.000000 -1.000000
vn 0.000000 0.000000 -1.000000
vn 0.000000 0.000000 -1.000000
vn -1.000000 0.000000 0.000000
vn -1.000000 0.000000 0.000000
vn -1.000000 0.000000 0.000000
vn -1.000000 0.000000 0.000000
s off
g pCube1150
usemtl initialShadingGroup
f 1/45/1 2/46/2 4/47/3 3/48/4
usemtl lambert17SG
f 37/29/5 38/30/6 39/31/7 40/32/8
usemtl initialShadingGroup
f 5/65/9 6/66/10 8/67/11 7/68/12
f 9/33/13 10/34/14 11/35/15 12/36/16
f 2/1/17 8/2/18 6/3/19 4/4/20
f 7/7/21 1/8/22 3/9/23 5/10/24
s 1
f 7/68/25 8/67/26 24/71/27 25/72/28
s 2
f 17/19/29 18/20/30 21/21/31 22/22/32
s 3
f 2/46/33 1/45/34 26/49/35 27/50/36
s 4
f 1/8/37 7/7/38 25/11/39 26/12/40
s off
f 8/41/41 2/42/42 14/43/43 13/44/44
s 5
f 2/46/45 27/50/46 28/55/47 14/56/48
s off
f 11/35/49 10/34/50 16/37/51 15/38/52
s 6
f 24/71/53 8/67/54 13/73/55 23/74/56
s off
f 13/23/57 14/24/58 18/20/59 17/19/60
s 7
f 14/56/61 28/55/62 21/60/63 18/61/64
s off
f 15/38/65 16/37/66 20/39/67 19/40/68
s 8
f 23/74/69 13/73/70 17/77/71 22/78/72
s 2
f 22/22/32 21/21/31 29/25/73 30/26/74
s 8
f 31/79/75 23/74/69 22/78/72 30/82/76
s 6
f 32/75/77 24/71/53 23/74/56 31/79/78
s 1
f 25/72/28 24/71/27 32/75/79 33/76/80
s 4
f 26/12/40 25/11/39 33/15/81 34/16/82
s 3
f 27/50/36 26/49/35 34/53/83 35/54/84
s 5
f 28/55/47 27/50/46 35/54/85 36/59/86
s 7
f 21/60/63 28/55/62 36/59/87 29/63/88
s 2
f 30/26/74 29/25/73 19/27/89 20/28/90
s 8
f 16/83/91 31/79/75 30/82/76 20/84/92
s 6
f 10/80/93 32/75/77 31/79/78 16/83/94
s 1
f 33/76/80 32/75/79 10/80/95 9/81/96
s 4
f 34/16/82 33/15/81 9/17/97 12/18/98
s 3
f 35/54/84 34/53/83 12/57/99 11/58/100
s 5
f 36/59/86 35/54/85 11/58/101 15/62/102
s 7
f 29/63/88 36/59/87 15/62/103 19/64/104
s off
usemtl lambert17SG
f 3/48/105 4/47/106 38/51/107 37/52/108
f 4/4/109 6/3/110 39/5/111 38/6/112
f 6/66/113 5/65/114 40/69/115 39/70/116
f 5/10/117 3/9/118 37/13/119 40/14/120
