# This file uses meters as units for non-parametric coordinates.

mtllib Obj_Modular_Wall_Corner.mtl
g default
v -906.825623 15.335732 -1067.006829
v -906.825623 276.948212 -1067.006829
v -891.839661 276.948212 -1067.006829
v -906.825623 276.948212 -1082.006827
v -891.839661 276.948212 -1082.006827
v -906.825623 15.335732 -1082.006827
v -906.825623 0.275322 -1082.006827
v -906.825623 0.275322 -1067.006829
v -906.825623 14.640240 -1082.006827
v -906.825623 14.640240 -1067.006829
v -906.825623 14.261093 -1082.006827
v -906.825623 14.261093 -1067.006829
v -891.839661 15.335732 -1067.006829
v -891.839661 14.640240 -1067.006829
v -891.839661 14.261093 -1067.006829
v -891.839661 0.275322 -1067.006829
v -891.839661 0.275322 -1082.006825
v -891.839661 15.335732 -1082.006825
v -899.332581 15.335732 -1082.006827
v -899.332581 0.275322 -1082.006827
v -899.332581 0.275322 -1067.006829
v -899.332581 14.261093 -1067.006829
v -899.332581 14.640240 -1067.006829
v -899.332581 15.335732 -1067.006829
v -899.332581 276.948212 -1067.006829
v -899.332581 276.948212 -1082.006827
v -906.825623 294.248230 -1067.006829
v -899.332581 294.248230 -1067.006829
v -899.332581 294.248230 -1082.006827
v -906.825623 294.248230 -1082.006827
v -891.839661 294.248230 -1067.006829
v -891.839661 294.248230 -1082.006827
v -891.832703 15.335732 -1082.006852
v -906.832703 15.335732 -1082.006852
v -906.832703 0.275322 -1082.006852
v -891.832703 0.275322 -1082.006852
v -906.832703 15.086384 -1083.061600
v -891.832703 15.086384 -1083.061600
v -891.832703 0.275322 -1083.061600
v -906.832703 0.275322 -1083.061600
v -906.832703 14.674164 -1083.450272
v -891.832703 14.674164 -1083.450272
v -891.832703 0.275322 -1083.450272
v -906.832703 0.275322 -1083.450272
v -891.832703 13.978672 -1083.721085
v -906.832703 13.978672 -1083.721085
v -906.832703 14.390892 -1083.061600
v -906.832703 14.640240 -1082.006852
v -891.832703 13.599525 -1083.721085
v -906.832703 13.599525 -1083.721085
v -906.832703 14.011745 -1083.061600
v -906.832703 14.261093 -1082.006852
v -891.839783 15.335732 -1067.006821
v -891.839783 15.335732 -1082.006819
v -891.839783 0.275322 -1082.006819
v -891.839783 0.275322 -1067.006821
v -890.785095 15.086384 -1082.006819
v -890.785095 15.086384 -1067.006821
v -890.785095 0.275322 -1067.006821
v -890.785095 0.275322 -1082.006819
v -890.396423 14.674164 -1082.006819
v -890.396423 14.674164 -1067.006821
v -890.396423 0.275322 -1067.006821
v -890.396423 0.275322 -1082.006819
v -890.125671 13.978672 -1067.006821
v -890.125671 13.978672 -1082.006819
v -891.839783 14.640240 -1067.006821
v -890.785095 14.390892 -1067.006821
v -890.125671 13.599525 -1067.006821
v -890.125671 13.599525 -1082.006819
v -891.839783 14.261093 -1067.006821
v -890.785095 14.011745 -1067.006821
vt 0.375000 0.000000
vt 0.625000 0.000000
vt 0.625000 0.250000
vt 0.375000 0.250000
vt 0.625000 0.500000
vt 0.375000 0.500000
vt 0.625000 0.750000
vt 0.375000 0.750000
vt 0.375000 0.750000
vt 0.625000 0.750000
vt 0.625000 1.000000
vt 0.375000 1.000000
vt 0.625000 0.000000
vt 0.875000 0.000000
vt 0.875000 0.250000
vt 0.125000 0.000000
vt 0.125000 0.250000
vt 0.375000 0.750000
vt 0.625000 1.000000
vt 0.375000 1.000000
vt 0.375000 1.000000
vt 0.625000 1.000000
vt 0.375000 0.750000
vt 0.375000 1.000000
vt 0.625000 1.000000
vt 0.500000 0.750000
vt 0.500000 0.750000
vt 0.500000 1.000000
vt 0.500000 1.000000
vt 0.500000 1.000000
vt 0.500000 0.000000
vt 0.500000 1.000000
vt 0.500000 0.250000
vt 0.500000 0.500000
vt 0.375000 0.250000
vt 0.500000 0.250000
vt 0.500000 0.500000
vt 0.375000 0.500000
vt 0.625000 0.250000
vt 0.625000 0.500000
vt 0.625000 0.750000
vt 0.625000 1.000000
vt 0.625000 1.000000
vt 0.625000 0.750000
vt 0.625000 0.750000
vt 0.625000 1.000000
vt 0.625000 1.000000
vt 0.625000 0.750000
vt 0.625000 1.000000
vt 0.625000 0.750000
vt 0.625000 0.750000
vt 0.625000 1.000000
vt 0.625000 0.750000
vt 0.625000 0.750000
vt 0.625000 0.750000
vt 0.625000 1.000000
vt 0.625000 1.000000
vt 0.625000 0.750000
vt 0.625000 0.750000
vt 0.625000 0.750000
vt 0.625000 0.750000
vt 0.625000 1.000000
vt 0.625000 1.000000
vt 0.625000 0.750000
vt 0.625000 0.750000
vt 0.625000 1.000000
vt 0.625000 1.000000
vt 0.625000 0.750000
vt 0.625000 1.000000
vt 0.625000 1.000000
vt 0.625000 1.000000
vt 0.625000 0.750000
vt 0.625000 0.750000
vt 0.625000 1.000000
vt 0.625000 0.750000
vt 0.625000 1.000000
vt 0.625000 1.000000
vt 0.625000 0.750000
vt 0.625000 1.000000
vt 0.625000 1.000000
vn 0.000000 0.000000 1.000000
vn 0.000000 0.000000 1.000000
vn 0.000000 0.000000 1.000000
vn 0.000000 0.000000 1.000000
vn 0.000000 1.000000 0.000000
vn 0.000000 1.000000 0.000000
vn 0.000000 1.000000 0.000000
vn 0.000000 1.000000 0.000000
vn 0.000000 0.000000 -1.000000
vn 0.000000 -0.000000 -1.000000
vn 0.000000 -0.000000 -1.000000
vn 0.000000 0.000000 -1.000000
vn 0.000000 -1.000000 0.000000
vn 0.000000 -1.000000 0.000000
vn 0.000000 -1.000000 0.000000
vn 0.000000 -1.000000 0.000000
vn 1.000000 0.000000 0.000000
vn 1.000000 0.000000 0.000000
vn 1.000000 0.000000 0.000000
vn 1.000000 0.000000 0.000000
vn -1.000000 0.000000 0.000000
vn -1.000000 0.000000 0.000000
vn -1.000000 0.000000 0.000000
vn -1.000000 0.000000 0.000000
vn 0.000000 0.000000 1.000000
vn 0.000000 0.000000 1.000000
vn 0.000000 0.000000 1.000000
vn 0.000000 0.000000 1.000000
vn -1.000000 0.000000 0.000000
vn -1.000000 0.000000 0.000000
vn -1.000000 0.000000 0.000000
vn -1.000000 0.000000 0.000000
vn -1.000000 0.000000 0.000000
vn -1.000000 0.000000 0.000000
vn 0.000000 0.000000 1.000000
vn 0.000000 0.000000 1.000000
vn -1.000000 0.000000 0.000000
vn -1.000000 0.000000 0.000000
vn 0.000000 0.000000 1.000000
vn 0.000000 0.000000 1.000000
vn 0.000000 -1.000000 0.000000
vn 0.000000 -1.000000 0.000000
vn 0.000000 0.000000 1.000000
vn 0.000000 0.000000 1.000000
vn 0.000000 0.000000 1.000000
vn 0.000000 0.000000 1.000000
vn 0.000000 0.000000 1.000000
vn 0.000000 0.000000 1.000000
vn 0.000000 1.000000 0.000000
vn 0.000000 1.000000 0.000000
vn 0.000000 -0.000000 -1.000000
vn 0.000000 -0.000000 -1.000000
vn 0.000000 0.000000 1.000000
vn 0.000000 0.000000 1.000000
vn 0.000000 0.000000 1.000000
vn 0.000000 0.000000 1.000000
vn 0.000000 0.000000 -1.000000
vn 0.000000 0.000000 -1.000000
vn 0.000000 0.000000 -1.000000
vn 0.000000 0.000000 -1.000000
vn -1.000000 0.000000 0.000000
vn -1.000000 0.000000 0.000000
vn -1.000000 0.000000 0.000000
vn -1.000000 0.000000 0.000000
vn 0.000000 0.000000 1.000000
vn 0.000000 0.000000 1.000000
vn 0.000000 0.000000 1.000000
vn 0.000000 0.000000 1.000000
vn 1.000000 0.000000 0.000000
vn 1.000000 0.000000 0.000000
vn 1.000000 0.000000 0.000000
vn 1.000000 0.000000 0.000000
vn 0.000000 0.000000 -1.000000
vn 0.000000 0.000000 -1.000000
vn 0.000000 0.000000 -1.000000
vn 0.000000 0.000000 -1.000000
vn 0.000000 0.362847 -0.931849
vn 0.000000 0.362847 -0.931849
vn 0.000000 0.244364 -0.969684
vn 0.000000 0.244364 -0.969684
vn 0.000000 0.973176 -0.230063
vn 0.000000 0.973176 -0.230063
vn 0.000000 0.973176 -0.230063
vn 0.000000 0.973176 -0.230063
vn 0.000000 -1.000000 0.000000
vn 0.000000 -1.000000 0.000000
vn 0.000000 -1.000000 0.000000
vn 0.000000 -1.000000 0.000000
vn -1.000000 0.000000 0.000000
vn -1.000000 0.000000 0.000000
vn -1.000000 0.000000 0.000000
vn -1.000000 0.000000 0.000000
vn 0.000000 0.686020 -0.727583
vn 0.000000 0.686020 -0.727583
vn 0.000000 0.686020 -0.727583
vn 0.000000 0.686020 -0.727583
vn 0.000000 -1.000000 0.000000
vn 0.000000 -1.000000 0.000000
vn 0.000000 -1.000000 0.000000
vn 0.000000 -1.000000 0.000000
vn -1.000000 0.000000 0.000000
vn -1.000000 0.000000 0.000000
vn -1.000000 0.000000 0.000000
vn -1.000000 0.000000 0.000000
vn 0.000000 -0.019759 -0.999805
vn 0.000000 -0.019759 -0.999805
vn -1.000000 0.000000 0.000000
vn -1.000000 0.000000 0.000000
vn -1.000000 0.000000 0.000000
vn -1.000000 0.000000 0.000000
vn 0.000000 -0.020321 -0.999794
vn 0.000000 -0.020321 -0.999794
vn -1.000000 0.000000 0.000000
vn -1.000000 0.000000 0.000000
vn -1.000000 0.000000 0.000000
vn -1.000000 0.000000 0.000000
vn 0.931899 0.362719 0.000000
vn 0.931899 0.362719 0.000000
vn 0.969707 0.244271 0.000000
vn 0.969707 0.244271 0.000000
vn 0.230076 0.973173 0.000000
vn 0.230076 0.973173 0.000000
vn 0.230076 0.973173 0.000000
vn 0.230076 0.973173 0.000000
vn 0.000000 0.000000 1.000000
vn 0.000000 0.000000 1.000000
vn 0.000000 0.000000 1.000000
vn 0.000000 0.000000 1.000000
vn 0.000000 -1.000000 0.000000
vn 0.000000 -1.000000 0.000000
vn 0.000000 -1.000000 0.000000
vn 0.000000 -1.000000 0.000000
vn 0.727583 0.686020 0.000000
vn 0.727583 0.686020 0.000000
vn 0.727583 0.686020 0.000000
vn 0.727583 0.686020 0.000000
vn -0.000000 0.000000 1.000000
vn -0.000000 0.000000 1.000000
vn -0.000000 0.000000 1.000000
vn -0.000000 0.000000 1.000000
vn 0.000000 -1.000000 0.000000
vn 0.000000 -1.000000 0.000000
vn 0.000000 -1.000000 0.000000
vn 0.000000 -1.000000 0.000000
vn 0.999805 -0.019751 0.000000
vn 0.999805 -0.019751 0.000000
vn 0.000000 0.000000 1.000000
vn 0.000000 0.000000 1.000000
vn -0.000000 0.000000 1.000000
vn -0.000000 0.000000 1.000000
vn 0.999794 -0.020312 0.000000
vn 0.999794 -0.020312 0.000000
vn 0.000000 0.000000 1.000000
vn 0.000000 0.000000 1.000000
vn -0.000000 0.000000 1.000000
vn -0.000000 0.000000 1.000000
vn 0.225743 0.948394 -0.222686
vn 0.225743 0.948394 -0.222686
vn 0.225743 0.948394 -0.222686
vn 0.225743 0.948394 -0.222686
vn 0.590064 0.554651 -0.586674
vn 0.590064 0.554651 -0.586674
vn 0.590064 0.554651 -0.586674
vn 0.590064 0.554651 -0.586674
vn 0.683290 0.265477 -0.680174
vn 0.683290 0.265477 -0.680174
vn 0.683290 0.265477 -0.680174
vn 0.683290 0.265477 -0.680174
vn 0.708601 0.000000 -0.705610
vn 0.708601 0.000000 -0.705610
vn 0.708601 0.000000 -0.705610
vn 0.708601 0.000000 -0.705610
vn 0.708649 -0.014372 -0.705415
vn 0.708648 -0.014372 -0.705415
vn 0.708649 -0.014372 -0.705415
vn 0.708649 -0.014372 -0.705415
vn 0.000000 -1.000000 0.000000
vn 0.000000 -1.000000 0.000000
vn 0.000000 -1.000000 0.000000
vn 0.000000 -1.000000 0.000000
vn 0.000000 -1.000000 0.000000
vn 0.000000 -1.000000 0.000000
vn 0.000000 -1.000000 0.000000
vn 0.000000 -1.000000 0.000000
s 1
g polySurfaceShape44
usemtl initialShadingGroup
f 1/1/1 24/31/2 25/33/3 2/4/4
s 2
usemtl lambert12SG
f 27/35/5 28/36/6 29/37/7 30/38/8
s 3
usemtl initialShadingGroup
f 4/6/9 26/34/10 19/26/11 6/8/12
s 4
f 7/9/13 20/27/14 21/28/15 8/12/16
s off
f 13/13/17 18/14/18 5/15/19 3/3/20
f 6/16/21 1/1/22 2/4/23 4/17/24
s 5
f 24/32/25 1/20/26 10/21/27 23/30/28
s 6
f 1/20/29 6/8/30 9/18/31 10/21/32
f 10/21/32 9/18/31 11/23/33 12/24/34
s 5
f 23/30/28 10/21/27 12/24/35 22/29/36
s 6
f 12/24/34 11/23/33 7/9/37 8/12/38
s 5
f 22/29/36 12/24/35 8/12/39 21/28/40
s 4
f 21/28/15 20/27/14 17/10/41 16/11/42
s 5
f 15/25/43 22/29/36 21/28/40 16/11/44
f 14/22/45 23/30/28 22/29/36 15/25/43
f 13/19/46 24/32/25 23/30/28 14/22/45
s 1
f 25/33/3 24/31/2 13/2/47 3/3/48
s 2
usemtl lambert12SG
f 29/37/7 28/36/6 31/39/49 32/40/50
s 3
usemtl initialShadingGroup
f 19/26/11 26/34/10 5/5/51 18/7/52
s off
f 2/4/53 25/33/54 28/36/55 27/35/56
usemtl lambert12SG
f 26/34/57 4/6/58 30/38/59 29/37/60
usemtl initialShadingGroup
f 4/6/61 2/4/62 27/35/63 30/38/64
f 25/33/65 3/3/66 31/39/67 28/36/68
usemtl lambert12SG
f 3/3/69 5/5/70 32/40/71 31/39/72
f 5/5/73 26/34/74 29/37/75 32/40/76
s 7
usemtl initialShadingGroup
f 41/41/77 42/42/78 45/43/79 46/44/80
s off
f 34/45/81 33/46/82 38/47/83 37/48/84
f 36/49/85 35/50/86 40/51/87 39/52/88
s 8
f 48/53/89 34/45/90 37/48/91 47/54/92
s off
f 37/48/93 38/47/94 42/42/95 41/41/96
f 39/52/97 40/51/98 44/55/99 43/56/100
s 9
f 47/54/101 37/48/102 41/41/103 46/44/104
s 7
f 46/44/80 45/43/79 49/57/105 50/58/106
s 9
f 51/59/107 47/54/101 46/44/104 50/58/108
s 8
f 52/60/109 48/53/89 47/54/92 51/59/110
s 7
f 50/58/106 49/57/105 43/56/111 44/55/112
s 9
f 40/51/113 51/59/107 50/58/108 44/55/114
s 8
f 35/50/115 52/60/109 51/59/110 40/51/116
s 10
f 61/61/117 62/62/118 65/63/119 66/64/120
s off
f 54/65/121 53/66/122 58/67/123 57/68/124
s 11
f 53/66/125 67/69/126 68/70/127 58/67/128
s off
f 56/71/129 55/72/130 60/73/131 59/74/132
f 57/68/133 58/67/134 62/62/135 61/61/136
s 12
f 58/67/137 68/70/138 65/63/139 62/62/140
s off
f 59/74/141 60/73/142 64/75/143 63/76/144
s 10
f 66/64/120 65/63/119 69/77/145 70/78/146
s 11
f 68/70/127 67/69/126 71/79/147 72/80/148
s 12
f 65/63/139 68/70/138 72/80/149 69/77/150
s 10
f 70/78/146 69/77/145 63/76/151 64/75/152
s 11
f 72/80/148 71/79/147 56/71/153 59/74/154
s 12
f 69/77/150 72/80/149 59/74/155 63/76/156
s off
f 38/47/157 33/46/158 54/65/159 57/68/160
f 42/42/161 38/47/162 57/68/163 61/61/164
f 45/43/165 42/42/166 61/61/167 66/64/168
f 49/57/169 45/43/170 66/64/171 70/78/172
f 43/56/173 49/57/174 70/78/175 64/75/176
f 39/52/177 43/56/178 64/75/179 60/73/180
f 36/49/181 39/52/182 60/73/183 55/72/184
