# This file uses meters as units for non-parametric coordinates.

mtllib Obj_Modular_Wall_1m.mtl
g default
v -908.277573 14.552811 299.788452
v -893.277573 14.552811 299.788452
v -908.277573 276.942450 299.788452
v -893.277573 276.942450 299.788452
v -908.277573 276.942450 199.788437
v -893.277573 276.942450 199.788437
v -908.277573 14.552811 199.788437
v -893.277573 14.552811 199.788437
v -908.277573 -0.507600 199.788437
v -893.277573 -0.507600 199.788437
v -893.277573 -0.507600 299.788452
v -908.277573 -0.507600 299.788452
v -892.221787 14.303463 199.788437
v -892.221787 14.303463 299.788452
v -892.221787 -0.507600 299.788452
v -892.221787 -0.507600 199.788437
v -891.832688 13.891243 199.788437
v -891.832688 13.891243 299.788452
v -891.832688 -0.507600 299.788452
v -891.832688 -0.507600 199.788437
v -891.561631 13.195752 299.788452
v -891.561631 13.195752 199.788437
v -892.221787 13.607972 199.788437
v -893.277573 13.857321 199.788437
v -908.277573 13.857321 199.788437
v -908.277573 13.857321 299.788452
v -893.277573 13.857321 299.788452
v -892.221787 13.607972 299.788452
v -891.561631 12.816607 299.788452
v -891.561631 12.816607 199.788437
v -892.221787 13.228825 199.788437
v -893.277573 13.478173 199.788437
v -908.277573 13.478173 199.788437
v -908.277573 13.478173 299.788452
v -893.277573 13.478173 299.788452
v -892.221787 13.228825 299.788452
v -893.277573 294.248236 299.788452
v -908.277573 294.248236 299.788452
v -893.277573 294.248236 199.788437
v -908.277573 294.248236 199.788437
vt 0.375000 0.000000
vt 0.625000 0.000000
vt 0.625000 0.250000
vt 0.375000 0.250000
vt 0.625000 0.500000
vt 0.375000 0.500000
vt 0.625000 0.750000
vt 0.375000 0.750000
vt 0.375000 0.750000
vt 0.625000 0.750000
vt 0.625000 1.000000
vt 0.375000 1.000000
vt 0.875000 0.000000
vt 0.875000 0.250000
vt 0.125000 0.000000
vt 0.125000 0.250000
vt 0.625000 0.750000
vt 0.375000 0.750000
vt 0.625000 0.750000
vt 0.625000 1.000000
vt 0.625000 1.000000
vt 0.625000 0.750000
vt 0.625000 1.000000
vt 0.375000 1.000000
vt 0.375000 1.000000
vt 0.625000 1.000000
vt 0.625000 1.000000
vt 0.625000 0.750000
vt 0.625000 1.000000
vt 0.625000 0.750000
vt 0.625000 1.000000
vt 0.625000 0.750000
vt 0.625000 0.750000
vt 0.625000 1.000000
vt 0.625000 1.000000
vt 0.625000 0.750000
vt 0.625000 0.750000
vt 0.625000 0.750000
vt 0.375000 0.750000
vt 0.375000 1.000000
vt 0.625000 1.000000
vt 0.625000 1.000000
vt 0.375000 0.250000
vt 0.625000 0.250000
vt 0.625000 0.500000
vt 0.375000 0.500000
vn 0.000000 0.000000 1.000000
vn 0.000000 0.000000 1.000000
vn 0.000000 0.000000 1.000000
vn 0.000000 0.000000 1.000000
vn 0.000000 1.000000 0.000000
vn 0.000000 1.000000 0.000000
vn 0.000000 1.000000 0.000000
vn 0.000000 1.000000 0.000000
vn 0.000000 0.000000 -1.000000
vn 0.000000 0.000000 -1.000000
vn 0.000000 0.000000 -1.000000
vn 0.000000 0.000000 -1.000000
vn 0.000000 -1.000000 0.000000
vn 0.000000 -1.000000 0.000000
vn 0.000000 -1.000000 0.000000
vn 0.000000 -1.000000 0.000000
vn 1.000000 0.000000 0.000000
vn 1.000000 0.000000 0.000000
vn 1.000000 0.000000 0.000000
vn 1.000000 0.000000 0.000000
vn -1.000000 0.000000 0.000000
vn -1.000000 0.000000 0.000000
vn -1.000000 0.000000 0.000000
vn -1.000000 0.000000 0.000000
vn 0.000000 0.000000 -1.000000
vn 0.000000 0.000000 -1.000000
vn 0.000000 0.000000 -1.000000
vn 0.000000 0.000000 -1.000000
vn 0.931732 0.363147 0.000000
vn 0.931732 0.363147 0.000000
vn 0.969628 0.244583 0.000000
vn 0.969628 0.244583 0.000000
vn 0.000000 0.000000 1.000000
vn 0.000000 0.000000 1.000000
vn 0.000000 0.000000 1.000000
vn 0.000000 0.000000 1.000000
vn -1.000000 0.000000 0.000000
vn -1.000000 0.000000 0.000000
vn -1.000000 0.000000 0.000000
vn -1.000000 0.000000 0.000000
vn 0.229849 0.973226 0.000000
vn 0.229849 0.973226 0.000000
vn 0.229849 0.973226 0.000000
vn 0.229849 0.973226 0.000000
vn 0.000000 0.000000 1.000000
vn 0.000000 0.000000 1.000000
vn 0.000000 0.000000 1.000000
vn 0.000000 0.000000 1.000000
vn 0.000000 -1.000000 0.000000
vn 0.000000 -1.000000 0.000000
vn 0.000000 -1.000000 0.000000
vn 0.000000 -1.000000 0.000000
vn 0.000000 0.000000 -1.000000
vn 0.000000 0.000000 -1.000000
vn 0.000000 0.000000 -1.000000
vn 0.000000 0.000000 -1.000000
vn 0.727250 0.686372 0.000000
vn 0.727250 0.686372 0.000000
vn 0.727250 0.686372 0.000000
vn 0.727250 0.686372 0.000000
vn 0.000000 0.000000 1.000000
vn 0.000000 0.000000 1.000000
vn 0.000000 0.000000 1.000000
vn 0.000000 0.000000 1.000000
vn 0.000000 -1.000000 0.000000
vn 0.000000 -1.000000 0.000000
vn 0.000000 -1.000000 0.000000
vn 0.000000 -1.000000 0.000000
vn 0.000000 0.000000 -1.000000
vn 0.000000 0.000000 -1.000000
vn 0.000000 0.000000 -1.000000
vn 0.000000 0.000000 -1.000000
vn 0.969628 0.244583 0.000000
vn 0.969628 0.244583 0.000000
vn 0.999804 -0.019777 0.000000
vn 0.999804 -0.019777 0.000000
vn 0.000008 0.000000 -1.000000
vn 0.000000 0.000000 -1.000000
vn 0.000000 0.000000 -1.000000
vn 0.000008 0.000000 -1.000000
vn -0.000004 0.000000 -1.000000
vn 0.000000 0.000000 -1.000000
vn 0.000000 0.000000 -1.000000
vn -0.000004 0.000000 -1.000000
vn 0.000000 0.000000 -1.000000
vn 0.000000 0.000000 -1.000000
vn 0.000000 0.000000 -1.000000
vn 0.000000 0.000000 -1.000000
vn -1.000000 0.000000 0.000000
vn -1.000000 0.000000 0.000000
vn -1.000000 0.000000 0.000000
vn -1.000000 0.000000 0.000000
vn 0.000000 0.000000 1.000000
vn 0.000000 0.000000 1.000000
vn 0.000000 0.000000 1.000000
vn 0.000000 0.000000 1.000000
vn 0.000000 0.000000 1.000000
vn 0.000000 0.000000 1.000000
vn -0.000004 0.000000 1.000000
vn -0.000004 0.000000 1.000000
vn 0.000000 0.000000 1.000000
vn 0.000000 0.000000 1.000000
vn 0.000008 0.000000 1.000000
vn 0.000008 0.000000 1.000000
vn 0.999804 -0.019777 0.000000
vn 0.999804 -0.019777 0.000000
vn 0.999793 -0.020340 0.000000
vn 0.999793 -0.020340 0.000000
vn 0.000009 0.000000 -1.000000
vn 0.000008 0.000000 -1.000000
vn 0.000008 0.000000 -1.000000
vn 0.000009 0.000000 -1.000000
vn -0.000004 0.000000 -1.000000
vn -0.000004 0.000000 -1.000000
vn -0.000004 0.000000 -1.000000
vn -0.000004 0.000000 -1.000000
vn 0.000000 0.000000 -1.000000
vn 0.000000 0.000000 -1.000000
vn 0.000000 0.000000 -1.000000
vn 0.000000 0.000000 -1.000000
vn -1.000000 0.000000 0.000000
vn -1.000000 0.000000 0.000000
vn -1.000000 0.000000 0.000000
vn -1.000000 0.000000 0.000000
vn 0.000000 0.000000 1.000000
vn 0.000000 0.000000 1.000000
vn 0.000000 0.000000 1.000000
vn 0.000000 0.000000 1.000000
vn -0.000004 0.000000 1.000000
vn -0.000004 0.000000 1.000000
vn -0.000004 0.000000 1.000000
vn -0.000004 0.000000 1.000000
vn 0.000008 0.000000 1.000000
vn 0.000008 0.000000 1.000000
vn 0.000009 0.000000 1.000000
vn 0.000009 0.000000 1.000000
vn 0.000000 0.000000 1.000000
vn 0.000000 0.000000 1.000000
vn 0.000000 1.000000 0.000000
vn 0.000000 1.000000 0.000000
vn 1.000000 0.000000 0.000000
vn 1.000000 0.000000 0.000000
vn 0.000000 1.000000 0.000000
vn 0.000000 1.000000 0.000000
vn 0.000000 0.000000 -1.000000
vn 0.000000 0.000000 -1.000000
vn 0.000000 1.000000 0.000000
vn 0.000000 1.000000 0.000000
vn -1.000000 0.000000 0.000000
vn -1.000000 0.000000 0.000000
vn 0.000000 1.000000 0.000000
vn 0.000000 1.000000 0.000000
s off
g pCube1102
usemtl Obj_Wall_Flat_1m:initialShadingGroup
f 1/1/1 2/2/2 4/3/3 3/4/4
usemtl lambert16SG
f 38/43/5 37/44/6 39/45/7 40/46/8
usemtl Obj_Wall_Flat_1m:initialShadingGroup
f 5/6/9 6/5/10 8/7/11 7/8/12
f 9/9/13 10/10/14 11/11/15 12/12/16
f 2/2/17 8/13/18 6/14/19 4/3/20
f 7/15/21 1/1/22 3/4/23 5/16/24
f 7/8/25 8/7/26 24/17/27 25/18/28
f 17/19/29 18/20/30 21/21/31 22/22/32
f 2/23/33 1/24/34 26/25/35 27/26/36
f 1/24/37 7/8/38 25/18/39 26/25/40
f 8/7/41 2/23/42 14/27/43 13/28/44
f 2/23/45 27/26/46 28/29/47 14/27/48
f 11/11/49 10/10/50 16/30/51 15/31/52
f 24/17/53 8/7/54 13/28/55 23/32/56
f 13/28/57 14/27/58 18/20/59 17/19/60
f 14/27/61 28/29/62 21/21/63 18/20/64
f 15/31/65 16/30/66 20/33/67 19/34/68
f 23/32/69 13/28/70 17/19/71 22/22/72
f 22/22/73 21/21/74 29/35/75 30/36/76
f 31/37/77 23/32/78 22/22/79 30/36/80
f 32/38/81 24/17/82 23/32/83 31/37/84
f 25/18/85 24/17/86 32/38/87 33/39/88
f 26/25/89 25/18/90 33/39/91 34/40/92
f 27/26/93 26/25/94 34/40/95 35/41/96
f 28/29/97 27/26/98 35/41/99 36/42/100
f 21/21/101 28/29/102 36/42/103 29/35/104
f 30/36/105 29/35/106 19/34/107 20/33/108
f 16/30/109 31/37/110 30/36/111 20/33/112
f 10/10/113 32/38/114 31/37/115 16/30/116
f 33/39/117 32/38/118 10/10/119 9/9/120
f 34/40/121 33/39/122 9/9/123 12/12/124
f 35/41/125 34/40/126 12/12/127 11/11/128
f 36/42/129 35/41/130 11/11/131 15/31/132
f 29/35/133 36/42/134 15/31/135 19/34/136
usemtl lambert16SG
f 3/4/137 4/3/138 37/44/139 38/43/140
f 4/3/141 6/5/142 39/45/143 37/44/144
f 6/5/145 5/6/146 40/46/147 39/45/148
f 5/6/149 3/4/150 38/43/151 40/46/152
