# This file uses meters as units for non-parametric coordinates.

mtllib Obj_Armario_LowPoly.mtl
g default
v -44.547503 0.184555 -103.050531
v 1.106229 0.184555 -103.050531
v -44.547503 138.184555 -103.050531
v 1.106229 138.184555 -103.050531
v -44.547503 138.184555 -234.935083
v 1.106229 138.184555 -234.935083
v -44.547503 0.184555 -234.935083
v 1.106229 0.184555 -234.935083
v -44.547503 20.010705 -231.252024
v -44.547503 20.010705 -106.733591
v -44.547503 132.351636 -106.733591
v -44.547503 132.351636 -231.252024
v -4.948821 20.010705 -231.252024
v -4.948821 20.010705 -106.733591
v -4.948821 132.351636 -106.733591
v -4.948821 132.351636 -231.252024
vt 0.375000 0.000000
vt 0.625000 0.000000
vt 0.375000 0.250000
vt 0.625000 0.250000
vt 0.375000 0.500000
vt 0.625000 0.500000
vt 0.375000 0.750000
vt 0.625000 0.750000
vt 0.375000 1.000000
vt 0.625000 1.000000
vt 0.875000 0.000000
vt 0.875000 0.250000
vt 0.125000 0.000000
vt 0.125000 0.250000
vt 0.125000 0.000000
vt 0.375000 0.000000
vt 0.375000 0.250000
vt 0.125000 0.250000
vt 0.125000 0.000000
vt 0.375000 0.000000
vt 0.375000 0.250000
vt 0.125000 0.250000
vn 0.000000 0.000000 1.000000
vn 0.000000 0.000000 1.000000
vn 0.000000 0.000000 1.000000
vn 0.000000 0.000000 1.000000
vn 0.000000 1.000000 0.000000
vn 0.000000 1.000000 0.000000
vn 0.000000 1.000000 0.000000
vn 0.000000 1.000000 0.000000
vn 0.000000 0.000000 -1.000000
vn 0.000000 0.000000 -1.000000
vn 0.000000 0.000000 -1.000000
vn 0.000000 0.000000 -1.000000
vn 0.000000 -1.000000 0.000000
vn 0.000000 -1.000000 0.000000
vn 0.000000 -1.000000 0.000000
vn 0.000000 -1.000000 0.000000
vn 1.000000 0.000000 0.000000
vn 1.000000 0.000000 0.000000
vn 1.000000 0.000000 0.000000
vn 1.000000 0.000000 0.000000
vn -1.000000 0.000000 0.000000
vn -1.000000 0.000000 0.000000
vn -1.000000 0.000000 0.000000
vn -1.000000 0.000000 0.000000
vn -1.000000 -0.000000 0.000000
vn -1.000000 -0.000000 0.000000
vn -1.000000 -0.000000 0.000000
vn -1.000000 -0.000000 0.000000
vn -1.000000 0.000000 0.000000
vn -1.000000 0.000000 0.000000
vn -1.000000 0.000000 0.000000
vn -1.000000 0.000000 0.000000
vn -1.000000 0.000000 0.000000
vn -1.000000 0.000000 0.000000
vn -1.000000 0.000000 0.000000
vn -1.000000 0.000000 0.000000
vn -1.000000 0.000000 0.000000
vn -1.000000 0.000000 0.000000
vn -1.000000 0.000000 0.000000
vn -1.000000 0.000000 0.000000
vn 0.000000 1.000000 0.000000
vn 0.000000 1.000000 0.000000
vn 0.000000 1.000000 0.000000
vn 0.000000 1.000000 0.000000
vn 0.000000 0.000000 -1.000000
vn 0.000000 0.000000 -1.000000
vn 0.000000 0.000000 -1.000000
vn 0.000000 0.000000 -1.000000
vn 0.000000 -1.000000 0.000000
vn 0.000000 -1.000000 0.000000
vn 0.000000 -1.000000 0.000000
vn 0.000000 -1.000000 0.000000
vn 0.000000 0.000000 1.000000
vn 0.000000 0.000000 1.000000
vn 0.000000 0.000000 1.000000
vn 0.000000 0.000000 1.000000
s off
g pCube14
usemtl initialShadingGroup
f 1/1/1 2/2/2 4/4/3 3/3/4
f 3/3/5 4/4/6 6/6/7 5/5/8
f 5/5/9 6/6/10 8/8/11 7/7/12
f 7/7/13 8/8/14 2/10/15 1/9/16
f 2/2/17 8/11/18 6/12/19 4/4/20
f 13/19/21 14/20/22 15/21/23 16/22/24
f 7/13/25 1/1/26 10/16/27 9/15/28
f 1/1/29 3/3/30 11/17/31 10/16/32
f 3/3/33 5/14/34 12/18/35 11/17/36
f 5/14/37 7/13/38 9/15/39 12/18/40
f 9/15/41 10/16/42 14/20/43 13/19/44
f 10/16/45 11/17/46 15/21/47 14/20/48
f 11/17/49 12/18/50 16/22/51 15/21/52
f 12/18/53 9/15/54 13/19/55 16/22/56
g default
v -49.762022 19.886791 -162.187298
v -44.588705 19.886791 -162.187298
v -49.762022 134.351222 -162.187298
v -44.588705 134.351222 -162.187298
v -49.762022 134.351222 -175.914792
v -44.588705 134.351222 -175.914792
v -49.762022 19.886791 -175.914792
v -44.588705 19.886791 -175.914792
vt 0.375000 0.000000
vt 0.625000 0.000000
vt 0.375000 0.250000
vt 0.625000 0.250000
vt 0.375000 0.500000
vt 0.625000 0.500000
vt 0.375000 0.750000
vt 0.625000 0.750000
vt 0.375000 1.000000
vt 0.625000 1.000000
vt 0.875000 0.000000
vt 0.875000 0.250000
vt 0.125000 0.000000
vt 0.125000 0.250000
vn 0.000000 0.000000 1.000000
vn 0.000000 0.000000 1.000000
vn 0.000000 0.000000 1.000000
vn 0.000000 0.000000 1.000000
vn 0.000000 1.000000 0.000000
vn 0.000000 1.000000 0.000000
vn 0.000000 1.000000 0.000000
vn 0.000000 1.000000 0.000000
vn 0.000000 0.000000 -1.000000
vn 0.000000 0.000000 -1.000000
vn 0.000000 0.000000 -1.000000
vn 0.000000 0.000000 -1.000000
vn 0.000000 -1.000000 0.000000
vn 0.000000 -1.000000 0.000000
vn 0.000000 -1.000000 0.000000
vn 0.000000 -1.000000 0.000000
vn 1.000000 0.000000 0.000000
vn 1.000000 0.000000 0.000000
vn 1.000000 0.000000 0.000000
vn 1.000000 0.000000 0.000000
vn -1.000000 0.000000 0.000000
vn -1.000000 0.000000 0.000000
vn -1.000000 0.000000 0.000000
vn -1.000000 0.000000 0.000000
s off
g pCube14 pCube17
usemtl initialShadingGroup
f 17/23/57 18/24/58 20/26/59 19/25/60
f 19/25/61 20/26/62 22/28/63 21/27/64
f 21/27/65 22/28/66 24/30/67 23/29/68
f 23/29/69 24/30/70 18/32/71 17/31/72
f 18/24/73 24/33/74 22/34/75 20/26/76
f 23/35/77 17/23/78 19/25/79 21/36/80
g default
v -47.526604 19.886795 -175.857574
v -44.588707 19.886795 -175.857574
v -47.526604 134.351227 -175.857574
v -44.588707 134.351227 -175.857574
v -47.526604 134.351227 -231.398392
v -44.588707 134.351227 -231.398392
v -47.526604 19.886795 -231.398392
v -44.588707 19.886795 -231.398392
vt 0.375000 0.000000
vt 0.625000 0.000000
vt 0.375000 0.250000
vt 0.625000 0.250000
vt 0.375000 0.500000
vt 0.625000 0.500000
vt 0.375000 0.750000
vt 0.625000 0.750000
vt 0.375000 1.000000
vt 0.625000 1.000000
vt 0.875000 0.000000
vt 0.875000 0.250000
vt 0.125000 0.000000
vt 0.125000 0.250000
vn 0.000000 0.000000 1.000000
vn 0.000000 0.000000 1.000000
vn 0.000000 0.000000 1.000000
vn 0.000000 0.000000 1.000000
vn 0.000000 1.000000 0.000000
vn 0.000000 1.000000 0.000000
vn 0.000000 1.000000 0.000000
vn 0.000000 1.000000 0.000000
vn 0.000000 0.000000 -1.000000
vn 0.000000 0.000000 -1.000000
vn 0.000000 0.000000 -1.000000
vn 0.000000 0.000000 -1.000000
vn 0.000000 -1.000000 0.000000
vn 0.000000 -1.000000 0.000000
vn 0.000000 -1.000000 0.000000
vn 0.000000 -1.000000 0.000000
vn 1.000000 0.000000 0.000000
vn 1.000000 0.000000 0.000000
vn 1.000000 0.000000 0.000000
vn 1.000000 0.000000 0.000000
vn -1.000000 0.000000 0.000000
vn -1.000000 0.000000 0.000000
vn -1.000000 0.000000 0.000000
vn -1.000000 0.000000 0.000000
s off
g pCube14 pCube16
usemtl initialShadingGroup
f 25/37/81 26/38/82 28/40/83 27/39/84
f 27/39/85 28/40/86 30/42/87 29/41/88
f 29/41/89 30/42/90 32/44/91 31/43/92
f 31/43/93 32/44/94 26/46/95 25/45/96
f 26/38/97 32/47/98 30/48/99 28/40/100
f 31/49/101 25/37/102 27/39/103 29/50/104
g default
v -49.706154 69.501446 -177.651024
v -47.514801 69.501446 -177.651024
v -49.706154 82.597117 -177.651024
v -47.514801 82.597117 -177.651024
v -49.706154 82.597117 -180.685204
v -47.514801 82.597117 -180.685204
v -49.706154 69.501446 -180.685204
v -47.514801 69.501446 -180.685204
vt 0.375000 0.000000
vt 0.625000 0.000000
vt 0.375000 0.250000
vt 0.625000 0.250000
vt 0.375000 0.500000
vt 0.625000 0.500000
vt 0.375000 0.750000
vt 0.625000 0.750000
vt 0.375000 1.000000
vt 0.625000 1.000000
vt 0.875000 0.000000
vt 0.875000 0.250000
vt 0.125000 0.000000
vt 0.125000 0.250000
vn 0.000000 0.000000 1.000000
vn 0.000000 0.000000 1.000000
vn 0.000000 0.000000 1.000000
vn 0.000000 0.000000 1.000000
vn 0.000000 1.000000 0.000000
vn 0.000000 1.000000 0.000000
vn 0.000000 1.000000 0.000000
vn 0.000000 1.000000 0.000000
vn 0.000000 0.000000 -1.000000
vn 0.000000 0.000000 -1.000000
vn 0.000000 0.000000 -1.000000
vn 0.000000 0.000000 -1.000000
vn 0.000000 -1.000000 0.000000
vn 0.000000 -1.000000 0.000000
vn 0.000000 -1.000000 0.000000
vn 0.000000 -1.000000 0.000000
vn 1.000000 0.000000 0.000000
vn 1.000000 0.000000 0.000000
vn 1.000000 0.000000 0.000000
vn 1.000000 0.000000 0.000000
vn -1.000000 0.000000 0.000000
vn -1.000000 0.000000 0.000000
vn -1.000000 0.000000 0.000000
vn -1.000000 0.000000 0.000000
s off
g pCube14 pCube16 pCube21
usemtl initialShadingGroup
f 33/51/105 34/52/106 36/54/107 35/53/108
f 35/53/109 36/54/110 38/56/111 37/55/112
f 37/55/113 38/56/114 40/58/115 39/57/116
f 39/57/117 40/58/118 34/60/119 33/59/120
f 34/52/121 40/61/122 38/62/123 36/54/124
f 39/63/125 33/51/126 35/53/127 37/64/128
g default
v -47.526604 19.886795 -106.748795
v -44.588707 19.886795 -106.748795
v -47.526604 134.351227 -106.748795
v -44.588707 134.351227 -106.748795
v -47.526604 134.351227 -162.289612
v -44.588707 134.351227 -162.289612
v -47.526604 19.886795 -162.289612
v -44.588707 19.886795 -162.289612
vt 0.375000 0.000000
vt 0.625000 0.000000
vt 0.375000 0.250000
vt 0.625000 0.250000
vt 0.375000 0.500000
vt 0.625000 0.500000
vt 0.375000 0.750000
vt 0.625000 0.750000
vt 0.375000 1.000000
vt 0.625000 1.000000
vt 0.875000 0.000000
vt 0.875000 0.250000
vt 0.125000 0.000000
vt 0.125000 0.250000
vn 0.000000 0.000000 1.000000
vn 0.000000 0.000000 1.000000
vn 0.000000 0.000000 1.000000
vn 0.000000 0.000000 1.000000
vn 0.000000 1.000000 0.000000
vn 0.000000 1.000000 0.000000
vn 0.000000 1.000000 0.000000
vn 0.000000 1.000000 0.000000
vn 0.000000 0.000000 -1.000000
vn 0.000000 0.000000 -1.000000
vn 0.000000 0.000000 -1.000000
vn 0.000000 0.000000 -1.000000
vn 0.000000 -1.000000 0.000000
vn 0.000000 -1.000000 0.000000
vn 0.000000 -1.000000 0.000000
vn 0.000000 -1.000000 0.000000
vn 1.000000 0.000000 0.000000
vn 1.000000 0.000000 0.000000
vn 1.000000 0.000000 0.000000
vn 1.000000 0.000000 0.000000
vn -1.000000 0.000000 0.000000
vn -1.000000 0.000000 0.000000
vn -1.000000 0.000000 0.000000
vn -1.000000 0.000000 0.000000
s off
g pCube14 pCube15
usemtl initialShadingGroup
f 41/65/129 42/66/130 44/68/131 43/67/132
f 43/67/133 44/68/134 46/70/135 45/69/136
f 45/69/137 46/70/138 48/72/139 47/71/140
f 47/71/141 48/72/142 42/74/143 41/73/144
f 42/66/145 48/75/146 46/76/147 44/68/148
f 47/77/149 41/65/150 43/67/151 45/78/152
g default
v -49.706154 69.501446 -157.855563
v -47.514801 69.501446 -157.855563
v -49.706154 82.597117 -157.855563
v -47.514801 82.597117 -157.855563
v -49.706154 82.597117 -160.889743
v -47.514801 82.597117 -160.889743
v -49.706154 69.501446 -160.889743
v -47.514801 69.501446 -160.889743
vt 0.375000 0.000000
vt 0.625000 0.000000
vt 0.375000 0.250000
vt 0.625000 0.250000
vt 0.375000 0.500000
vt 0.625000 0.500000
vt 0.375000 0.750000
vt 0.625000 0.750000
vt 0.375000 1.000000
vt 0.625000 1.000000
vt 0.875000 0.000000
vt 0.875000 0.250000
vt 0.125000 0.000000
vt 0.125000 0.250000
vn 0.000000 0.000000 1.000000
vn 0.000000 0.000000 1.000000
vn 0.000000 0.000000 1.000000
vn 0.000000 0.000000 1.000000
vn 0.000000 1.000000 0.000000
vn 0.000000 1.000000 0.000000
vn 0.000000 1.000000 0.000000
vn 0.000000 1.000000 0.000000
vn 0.000000 0.000000 -1.000000
vn 0.000000 0.000000 -1.000000
vn 0.000000 0.000000 -1.000000
vn 0.000000 0.000000 -1.000000
vn 0.000000 -1.000000 0.000000
vn 0.000000 -1.000000 0.000000
vn 0.000000 -1.000000 0.000000
vn 0.000000 -1.000000 0.000000
vn 1.000000 0.000000 0.000000
vn 1.000000 0.000000 0.000000
vn 1.000000 0.000000 0.000000
vn 1.000000 0.000000 0.000000
vn -1.000000 0.000000 0.000000
vn -1.000000 0.000000 0.000000
vn -1.000000 0.000000 0.000000
vn -1.000000 0.000000 0.000000
s off
g pCube14 pCube15 pCube22
usemtl initialShadingGroup
f 49/79/153 50/80/154 52/82/155 51/81/156
f 51/81/157 52/82/158 54/84/159 53/83/160
f 53/83/161 54/84/162 56/86/163 55/85/164
f 55/85/165 56/86/166 50/88/167 49/87/168
f 50/80/169 56/89/170 54/90/171 52/82/172
f 55/91/173 49/79/174 51/81/175 53/92/176
