# This file uses centimeters as units for non-parametric coordinates.

mtllib obj_Quadro.mtl
g default
v -22.499976 -27.499985 -0.667320
v 22.499993 -27.499985 -0.667320
v -22.500007 27.499985 -0.667320
v 22.499993 27.499985 -0.667320
v -22.500007 27.499985 -1.667320
v 22.499993 27.499985 -1.667320
v -22.500007 -27.499985 -1.667320
v 22.499993 -27.499985 -1.667320
v 23.231255 28.393753 -1.699821
v -23.231239 28.393753 -1.699821
v -23.231239 -28.393723 -1.699821
v 23.231255 -28.393723 -1.699821
v 26.328759 32.179550 -1.841820
v -26.328773 32.179550 -1.841820
v -26.328773 -32.179550 -1.841820
v 26.328759 -32.179550 -1.841820
v -22.499976 27.499985 0.137428
v 22.499993 27.499985 0.137428
v 23.231255 28.393753 0.169930
v -23.231239 28.393753 0.169930
v -22.499976 -27.499985 0.137428
v 22.499993 -27.499985 0.137428
v -23.231239 -28.393723 0.169930
v 23.231255 -28.393723 0.169930
v 26.328759 32.179550 0.311928
v -26.328773 32.179550 0.311928
v -26.328773 -32.179550 0.311928
v 26.328759 -32.179550 0.311928
v -23.231239 28.393753 0.896629
v 23.231255 28.393753 0.896629
v 26.328759 32.179550 1.038628
v -26.328773 32.179550 1.038628
v -23.231239 -28.393723 0.896629
v 23.231255 -28.393723 0.896629
v -26.328773 -32.179550 1.038628
v 26.328759 -32.179550 1.038628
v -26.328773 32.179550 -0.492821
v 26.328759 32.179550 -0.492821
v 26.986962 32.984039 -1.875542
v -26.986976 32.984039 -1.875542
v -26.986976 -32.984039 -1.875542
v 26.986962 -32.984039 -1.875542
v 26.328759 -32.179550 -0.492821
v -26.328773 -32.179550 -0.492821
v -26.986976 32.984039 0.332039
v 26.986962 32.984039 0.332039
v 26.986962 -32.984039 0.332039
v -26.986976 -32.984039 0.332039
v -25.554359 31.233109 1.630821
v -25.554359 -31.233078 1.630821
v 25.554375 -31.233078 1.630821
v 25.554375 31.233109 1.630821
v -24.780006 30.286652 1.875542
v -24.780006 -30.286636 1.875542
v 24.779992 -30.286636 1.875542
v 24.779992 30.286652 1.875542
v -24.005622 29.340210 1.559822
v -24.005622 -29.340179 1.559822
v 24.005639 -29.340179 1.559822
v 24.005639 29.340210 1.559822
vt 0.375000 0.000000
vt 0.625000 0.000000
vt 0.625000 0.250000
vt 0.375000 0.250000
vt 0.375000 0.250000
vt 0.625000 0.250000
vt 0.625000 0.500000
vt 0.375000 0.500000
vt 0.375000 0.500000
vt 0.625000 0.500000
vt 0.625000 0.750000
vt 0.375000 0.750000
vt 0.375000 0.750000
vt 0.625000 0.750000
vt 0.625000 1.000000
vt 0.375000 1.000000
vt 0.625000 0.000000
vt 0.875000 0.000000
vt 0.875000 0.250000
vt 0.125000 0.000000
vt 0.375000 0.000000
vt 0.125000 0.250000
vt 0.375000 0.250000
vt 0.625000 0.250000
vt 0.625000 0.250000
vt 0.375000 0.250000
vt 0.375000 0.500000
vt 0.625000 0.500000
vt 0.625000 0.750000
vt 0.375000 0.750000
vt 0.625000 1.000000
vt 0.375000 1.000000
vt 0.375000 1.000000
vt 0.625000 1.000000
vt 0.875000 0.000000
vt 0.875000 0.250000
vt 0.875000 0.250000
vt 0.875000 0.000000
vt 0.625000 0.000000
vt 0.625000 0.000000
vt 0.375000 0.000000
vt 0.375000 0.000000
vt 0.125000 0.250000
vt 0.125000 0.000000
vt 0.125000 0.000000
vt 0.125000 0.250000
vt 0.375000 0.250000
vt 0.625000 0.250000
vt 0.625000 0.250000
vt 0.375000 0.250000
vt 0.375000 0.500000
vt 0.625000 0.500000
vt 0.625000 0.750000
vt 0.375000 0.750000
vt 0.625000 1.000000
vt 0.375000 1.000000
vt 0.375000 1.000000
vt 0.625000 1.000000
vt 0.875000 0.250000
vt 0.875000 0.000000
vt 0.625000 0.000000
vt 0.625000 0.000000
vt 0.375000 0.000000
vt 0.375000 0.000000
vt 0.125000 0.000000
vt 0.125000 0.250000
vt 0.625000 1.000000
vt 0.375000 1.000000
vt 0.375000 0.250000
vt 0.625000 0.250000
vt 0.625000 1.000000
vt 0.375000 1.000000
vt 0.625000 0.000000
vt 0.375000 0.000000
vt 0.625000 0.250000
vt 0.375000 0.250000
vt 0.375000 0.250000
vt 0.625000 0.250000
vt 0.375000 1.000000
vt 0.625000 1.000000
vt 0.625000 1.000000
vt 0.375000 1.000000
vt 0.625000 0.000000
vt 0.625000 0.000000
vt 0.375000 0.000000
vt 0.375000 0.000000
vt 0.375000 0.000000
vt 0.375000 0.250000
vt 0.625000 1.000000
vt 0.375000 1.000000
vt 0.625000 0.250000
vt 0.625000 0.000000
vt 0.375000 0.000000
vt 0.375000 0.250000
vt 0.625000 1.000000
vt 0.375000 1.000000
vt 0.625000 0.250000
vt 0.625000 0.000000
vn 0.000000 0.000000 1.000000
vn 0.000000 0.000000 1.000000
vn 0.000000 0.000000 1.000000
vn 0.000000 0.000000 1.000000
vn 0.000000 0.864352 0.502888
vn 0.000000 0.864352 0.502888
vn 0.000000 0.864352 0.502888
vn 0.000000 0.864352 0.502888
vn 0.000893 -0.000731 -0.999999
vn -0.000893 -0.000731 -0.999999
vn -0.000893 0.000731 -0.999999
vn 0.000893 0.000731 -0.999999
vn 0.000000 -0.864350 0.502891
vn 0.000000 -0.864350 0.502891
vn 0.000000 -0.864350 0.502891
vn 0.000000 -0.864350 0.502891
vn 0.902917 0.000000 0.429816
vn 0.902917 0.000000 0.429816
vn 0.902917 0.000000 0.429816
vn 0.902917 0.000000 0.429816
vn -0.902917 0.000000 0.429816
vn -0.902917 0.000000 0.429816
vn -0.902917 0.000000 0.429816
vn -0.902917 0.000000 0.429816
vn 0.022213 -0.018174 0.999588
vn -0.022213 -0.018174 0.999588
vn -0.022213 -0.018174 0.999588
vn 0.022213 -0.018174 0.999588
vn -0.000893 -0.000731 -0.999999
vn 0.000893 -0.000731 -0.999999
vn 0.022833 -0.018682 -0.999565
vn -0.022833 -0.018682 -0.999565
vn 0.000893 0.000731 -0.999999
vn -0.000893 0.000731 -0.999999
vn -0.022833 0.018682 -0.999565
vn 0.022833 0.018682 -0.999565
vn -0.022213 0.018175 0.999588
vn 0.022213 0.018174 0.999588
vn 0.022213 0.018174 0.999588
vn -0.022213 0.018174 0.999588
vn -0.000893 0.000731 -0.999999
vn -0.000893 -0.000731 -0.999999
vn -0.022833 -0.018682 -0.999565
vn -0.022833 0.018682 -0.999565
vn -0.022213 -0.018174 0.999588
vn -0.022213 0.018175 0.999588
vn -0.022213 0.018174 0.999588
vn -0.022213 -0.018174 0.999588
vn 0.022213 0.018174 0.999588
vn 0.022213 -0.018174 0.999588
vn 0.022213 -0.018174 0.999588
vn 0.022213 0.018174 0.999588
vn 0.000893 -0.000731 -0.999999
vn 0.000893 0.000731 -0.999999
vn 0.022833 0.018682 -0.999565
vn 0.022833 -0.018682 -0.999565
vn 0.374684 -0.306560 0.875005
vn -0.374684 -0.306560 0.875005
vn -0.288882 -0.236358 0.927730
vn 0.288882 -0.236358 0.927730
vn -0.022833 -0.018682 -0.999565
vn 0.022833 -0.018682 -0.999565
vn 0.023659 -0.019358 -0.999533
vn -0.023659 -0.019358 -0.999533
vn 0.022833 0.018682 -0.999565
vn -0.022833 0.018682 -0.999565
vn -0.023659 0.019358 -0.999533
vn 0.023659 0.019358 -0.999533
vn -0.374683 0.306559 0.875005
vn 0.374683 0.306559 0.875005
vn 0.288881 0.236357 0.927730
vn -0.288881 0.236357 0.927730
vn -0.022833 0.018682 -0.999565
vn -0.022833 -0.018682 -0.999565
vn -0.023659 -0.019358 -0.999533
vn -0.023659 0.019358 -0.999533
vn -0.374684 -0.306560 0.875005
vn -0.374683 0.306559 0.875005
vn -0.288881 0.236357 0.927730
vn -0.288882 -0.236358 0.927730
vn 0.374683 0.306559 0.875005
vn 0.374684 -0.306560 0.875005
vn 0.288882 -0.236358 0.927730
vn 0.288881 0.236357 0.927730
vn 0.022833 -0.018682 -0.999565
vn 0.022833 0.018682 -0.999565
vn 0.023659 0.019358 -0.999533
vn 0.023659 -0.019358 -0.999533
vn 0.000000 -1.000000 -0.000002
vn 0.000000 -1.000000 -0.000002
vn 0.000000 -1.000000 -0.000002
vn 0.000000 -1.000000 -0.000002
vn 0.000000 1.000000 -0.000002
vn 0.000000 1.000000 -0.000002
vn 0.000000 1.000000 -0.000002
vn 0.000000 1.000000 -0.000002
vn -1.000000 0.000000 0.000001
vn -1.000000 0.000000 0.000001
vn -1.000000 0.000000 0.000001
vn -1.000000 0.000000 0.000001
vn 1.000000 0.000000 -0.000002
vn 1.000000 0.000000 -0.000002
vn 1.000000 0.000000 -0.000002
vn 1.000000 0.000000 -0.000002
vn 0.000000 0.715896 -0.698207
vn 0.000000 0.715896 -0.698207
vn 0.000000 0.715896 -0.698207
vn 0.000000 0.715896 -0.698207
vn 0.000000 -0.715893 -0.698210
vn 0.000000 -0.715893 -0.698210
vn 0.000000 -0.715893 -0.698210
vn 0.000000 -0.715893 -0.698210
vn 0.781641 0.000000 -0.623728
vn 0.781641 0.000000 -0.623728
vn 0.781641 0.000000 -0.623728
vn 0.781641 0.000000 -0.623728
vn -0.781641 0.000000 -0.623728
vn -0.781641 0.000000 -0.623728
vn -0.781641 0.000000 -0.623728
vn -0.781641 0.000000 -0.623728
vn 0.000000 -1.000000 0.000000
vn 0.000000 -1.000000 0.000000
vn 0.000000 -1.000000 0.000000
vn 0.000000 -1.000000 0.000000
vn 0.000000 1.000000 0.000000
vn 0.000000 1.000000 0.000000
vn 0.000000 1.000000 0.000000
vn 0.000000 1.000000 0.000000
vn 0.000000 1.000000 0.000000
vn 0.000000 1.000000 0.000000
vn 0.000000 1.000000 0.000000
vn 0.000000 1.000000 0.000000
vn 0.000000 -1.000000 0.000000
vn 0.000000 -1.000000 0.000000
vn 0.000000 -1.000000 0.000000
vn 0.000000 -1.000000 0.000000
vn -1.000000 0.000000 0.000000
vn -1.000000 0.000000 0.000000
vn -1.000000 0.000000 0.000000
vn -1.000000 0.000000 0.000000
vn 1.000000 0.000000 0.000000
vn 1.000000 0.000000 0.000000
vn 1.000000 0.000000 0.000000
vn 1.000000 0.000000 0.000000
vn 1.000000 0.000000 0.000000
vn 1.000000 0.000000 0.000000
vn 1.000000 0.000000 0.000000
vn 1.000000 0.000000 0.000000
vn -1.000000 0.000000 0.000000
vn -1.000000 0.000000 0.000000
vn -1.000000 0.000000 0.000000
vn -1.000000 0.000000 0.000000
vn -0.023659 -0.019358 -0.999533
vn 0.023659 -0.019358 -0.999533
vn 0.025604 -0.020949 -0.999453
vn -0.025605 -0.020949 -0.999453
vn 0.023659 0.019358 -0.999533
vn -0.023659 0.019358 -0.999533
vn -0.025604 0.020949 -0.999453
vn 0.025604 0.020949 -0.999453
vn -0.023659 0.019358 -0.999533
vn -0.023659 -0.019358 -0.999533
vn -0.025605 -0.020949 -0.999453
vn -0.025604 0.020949 -0.999453
vn 0.023659 -0.019358 -0.999533
vn 0.023659 0.019358 -0.999533
vn 0.025604 0.020949 -0.999453
vn 0.025604 -0.020949 -0.999453
vn 0.015280 -0.012502 0.999805
vn -0.015280 -0.012502 0.999805
vn -0.015280 -0.012502 0.999805
vn 0.015280 -0.012502 0.999805
vn -0.015280 0.012502 0.999805
vn 0.015280 0.012502 0.999805
vn 0.015280 0.012502 0.999805
vn -0.015280 0.012502 0.999805
vn -0.015280 -0.012502 0.999805
vn -0.015280 0.012502 0.999805
vn -0.015280 0.012502 0.999805
vn -0.015280 -0.012502 0.999805
vn 0.015280 0.012502 0.999805
vn 0.015280 -0.012502 0.999805
vn 0.015280 -0.012502 0.999805
vn 0.015280 0.012502 0.999805
vn -0.259522 -0.212337 0.942105
vn -0.259523 0.212337 0.942104
vn -0.342811 0.280482 0.896555
vn -0.342809 -0.280481 0.896556
vn 0.259522 -0.212336 0.942105
vn -0.259522 -0.212337 0.942105
vn -0.342809 -0.280481 0.896556
vn 0.342809 -0.280481 0.896556
vn 0.259523 0.212337 0.942104
vn 0.259522 -0.212336 0.942105
vn 0.342809 -0.280481 0.896556
vn 0.342811 0.280482 0.896555
vn -0.259523 0.212337 0.942104
vn 0.259523 0.212337 0.942104
vn 0.342811 0.280482 0.896555
vn -0.342811 0.280482 0.896555
vn 0.012970 0.010612 0.999860
vn 0.012970 -0.010612 0.999860
vn -0.259523 0.212337 0.942104
vn -0.259522 -0.212337 0.942105
vn -0.012970 0.010612 0.999860
vn 0.012970 0.010612 0.999860
vn -0.259522 -0.212337 0.942105
vn 0.259522 -0.212336 0.942105
vn -0.012970 -0.010612 0.999860
vn -0.012970 0.010612 0.999860
vn 0.259522 -0.212336 0.942105
vn 0.259523 0.212337 0.942104
vn 0.012970 -0.010612 0.999860
vn -0.012970 -0.010612 0.999860
vn 0.259523 0.212337 0.942104
vn -0.259523 0.212337 0.942104
vn 0.288881 0.236357 0.927730
vn 0.288882 -0.236358 0.927730
vn 0.012970 -0.010612 0.999860
vn 0.012970 0.010612 0.999860
vn -0.288881 0.236357 0.927730
vn 0.288881 0.236357 0.927730
vn 0.012970 0.010612 0.999860
vn -0.012970 0.010612 0.999860
vn -0.288882 -0.236358 0.927730
vn -0.288881 0.236357 0.927730
vn -0.012970 0.010612 0.999860
vn -0.012970 -0.010612 0.999860
vn 0.288882 -0.236358 0.927730
vn -0.288882 -0.236358 0.927730
vn -0.012970 -0.010612 0.999860
vn 0.012970 -0.010612 0.999860
s off
g quadrinho1:pCube1
usemtl quadrinho1:initialShadingGroup
f 1/1/1 2/2/2 4/3/3 3/4/4
f 37/5/5 38/6/6 39/7/7 40/8/8
f 5/9/9 6/10/10 8/11/11 7/12/12
f 41/13/13 42/14/14 43/15/15 44/16/16
f 43/17/17 42/18/18 39/19/19 38/6/20
f 41/20/21 44/21/22 37/5/23 40/22/24
f 17/23/25 18/24/26 19/25/27 20/26/28
f 6/10/29 5/9/30 10/27/31 9/28/32
f 7/12/33 8/11/34 12/29/35 11/30/36
f 22/31/37 21/32/38 23/33/39 24/34/40
f 8/35/41 6/36/42 9/37/43 12/38/44
f 18/24/45 22/39/46 24/40/47 19/25/48
f 21/41/49 17/23/50 20/26/51 23/42/52
f 5/43/53 7/44/54 11/45/55 10/46/56
f 29/47/57 30/48/58 60/49/59 57/50/60
f 9/28/61 10/27/62 14/51/63 13/52/64
f 11/30/65 12/29/66 16/53/67 15/54/68
f 34/55/69 33/56/70 58/57/71 59/58/72
f 12/38/73 9/37/74 13/59/75 16/60/76
f 30/48/77 34/61/78 59/62/79 60/49/80
f 33/63/81 29/47/82 57/50/83 58/64/84
f 10/46/85 11/45/86 15/65/87 14/66/88
f 3/4/89 4/3/90 18/24/91 17/23/92
f 2/67/93 1/68/94 21/32/95 22/31/96
f 4/3/97 2/2/98 22/39/99 18/24/100
f 1/1/101 3/4/102 17/23/103 21/41/104
f 38/6/105 37/5/106 45/69/107 46/70/108
f 44/16/109 43/15/110 47/71/111 48/72/112
f 43/17/113 38/6/114 46/70/115 47/73/116
f 37/5/117 44/21/118 48/74/119 45/69/120
f 20/26/121 19/25/122 30/48/123 29/47/124
f 25/75/125 26/76/126 32/77/127 31/78/128
f 24/34/129 23/33/130 33/56/131 34/55/132
f 27/79/133 28/80/134 36/81/135 35/82/136
f 19/25/137 24/40/138 34/61/139 30/48/140
f 28/83/141 25/75/142 31/78/143 36/84/144
f 23/42/145 20/26/146 29/47/147 33/63/148
f 26/76/149 27/85/150 35/86/151 32/77/152
f 13/52/153 14/51/154 40/8/155 39/7/156
f 15/54/157 16/53/158 42/14/159 41/13/160
f 16/60/161 13/59/162 39/19/163 42/18/164
f 14/66/165 15/65/166 41/20/167 40/22/168
f 26/76/169 25/75/170 46/70/171 45/69/172
f 28/80/173 27/79/174 48/72/175 47/71/176
f 25/75/177 28/83/178 47/73/179 46/70/180
f 27/85/181 26/76/182 45/69/183 48/74/184
f 50/87/185 49/88/186 32/77/187 35/86/188
f 51/89/189 50/90/190 35/82/191 36/81/192
f 52/91/193 51/92/194 36/84/195 31/78/196
f 49/88/197 52/91/198 31/78/199 32/77/200
f 54/93/201 53/94/202 49/88/203 50/87/204
f 55/95/205 54/96/206 50/90/207 51/89/208
f 56/97/209 55/98/210 51/92/211 52/91/212
f 53/94/213 56/97/214 52/91/215 49/88/216
f 58/64/217 57/50/218 53/94/219 54/93/220
f 59/58/221 58/57/222 54/96/223 55/95/224
f 60/49/225 59/62/226 55/98/227 56/97/228
f 57/50/229 60/49/230 56/97/231 53/94/232
