# This file uses centimeters as units for non-parametric coordinates.

mtllib roda cima obj.mtl
g default
v 0.090312 1.920064 -0.623717
v 0.090312 1.389498 -1.009195
v 0.090312 0.733684 -1.009195
v 0.090312 0.203119 -0.623716
v 0.090312 0.000461 0.000000
v 0.090312 0.203119 0.623716
v 0.090312 0.733684 1.009195
v 0.090312 1.389498 1.009195
v 0.090312 1.920064 0.623716
v 0.090312 2.122721 0.000000
v -0.090312 1.920064 -0.623717
v -0.090312 1.389498 -1.009195
v -0.090312 0.733684 -1.009195
v -0.090312 0.203119 -0.623716
v -0.090312 0.000461 0.000000
v -0.090312 0.203119 0.623716
v -0.090312 0.733684 1.009195
v -0.090312 1.389498 1.009195
v -0.090312 1.920064 0.623716
v -0.090312 2.122721 0.000000
v 0.090312 1.804237 -0.539564
v 0.090312 1.345256 -0.873033
v 0.090312 0.777926 -0.873033
v 0.090312 0.318944 -0.539564
v 0.090312 0.143629 0.000000
v 0.090312 0.318945 0.539564
v 0.090312 0.777926 0.873033
v 0.090312 1.345256 0.873033
v 0.090312 1.804237 0.539564
v 0.090312 1.979553 0.000000
v -0.090312 1.804237 -0.539564
v -0.090312 1.345256 -0.873033
v -0.090312 0.777926 -0.873033
v -0.090312 0.318944 -0.539564
v -0.090312 0.143629 0.000000
v -0.090312 0.318945 0.539564
v -0.090312 0.777926 0.873033
v -0.090312 1.345256 0.873033
v -0.090312 1.804237 0.539564
v -0.090312 1.979553 0.000000
v 0.090312 1.678409 -0.549320
v 0.090312 1.367125 -0.769993
v 0.090312 0.769183 -0.768349
v 0.090312 0.482950 -0.504683
v 0.090312 0.261939 0.051452
v 0.090312 0.369403 0.386477
v 0.090312 0.894914 0.775816
v 0.090312 1.212898 0.768136
v 0.090312 1.756538 0.407051
v 0.090312 1.840855 0.050164
v -0.090312 1.678409 -0.549320
v -0.090312 1.367125 -0.769993
v -0.090312 0.769183 -0.768349
v -0.090312 0.482950 -0.504683
v -0.090312 0.261939 0.051452
v -0.090312 0.369403 0.386477
v -0.090312 0.894914 0.775816
v -0.090312 1.212898 0.768136
v -0.090312 1.756538 0.407051
v -0.090312 1.840855 0.050164
v 0.090312 1.235674 -0.126479
v 0.090312 1.128085 -0.204647
v 0.090312 0.995097 -0.204647
v 0.090312 0.887508 -0.126479
v 0.090312 0.846413 0.000000
v 0.090312 0.887508 0.126479
v 0.090312 0.995097 0.204647
v 0.090312 1.128085 0.204647
v 0.090312 1.235674 0.126479
v 0.090312 1.276769 0.000000
v -0.090312 1.235674 -0.126479
v -0.090312 1.128085 -0.204647
v -0.090312 0.995097 -0.204647
v -0.090312 0.887508 -0.126479
v -0.090312 0.846413 0.000000
v -0.090312 0.887508 0.126479
v -0.090312 0.995097 0.204647
v -0.090312 1.128085 0.204647
v -0.090312 1.235674 0.126479
v -0.090312 1.276769 0.000000
v 0.090312 1.180242 -0.086205
v 0.090312 1.106912 -0.139483
v 0.090312 1.061591 0.000000
v 0.090312 1.016270 -0.139483
v 0.090312 0.942940 -0.086205
v 0.090312 0.914930 0.000000
v 0.090312 0.942940 0.086205
v 0.090312 1.016270 0.139483
v 0.090312 1.106912 0.139483
v 0.090312 1.180242 0.086205
v 0.090312 1.208252 0.000000
v -0.090312 1.180242 -0.086205
v -0.090312 1.106912 -0.139483
v -0.090312 1.061591 0.000000
v -0.090312 1.016270 -0.139483
v -0.090312 0.942940 -0.086205
v -0.090312 0.914930 0.000000
v -0.090312 0.942940 0.086205
v -0.090312 1.016270 0.139483
v -0.090312 1.106912 0.139483
v -0.090312 1.180242 0.086205
v -0.090312 1.208252 0.000000
vt 0.375000 0.312500
vt 0.400000 0.312500
vt 0.400000 0.688440
vt 0.375000 0.688440
vt 0.425000 0.312500
vt 0.425000 0.688440
vt 0.450000 0.312500
vt 0.450000 0.688440
vt 0.475000 0.312500
vt 0.475000 0.688440
vt 0.500000 0.312500
vt 0.500000 0.688440
vt 0.525000 0.312500
vt 0.525000 0.688440
vt 0.550000 0.312500
vt 0.550000 0.688440
vt 0.575000 0.312500
vt 0.575000 0.688440
vt 0.600000 0.312500
vt 0.600000 0.688440
vt 0.625000 0.312500
vt 0.625000 0.688440
vt 0.548284 0.007647
vt 0.626409 0.064409
vt 0.500000 0.150000
vt 0.451716 0.007647
vt 0.373591 0.064409
vt 0.343750 0.156250
vt 0.373591 0.248091
vt 0.451716 0.304853
vt 0.548284 0.304853
vt 0.626409 0.248091
vt 0.656250 0.156250
vt 0.626409 0.935591
vt 0.548284 0.992353
vt 0.500000 0.837500
vt 0.451716 0.992353
vt 0.373591 0.935591
vt 0.343750 0.843750
vt 0.373591 0.751909
vt 0.451716 0.695147
vt 0.548284 0.695147
vt 0.626409 0.751909
vt 0.656250 0.843750
vt 0.548284 0.007647
vt 0.626409 0.064409
vt 0.626409 0.064409
vt 0.548284 0.007647
vt 0.451716 0.007647
vt 0.451716 0.007647
vt 0.373591 0.064409
vt 0.373591 0.064409
vt 0.343750 0.156250
vt 0.343750 0.156250
vt 0.373591 0.248091
vt 0.373591 0.248091
vt 0.451716 0.304853
vt 0.451716 0.304853
vt 0.548284 0.304853
vt 0.548284 0.304853
vt 0.626409 0.248091
vt 0.626409 0.248091
vt 0.656250 0.156250
vt 0.656250 0.156250
vt 0.626409 0.935591
vt 0.548284 0.992353
vt 0.548284 0.992353
vt 0.626409 0.935591
vt 0.451716 0.992353
vt 0.451716 0.992353
vt 0.373591 0.935591
vt 0.373591 0.935591
vt 0.343750 0.843750
vt 0.343750 0.843750
vt 0.373591 0.751909
vt 0.373591 0.751909
vt 0.451716 0.695147
vt 0.451716 0.695147
vt 0.548284 0.695147
vt 0.548284 0.695147
vt 0.626409 0.751909
vt 0.626409 0.751909
vt 0.656250 0.843750
vt 0.656250 0.843750
vt 0.626409 0.064409
vt 0.548284 0.007647
vt 0.451716 0.007647
vt 0.373591 0.064409
vt 0.343750 0.156250
vt 0.373591 0.248091
vt 0.451716 0.304853
vt 0.548284 0.304853
vt 0.626409 0.248091
vt 0.656250 0.156250
vt 0.548284 0.992353
vt 0.626409 0.935591
vt 0.373591 0.935591
vt 0.451716 0.992353
vt 0.373591 0.751909
vt 0.343750 0.843750
vt 0.548284 0.695147
vt 0.451716 0.695147
vt 0.656250 0.843750
vt 0.626409 0.751909
vt 0.626409 0.064409
vt 0.548284 0.007647
vt 0.451716 0.007647
vt 0.373591 0.064409
vt 0.343750 0.156250
vt 0.373591 0.248091
vt 0.451716 0.304853
vt 0.548284 0.304853
vt 0.626409 0.248091
vt 0.656250 0.156250
vt 0.548284 0.992353
vt 0.626409 0.935591
vt 0.373591 0.935591
vt 0.451716 0.992353
vt 0.373591 0.751909
vt 0.343750 0.843750
vt 0.548284 0.695147
vt 0.451716 0.695147
vt 0.656250 0.843750
vt 0.626409 0.751909
vn 0.509000 0.696375 -0.505946
vn 0.508999 0.265992 -0.818638
vn -0.508999 0.265992 -0.818638
vn -0.509000 0.696375 -0.505946
vn 0.508999 -0.265991 -0.818638
vn -0.508999 -0.265992 -0.818638
vn 0.508999 -0.696375 -0.505946
vn -0.508999 -0.696375 -0.505946
vn 0.508999 -0.860767 0.000000
vn -0.508998 -0.860767 0.000000
vn 0.508999 -0.696375 0.505946
vn -0.508999 -0.696376 0.505946
vn 0.508999 -0.265992 0.818638
vn -0.508999 -0.265992 0.818638
vn 0.508999 0.265992 0.818638
vn -0.508999 0.265992 0.818638
vn 0.509000 0.696375 0.505946
vn -0.509000 0.696375 0.505946
vn 0.509000 0.860766 0.000000
vn -0.509000 0.860766 0.000000
vn 1.000000 -0.000001 0.000000
vn 1.000000 -0.000003 0.000000
vn 1.000000 -0.000001 0.000000
vn 1.000000 -0.000001 0.000000
vn 1.000000 0.000002 0.000000
vn 1.000000 0.000002 0.000000
vn 1.000000 -0.000001 0.000000
vn 1.000000 0.000000 0.000000
vn 1.000000 -0.000001 0.000000
vn 1.000000 -0.000001 0.000000
vn 1.000000 -0.000002 0.000000
vn -1.000000 -0.000001 0.000000
vn -1.000000 -0.000002 0.000000
vn -1.000000 -0.000001 0.000000
vn -1.000000 -0.000000 0.000000
vn -1.000000 0.000001 0.000000
vn -1.000000 -0.000001 0.000000
vn -1.000000 -0.000001 0.000000
vn -1.000000 -0.000001 0.000000
vn -1.000000 -0.000001 0.000000
vn -1.000000 -0.000001 0.000000
vn -1.000000 0.000001 0.000000
vn 0.881471 -0.414094 0.227011
vn 0.893501 -0.077358 0.442347
vn 0.906278 0.075572 0.415871
vn 0.899458 0.362659 0.243831
vn 0.901658 0.430453 0.041518
vn 0.884545 0.357234 -0.299941
vn 0.890108 0.172955 -0.421656
vn 0.886128 -0.167088 -0.432272
vn 0.890435 -0.341215 -0.301160
vn 0.905072 -0.424440 0.026355
vn -0.893501 -0.077359 0.442347
vn -0.881471 -0.414095 0.227011
vn -0.906278 0.075571 0.415872
vn -0.899458 0.362658 0.243831
vn -0.901658 0.430452 0.041518
vn -0.884545 0.357234 -0.299941
vn -0.890108 0.172956 -0.421656
vn -0.886128 -0.167089 -0.432272
vn -0.890435 -0.341216 -0.301160
vn -0.905073 -0.424440 0.026355
vn 0.830403 0.327492 0.450754
vn 0.820941 -0.543066 -0.176452
vn 0.828503 0.532577 -0.173044
vn 0.853750 -0.306051 0.421242
vn 0.822290 -0.000000 -0.569069
vn 0.838881 0.319940 0.440361
vn 0.820572 -0.543570 -0.176616
vn 0.827992 0.533296 -0.173278
vn 0.837797 -0.320920 0.441709
vn 0.835562 0.000001 -0.549397
vn -0.820942 -0.543065 -0.176452
vn -0.830403 0.327493 0.450754
vn -0.853750 -0.306050 0.421242
vn -0.828503 0.532578 -0.173044
vn -0.838880 0.319941 0.440361
vn -0.822290 0.000001 -0.569069
vn -0.827992 0.533296 -0.173278
vn -0.820572 -0.543570 -0.176616
vn -0.835562 0.000001 -0.549397
vn -0.837797 -0.320920 0.441709
vn 0.831224 0.448776 0.328126
vn 0.839044 -0.454486 -0.299077
vn 0.832456 0.467397 -0.297586
vn 0.843034 -0.436455 0.314325
vn 0.823364 -0.155260 -0.545862
vn 0.812066 0.162851 0.560383
vn 0.794945 -0.606642 0.006919
vn 0.794478 0.606910 0.021543
vn 0.817605 -0.176511 0.548057
vn 0.835937 0.153777 -0.526842
vn -0.839044 -0.454486 -0.299076
vn -0.831224 0.448776 0.328126
vn -0.843034 -0.436455 0.314325
vn -0.832456 0.467397 -0.297586
vn -0.812066 0.162851 0.560383
vn -0.823364 -0.155260 -0.545862
vn -0.794478 0.606910 0.021543
vn -0.794945 -0.606642 0.006919
vn -0.835937 0.153778 -0.526842
vn -0.817605 -0.176511 0.548057
s 1
g polySurface1 pCylinder14
usemtl initialShadingGroup
f 1/1/1 2/2/2 12/3/3 11/4/4
f 2/2/2 3/5/5 13/6/6 12/3/3
f 3/5/5 4/7/7 14/8/8 13/6/6
f 4/7/7 5/9/9 15/10/10 14/8/8
f 5/9/9 6/11/11 16/12/12 15/10/10
f 6/11/11 7/13/13 17/14/14 16/12/12
f 7/13/13 8/15/15 18/16/16 17/14/14
f 8/15/15 9/17/17 19/18/18 18/16/16
f 9/17/17 10/19/19 20/20/20 19/18/18
f 10/19/19 1/21/1 11/22/4 20/20/20
f 82/23/21 81/24/22 83/25/23
f 84/26/24 82/23/21 83/25/23
f 85/27/25 84/26/24 83/25/23
f 86/28/26 85/27/25 83/25/23
f 87/29/27 86/28/26 83/25/23
f 88/30/28 87/29/27 83/25/23
f 89/31/29 88/30/28 83/25/23
f 90/32/30 89/31/29 83/25/23
f 91/33/31 90/32/30 83/25/23
f 81/24/22 91/33/31 83/25/23
f 92/34/32 93/35/33 94/36/34
f 93/35/33 95/37/35 94/36/34
f 95/37/35 96/38/36 94/36/34
f 96/38/36 97/39/37 94/36/34
f 97/39/37 98/40/38 94/36/34
f 98/40/38 99/41/39 94/36/34
f 99/41/39 100/42/40 94/36/34
f 100/42/40 101/43/41 94/36/34
f 101/43/41 102/44/42 94/36/34
f 102/44/42 92/34/32 94/36/34
f 2/45/2 1/46/1 21/47/43 22/48/44
f 3/49/5 2/45/2 22/48/44 23/50/45
f 4/51/7 3/49/5 23/50/45 24/52/46
f 5/53/9 4/51/7 24/52/46 25/54/47
f 6/55/11 5/53/9 25/54/47 26/56/48
f 7/57/13 6/55/11 26/56/48 27/58/49
f 8/59/15 7/57/13 27/58/49 28/60/50
f 9/61/17 8/59/15 28/60/50 29/62/51
f 10/63/19 9/61/17 29/62/51 30/64/52
f 1/46/1 10/63/19 30/64/52 21/47/43
f 11/65/4 12/66/3 32/67/53 31/68/54
f 12/66/3 13/69/6 33/70/55 32/67/53
f 13/69/6 14/71/8 34/72/56 33/70/55
f 14/71/8 15/73/10 35/74/57 34/72/56
f 15/73/10 16/75/12 36/76/58 35/74/57
f 16/75/12 17/77/14 37/78/59 36/76/58
f 17/77/14 18/79/16 38/80/60 37/78/59
f 18/79/16 19/81/18 39/82/61 38/80/60
f 19/81/18 20/83/20 40/84/62 39/82/61
f 20/83/20 11/65/4 31/68/54 40/84/62
f 22/48/44 21/47/43 41/85/63 42/86/64
f 24/52/46 23/50/45 43/87/65 44/88/66
f 26/56/48 25/54/47 45/89/67 46/90/68
f 28/60/50 27/58/49 47/91/69 48/92/70
f 30/64/52 29/62/51 49/93/71 50/94/72
f 31/68/54 32/67/53 52/95/73 51/96/74
f 33/70/55 34/72/56 54/97/75 53/98/76
f 35/74/57 36/76/58 56/99/77 55/100/78
f 37/78/59 38/80/60 58/101/79 57/102/80
f 39/82/61 40/84/62 60/103/81 59/104/82
f 42/86/64 41/85/63 61/105/83 62/106/84
f 44/88/66 43/87/65 63/107/85 64/108/86
f 46/90/68 45/89/67 65/109/87 66/110/88
f 48/92/70 47/91/69 67/111/89 68/112/90
f 50/94/72 49/93/71 69/113/91 70/114/92
f 51/96/74 52/95/73 72/115/93 71/116/94
f 53/98/76 54/97/75 74/117/95 73/118/96
f 55/100/78 56/99/77 76/119/97 75/120/98
f 57/102/80 58/101/79 78/121/99 77/122/100
f 59/104/82 60/103/81 80/123/101 79/124/102
f 62/106/84 61/105/83 81/24/22 82/23/21
f 63/107/85 62/106/84 82/23/21 84/26/24
f 64/108/86 63/107/85 84/26/24 85/27/25
f 65/109/87 64/108/86 85/27/25 86/28/26
f 66/110/88 65/109/87 86/28/26 87/29/27
f 67/111/89 66/110/88 87/29/27 88/30/28
f 68/112/90 67/111/89 88/30/28 89/31/29
f 69/113/91 68/112/90 89/31/29 90/32/30
f 70/114/92 69/113/91 90/32/30 91/33/31
f 61/105/83 70/114/92 91/33/31 81/24/22
f 71/116/94 72/115/93 93/35/33 92/34/32
f 72/115/93 73/118/96 95/37/35 93/35/33
f 73/118/96 74/117/95 96/38/36 95/37/35
f 74/117/95 75/120/98 97/39/37 96/38/36
f 75/120/98 76/119/97 98/40/38 97/39/37
f 76/119/97 77/122/100 99/41/39 98/40/38
f 77/122/100 78/121/99 100/42/40 99/41/39
f 78/121/99 79/124/102 101/43/41 100/42/40
f 79/124/102 80/123/101 102/44/42 101/43/41
f 80/123/101 71/116/94 92/34/32 102/44/42
f 50/94/72 70/114/92 80/123/101 60/103/81
f 30/64/52 50/94/72 60/103/81 40/84/62
f 21/47/43 30/64/52 40/84/62 31/68/54
f 61/105/83 41/85/63 51/96/74 71/116/94
f 41/85/63 21/47/43 31/68/54 51/96/74
f 70/114/92 61/105/83 71/116/94 80/123/101
f 48/92/70 68/112/90 78/121/99 58/101/79
f 68/112/90 69/113/91 79/124/102 78/121/99
f 69/113/91 49/93/71 59/104/82 79/124/102
f 49/93/71 29/62/51 39/82/61 59/104/82
f 29/62/51 28/60/50 38/80/60 39/82/61
f 28/60/50 48/92/70 58/101/79 38/80/60
f 66/110/88 67/111/89 77/122/100 76/119/97
f 67/111/89 47/91/69 57/102/80 77/122/100
f 47/91/69 27/58/49 37/78/59 57/102/80
f 27/58/49 26/56/48 36/76/58 37/78/59
f 26/56/48 46/90/68 56/99/77 36/76/58
f 46/90/68 66/110/88 76/119/97 56/99/77
f 64/108/86 65/109/87 75/120/98 74/117/95
f 65/109/87 45/89/67 55/100/78 75/120/98
f 24/52/46 44/88/66 54/97/75 34/72/56
f 44/88/66 64/108/86 74/117/95 54/97/75
f 25/54/47 24/52/46 34/72/56 35/74/57
f 45/89/67 25/54/47 35/74/57 55/100/78
f 42/86/64 62/106/84 72/115/93 52/95/73
f 62/106/84 63/107/85 73/118/96 72/115/93
f 63/107/85 43/87/65 53/98/76 73/118/96
f 43/87/65 23/50/45 33/70/55 53/98/76
f 23/50/45 22/48/44 32/67/53 33/70/55
f 22/48/44 42/86/64 52/95/73 32/67/53
