# This file uses centimeters as units for non-parametric coordinates.

mtllib janela obj.mtl
g default
v 6.576061 13.169976 0.445807
v -6.576061 13.169976 0.445807
v 6.576061 0.017855 0.445807
v -6.576061 0.017855 0.445807
v 3.322406 8.675895 0.445807
v -3.322407 8.675895 0.445807
v -3.322407 4.511937 0.445807
v 3.322406 4.511937 0.445807
v 2.701916 8.107230 0.973847
v -2.701916 8.107230 0.973847
v -2.701916 5.080602 0.973847
v 2.701916 5.080602 0.973847
v 3.322406 8.675895 0.973847
v -3.322407 8.675895 0.973847
v -3.322407 4.511937 0.973847
v 3.322406 4.511937 0.973847
v 2.701916 8.107230 0.120617
v -2.701916 8.107230 0.120617
v -2.701916 5.080602 0.120617
v 2.701916 5.080602 0.120617
v -6.576061 13.169976 -0.445806
v 6.576061 13.169976 -0.445806
v -6.576061 0.017855 -0.445806
v 6.576061 0.017855 -0.445806
v -3.322407 8.675895 -0.445806
v 3.322406 8.675895 -0.445806
v 3.322406 4.511937 -0.445806
v -3.322407 4.511937 -0.445806
v -2.701916 8.107230 -0.973846
v 2.701916 8.107230 -0.973846
v 2.701916 5.080602 -0.973846
v -2.701916 5.080602 -0.973846
v -3.322407 8.675895 -0.973846
v 3.322406 8.675895 -0.973846
v 3.322406 4.511937 -0.973846
v -3.322407 4.511937 -0.973846
v -2.701916 8.107230 -0.120617
v 2.701916 8.107230 -0.120617
v 2.701916 5.080602 -0.120617
v -2.701916 5.080602 -0.120617
vt 0.375000 0.500000
vt 0.625000 0.500000
vt 0.375000 0.750000
vt 0.625000 0.750000
vt 0.375000 0.500000
vt 0.625000 0.500000
vt 0.625000 0.750000
vt 0.375000 0.750000
vt 0.375000 0.500000
vt 0.625000 0.500000
vt 0.625000 0.750000
vt 0.375000 0.750000
vt 0.375000 0.500000
vt 0.625000 0.500000
vt 0.625000 0.750000
vt 0.375000 0.750000
vt 0.375000 0.500000
vt 0.625000 0.500000
vt 0.625000 0.750000
vt 0.375000 0.750000
vt 0.375000 0.500000
vt 0.625000 0.500000
vt 0.625000 0.500000
vt 0.375000 0.500000
vt 0.625000 0.750000
vt 0.625000 0.750000
vt 0.375000 0.750000
vt 0.375000 0.750000
vt 0.375000 0.500000
vt 0.625000 0.500000
vt 0.625000 0.500000
vt 0.375000 0.500000
vt 0.625000 0.750000
vt 0.625000 0.750000
vt 0.375000 0.750000
vt 0.375000 0.750000
vt 0.625000 0.500000
vt 0.375000 0.500000
vt 0.625000 0.750000
vt 0.375000 0.750000
vn 0.000000 0.000000 1.000000
vn 0.000000 0.000000 1.000000
vn 0.000000 0.000000 1.000000
vn 0.000000 0.000000 1.000000
vn -0.000000 0.000000 1.000000
vn -0.000000 0.000000 1.000000
vn -0.000000 0.000000 1.000000
vn -0.000000 0.000000 1.000000
vn 0.000000 0.000000 1.000000
vn 0.000000 0.000000 1.000000
vn 0.000000 0.000000 1.000000
vn 0.000000 0.000000 1.000000
vn 0.000000 0.000000 1.000000
vn 0.000000 0.000000 1.000000
vn 0.000000 0.000000 1.000000
vn 0.000000 0.000000 1.000000
vn 0.000000 0.000000 1.000000
vn 0.000000 0.000000 1.000000
vn 0.000000 0.000000 1.000000
vn 0.000000 0.000000 1.000000
vn -0.000001 0.000000 1.000000
vn -0.000001 0.000000 1.000000
vn -0.000001 0.000000 1.000000
vn -0.000001 0.000000 1.000000
vn 0.000000 0.000000 1.000000
vn 0.000000 0.000000 1.000000
vn 0.000000 0.000000 1.000000
vn 0.000000 0.000000 1.000000
vn 0.000001 0.000000 1.000000
vn 0.000001 0.000000 1.000000
vn 0.000001 0.000000 1.000000
vn 0.000001 0.000000 1.000000
vn 0.000000 1.000000 0.000000
vn 0.000000 1.000000 0.000000
vn 0.000000 1.000000 0.000000
vn 0.000000 1.000000 0.000000
vn -1.000000 0.000000 0.000000
vn -1.000000 0.000000 0.000000
vn -1.000000 0.000000 0.000000
vn -1.000000 0.000000 0.000000
vn 0.000000 -1.000000 0.000000
vn 0.000000 -1.000000 0.000000
vn 0.000000 -1.000000 0.000000
vn 0.000000 -1.000000 0.000000
vn 1.000000 0.000000 0.000000
vn 1.000000 0.000000 0.000000
vn 1.000000 0.000000 0.000000
vn 1.000000 0.000000 0.000000
vn 0.000000 -1.000000 0.000000
vn 0.000000 -1.000000 0.000000
vn 0.000000 -1.000000 0.000000
vn 0.000000 -1.000000 0.000000
vn 1.000000 0.000000 0.000000
vn 1.000000 0.000000 0.000000
vn 1.000000 0.000000 0.000000
vn 1.000000 0.000000 0.000000
vn 0.000000 1.000000 0.000000
vn 0.000000 1.000000 0.000000
vn 0.000000 1.000000 0.000000
vn 0.000000 1.000000 0.000000
vn -1.000000 0.000000 0.000000
vn -1.000000 0.000000 0.000000
vn -1.000000 0.000000 0.000000
vn -1.000000 0.000000 0.000000
vn 0.000000 0.000000 -1.000000
vn 0.000000 0.000000 -1.000000
vn 0.000000 0.000000 -1.000000
vn 0.000000 0.000000 -1.000000
vn -0.000000 0.000000 -1.000000
vn -0.000000 0.000000 -1.000000
vn -0.000000 0.000000 -1.000000
vn -0.000000 0.000000 -1.000000
vn 0.000000 0.000000 -1.000000
vn 0.000000 0.000000 -1.000000
vn 0.000000 0.000000 -1.000000
vn 0.000000 0.000000 -1.000000
vn 0.000000 0.000000 -1.000000
vn 0.000000 0.000000 -1.000000
vn 0.000000 0.000000 -1.000000
vn 0.000000 0.000000 -1.000000
vn 0.000000 0.000000 -1.000000
vn 0.000000 0.000000 -1.000000
vn 0.000000 0.000000 -1.000000
vn 0.000000 0.000000 -1.000000
vn 0.000001 0.000000 -1.000000
vn 0.000001 0.000000 -1.000000
vn 0.000001 0.000000 -1.000000
vn 0.000001 0.000000 -1.000000
vn 0.000000 0.000000 -1.000000
vn 0.000000 0.000000 -1.000000
vn 0.000000 0.000000 -1.000000
vn 0.000000 0.000000 -1.000000
vn -0.000001 0.000000 -1.000000
vn -0.000001 0.000000 -1.000000
vn -0.000001 0.000000 -1.000000
vn -0.000001 0.000000 -1.000000
vn 0.000000 1.000000 0.000000
vn 0.000000 1.000000 0.000000
vn 0.000000 1.000000 0.000000
vn 0.000000 1.000000 0.000000
vn 1.000000 0.000000 0.000000
vn 1.000000 0.000000 0.000000
vn 1.000000 0.000000 0.000000
vn 1.000000 0.000000 0.000000
vn 0.000000 -1.000000 0.000000
vn 0.000000 -1.000000 0.000000
vn 0.000000 -1.000000 0.000000
vn 0.000000 -1.000000 0.000000
vn -1.000000 0.000000 0.000000
vn -1.000000 0.000000 0.000000
vn -1.000000 0.000000 0.000000
vn -1.000000 0.000000 0.000000
vn 0.000000 -1.000000 0.000000
vn 0.000000 -1.000000 0.000000
vn 0.000000 -1.000000 0.000000
vn 0.000000 -1.000000 0.000000
vn -1.000000 0.000000 0.000000
vn -1.000000 0.000000 0.000000
vn -1.000000 0.000000 0.000000
vn -1.000000 0.000000 0.000000
vn 0.000000 1.000000 0.000000
vn 0.000000 1.000000 0.000000
vn 0.000000 1.000000 0.000000
vn 0.000000 1.000000 0.000000
vn 1.000000 0.000000 0.000000
vn 1.000000 0.000000 0.000000
vn 1.000000 0.000000 0.000000
vn 1.000000 0.000000 0.000000
vn 0.000000 1.000000 0.000000
vn 0.000000 1.000000 0.000000
vn 0.000000 1.000000 0.000000
vn 0.000000 1.000000 0.000000
vn 1.000000 0.000000 0.000000
vn 1.000000 0.000000 0.000000
vn 1.000000 0.000000 0.000000
vn 1.000000 0.000000 0.000000
vn 0.000000 -1.000000 0.000000
vn 0.000000 -1.000000 0.000000
vn 0.000000 -1.000000 0.000000
vn 0.000000 -1.000000 0.000000
vn -1.000000 0.000000 0.000000
vn -1.000000 0.000000 0.000000
vn -1.000000 0.000000 0.000000
vn -1.000000 0.000000 0.000000
vn 1.000000 0.000000 0.000000
vn 1.000000 0.000000 0.000000
vn 1.000000 0.000000 0.000000
vn 1.000000 0.000000 0.000000
vn 0.000000 1.000000 0.000000
vn 0.000000 1.000000 0.000000
vn 0.000000 1.000000 0.000000
vn 0.000000 1.000000 0.000000
vn -1.000000 0.000000 0.000000
vn -1.000000 0.000000 0.000000
vn -1.000000 0.000000 0.000000
vn -1.000000 0.000000 0.000000
vn 0.000000 -1.000000 0.000000
vn 0.000000 -1.000000 0.000000
vn 0.000000 -1.000000 0.000000
vn 0.000000 -1.000000 0.000000
s off
g pCube12
usemtl initialShadingGroup
f 1/1/1 2/2/2 6/6/3 5/5/4
f 2/2/5 4/4/6 7/7/7 6/6/8
f 4/4/9 3/3/10 8/8/11 7/7/12
f 3/3/13 1/1/14 5/5/15 8/8/16
f 13/13/17 14/14/18 10/10/19 9/9/20
f 14/14/21 15/15/22 11/11/23 10/10/24
f 15/15/25 16/16/26 12/12/27 11/11/28
f 16/16/29 13/13/30 9/9/31 12/12/32
f 5/5/33 6/6/34 14/14/35 13/13/36
f 6/6/37 7/7/38 15/15/39 14/14/40
f 7/7/41 8/8/42 16/16/43 15/15/44
f 8/8/45 5/5/46 13/13/47 16/16/48
f 9/9/49 10/10/50 18/18/51 17/17/52
f 10/10/53 11/11/54 19/19/55 18/18/56
f 11/11/57 12/12/58 20/20/59 19/19/60
f 12/12/61 9/9/62 17/17/63 20/20/64
f 21/21/65 22/22/66 26/23/67 25/24/68
f 22/22/69 24/25/70 27/26/71 26/23/72
f 24/25/73 23/27/74 28/28/75 27/26/76
f 23/27/77 21/21/78 25/24/79 28/28/80
f 33/29/81 34/30/82 30/31/83 29/32/84
f 34/30/85 35/33/86 31/34/87 30/31/88
f 35/33/89 36/35/90 32/36/91 31/34/92
f 36/35/93 33/29/94 29/32/95 32/36/96
f 25/24/97 26/23/98 34/30/99 33/29/100
f 26/23/101 27/26/102 35/33/103 34/30/104
f 27/26/105 28/28/106 36/35/107 35/33/108
f 28/28/109 25/24/110 33/29/111 36/35/112
f 29/32/113 30/31/114 38/37/115 37/38/116
f 30/31/117 31/34/118 39/39/119 38/37/120
f 31/34/121 32/36/122 40/40/123 39/39/124
f 32/36/125 29/32/126 37/38/127 40/40/128
f 2/2/129 1/1/130 22/22/131 21/21/132
f 1/1/133 3/3/134 24/25/135 22/22/136
f 3/3/137 4/4/138 23/27/139 24/25/140
f 4/4/141 2/2/142 21/21/143 23/27/144
f 18/18/145 19/19/146 40/40/147 37/38/148
f 19/19/149 20/20/150 39/39/151 40/40/152
f 20/20/153 17/17/154 38/37/155 39/39/156
f 17/17/157 18/18/158 37/38/159 38/37/160
